<svg id="Capa_1" enable-background="new 0 0 512 512" height="512" viewBox="0 0 512 512" width="512" xmlns="http://www.w3.org/2000/svg"><path d="m370.104 285.599c23.042-26.532 37.007-61.148 37.007-98.965 0-.958-.031-1.921-.049-2.882 17.761-5.272 35.303-11.481 52.586-18.64 10.205-4.227 15.051-15.926 10.824-26.131s-15.926-15.051-26.131-10.824c-12.69 5.256-25.531 9.958-38.505 14.116-7.899-81.604-51.716-142.273-106.132-142.273-15.268 0-30.124 4.818-43.704 14.069-13.58-9.251-28.436-14.069-43.704-14.069-54.416 0-98.233 60.669-106.132 142.273-12.973-4.157-25.815-8.859-38.505-14.116-10.204-4.227-21.904.619-26.131 10.824s.619 21.904 10.824 26.131c17.283 7.159 34.825 13.368 52.586 18.64-.018.961-.049 1.924-.049 2.882 0 37.817 13.965 72.433 37.007 98.965-86.329 33.199-141.896 115.765-141.896 206.401 0 11.046 8.954 20 20 20h472c11.046 0 20-8.954 20-20 0-90.671-55.604-173.216-141.896-206.401zm-157.808-245.599c10.144 0 20.125 4.767 29.667 14.168 7.786 7.671 20.288 7.671 28.074 0 9.542-9.401 19.523-14.168 29.667-14.168 41.994 0 64.038 70.558 66.864 113.078-36.1 8.334-73.068 12.544-110.568 12.544s-74.468-4.21-110.568-12.544c2.823-42.476 24.853-113.078 66.864-113.078zm43.704 165.622c37.543 0 74.593-3.897 110.862-11.627-3.803 57.848-52.068 103.751-110.862 103.751s-107.059-45.903-110.862-103.751c36.269 7.729 73.319 11.627 110.862 11.627zm-214.893 266.378c8.343-75 63.023-137.944 137.021-155.911 22.756 13.74 49.406 21.656 77.872 21.656s55.116-7.916 77.872-21.656c73.999 17.967 128.678 80.911 137.021 155.911z"/></svg>