<svg id="Capa_1" enable-background="new 0 0 512 512" height="512" viewBox="0 0 512 512" width="512" xmlns="http://www.w3.org/2000/svg"><path d="m212.193 356.376c7.811 7.811 7.811 20.474 0 28.284-7.811 7.811-20.474 7.81-28.284 0l-56.568-56.568c-7.811-7.811-7.811-20.474 0-28.284s20.474-7.811 28.284 0zm299.601-333.542-15.797 110.575c-.612 4.284-2.597 8.253-5.657 11.313l-188.331 188.333 31.668 31.668c7.81 7.81 7.81 20.473 0 28.284l-113.137 113.135c-7.811 7.811-20.474 7.81-28.284 0l-186.398-186.398c-7.81-7.81-7.81-20.473 0-28.284l113.136-113.136c7.81-7.81 20.473-7.81 28.284 0l31.668 31.668 188.333-188.332c3.06-3.06 7.03-5.045 11.313-5.657l110.575-15.796c13.207-1.893 24.508 9.477 22.627 22.627zm-220.544 356.03c-15.624-15.624-139.314-139.314-158.114-158.114l-84.852 84.852 158.114 158.114zm172.462-302.29-90.404 90.404c-7.811 7.811-20.474 7.81-28.284 0s-7.81-20.473 0-28.284l90.404-90.404-44.579 6.368-183.619 183.618 66.495 66.495 183.619-183.618z"/></svg>