<svg id="Capa_1" enable-background="new 0 0 512 512" height="512" viewBox="0 0 512 512" width="512" xmlns="http://www.w3.org/2000/svg"><path d="m492 80c-33.084 0-60-26.916-60-60 0-11.046-8.954-20-20-20h-312c-11.046 0-20 8.954-20 20 0 33.084-26.916 60-60 60-11.046 0-20 8.954-20 20v62.81c0 157.625 100.298 297.528 249.579 348.132 4.132 1.4 8.644 1.422 12.842 0 149.281-50.604 249.579-190.507 249.579-348.132v-62.81c0-11.046-8.954-20-20-20zm-20 82.81c0 138.201-86.516 261.115-216 307.999-129.484-46.885-216-169.799-216-307.999v-44.819c39.123-7.974 70.017-38.868 77.991-77.991h276.018c7.975 39.123 38.869 70.017 77.991 77.991zm-221.178-82.674c-49.78 2.616-89.66 43.312-91.278 93.178-.996 30.68 12.757 59.911 36.456 78.772v93.946c0 33.084 26.916 60 60 60s60-26.916 60-60v-93.919c23.05-18.216 36.508-45.722 36.508-75.605 0-54.211-45.25-99.332-101.686-96.372zm34.705 144.554c-5.92 3.639-9.527 10.09-9.527 17.039v104.303c0 11.028-8.972 20-20 20s-20-8.972-20-20v-104.303c0-6.949-3.607-13.4-9.527-17.039-17.281-10.621-27.608-29.81-26.95-50.079.943-29.054 24.399-53.007 53.398-54.531 32.69-1.728 59.587 24.212 59.587 56.427 0 19.788-10.086 37.8-26.981 48.183z"/></svg>