<svg id="Capa_1" enable-background="new 0 0 512 512" height="512" viewBox="0 0 512 512" width="512" xmlns="http://www.w3.org/2000/svg"><path d="m492 251c-13.333 0-18.854-4.141-28-11-8.194-6.146-18.717-14.027-35.188-17.375-6.116-31.73-20.777-60.451-41.492-83.667 3.044-.737 6.32-1.212 10.102-1.752 13.229-1.89 31.349-4.479 50.205-23.335 7.811-7.811 7.81-20.474-.001-28.284-7.811-7.811-20.474-7.811-28.284 0-9.428 9.428-16.259 10.404-27.577 12.021-10.153 1.451-23.188 3.322-37.224 12.633-25.508-17.3-55.777-28.078-88.395-29.942 1.622-2.646 3.586-5.275 5.854-8.3 8.019-10.691 19-25.333 19-52 0-11.046-8.954-20-20-20s-20 8.954-20 20c0 13.333-4.141 18.854-11 28-6.146 8.194-14.026 18.717-17.375 35.188-31.73 6.116-60.451 20.778-83.667 41.492-.736-3.044-1.212-6.32-1.752-10.102-1.89-13.229-4.479-31.348-23.334-50.205-7.812-7.811-20.475-7.81-28.284 0-7.811 7.81-7.812 20.474-.001 28.284 9.429 9.428 10.404 16.259 12.021 27.577 1.451 10.154 3.322 23.188 12.634 37.225-17.3 25.508-28.078 55.777-29.942 88.395-2.646-1.622-5.275-3.586-8.3-5.854-10.691-8.019-25.333-19-52-19-11.046 0-20 8.954-20 20s8.954 20 20 20c13.333 0 18.854 4.141 28 11 8.194 6.146 18.717 14.027 35.188 17.375 6.116 31.73 20.777 60.451 41.492 83.667-3.044.737-6.32 1.212-10.102 1.752-13.229 1.89-31.349 4.479-50.205 23.335-7.811 7.811-7.81 20.474.001 28.284 7.81 7.81 20.473 7.811 28.284 0 9.428-9.428 16.259-10.404 27.577-12.021 10.153-1.451 23.188-3.322 37.224-12.633 25.508 17.3 55.777 28.078 88.395 29.942-1.622 2.646-3.586 5.275-5.854 8.3-8.019 10.691-19 25.333-19 52 0 11.046 8.954 20 20 20s20-8.954 20-20c0-13.333 4.141-18.854 11-28 6.146-8.194 14.026-18.717 17.375-35.188 31.73-6.116 60.451-20.777 83.667-41.492.736 3.044 1.212 6.32 1.752 10.102 1.89 13.229 4.479 31.348 23.334 50.205 7.81 7.81 20.474 7.812 28.284 0 7.811-7.81 7.812-20.474.001-28.284-9.429-9.428-10.404-16.259-12.021-27.577-1.451-10.154-3.322-23.188-12.634-37.225 17.3-25.508 28.078-55.777 29.942-88.395 2.646 1.622 5.275 3.586 8.3 5.854 10.691 8.019 25.333 19 52 19 11.046 0 20-8.954 20-20s-8.954-20-20-20zm-236 141c-74.99 0-136-61.009-136-136s61.01-136 136-136 136 61.009 136 136-61.01 136-136 136zm26-170c-33.084 0-60 26.916-60 60s26.916 60 60 60 60-26.916 60-60-26.916-60-60-60zm0 80c-11.028 0-20-8.972-20-20s8.972-20 20-20 20 8.972 20 20-8.972 20-20 20zm-62-102c0 11.046-8.954 20-20 20s-20-8.954-20-20 8.954-20 20-20 20 8.954 20 20z"/></svg>