<svg id="Capa_1" enable-background="new 0 0 512 512" height="512" viewBox="0 0 512 512" width="512" xmlns="http://www.w3.org/2000/svg"><path d="m480.893 25.864c-53.243-21.335-167.183-25.864-224.893-25.864-58.38 0-171.841 4.605-224.893 25.864-20.641 8.271-31.107 19.755-31.107 34.134v392.004c0 14.379 10.466 25.863 31.107 34.134 53.243 21.335 167.183 25.864 224.893 25.864 58.38 0 171.841-4.605 224.893-25.864 20.641-8.271 31.107-19.755 31.107-34.134v-392.004c0-14.379-10.466-25.863-31.107-34.134zm-224.893 14.136c55.239 0 150.682 4.148 201.431 19.998-50.329 15.719-145.047 19.998-201.431 19.998-55.871 0-150.903-4.217-201.431-19.998 50.329-15.719 145.047-19.998 201.431-19.998zm216 406.216c-38.009 20.894-165.427 25.784-216 25.784-47.335 0-177.441-4.588-216-25.784v-87.535c55.467 18.18 156.153 22.657 216 22.657 59.495 0 160.576-4.491 216-22.657zm0-130.665c-38.435 21.139-167.871 25.786-216 25.786-46.673 0-177.308-4.507-216-25.786v-87.546c55.467 18.18 156.153 22.657 216 22.657 59.495 0 160.576-4.491 216-22.657zm0-130.675c-38.435 21.139-167.871 25.786-216 25.786-46.673 0-177.308-4.507-216-25.786v-87.536c55.467 18.18 156.153 22.656 216 22.656 59.495 0 160.576-4.49 216-22.656z"/></svg>