<svg id="Capa_1" enable-background="new 0 0 512 512" height="512" viewBox="0 0 512 512" width="512" xmlns="http://www.w3.org/2000/svg"><path d="m461.859 309.798-54.381 22.442 5.502-31.197c1.918-10.871-5.346-21.252-16.223-23.17l-224.856-39.639-41.072-61.61c7.563-10.061 12.052-22.558 12.052-36.084 0-13.527-4.489-26.023-12.052-36.084l42.971-64.456h30.48c11.046 0 19.999-8.954 19.999-20s-8.954-20-19.999-20c-19.428 0-76.94 0-100.448 0-11.045 0-19.999 8.954-19.999 20s8.954 20 19.999 20h21.895l-28.15 42.227c-4.762-1.216-9.749-1.866-14.885-1.866-33.188 0-60.189 26.997-60.189 60.181 0 33.183 27.001 60.18 60.189 60.18 5.136 0 10.123-.65 14.885-1.866l19.85 29.776-37.162-6.551c-10.872-1.915-21.249 5.345-23.167 16.222l-34.291 194.427c-1.918 10.872 5.346 21.253 16.223 23.17l316.493 55.793c10.877 1.918 21.249-5.345 23.167-16.223l5.503-31.202 43.425 39.686c11.58 10.582 30.437 4.302 33.187-11.29l28.378-160.905c2.737-15.515-12.764-27.969-27.324-21.961zm-379.167-149.076c-11.133 0-20.191-9.053-20.191-20.181s9.057-20.181 20.191-20.181 20.191 9.053 20.191 20.181-9.057 20.181-20.191 20.181zm260.081 308.107-277.101-48.849 27.343-155.035 277.101 48.849zm84.963-18.954-35.313-32.271 6.824-38.694 44.223-18.25z"/></svg>