<svg id="Capa_1" enable-background="new 0 0 512 512" height="512" viewBox="0 0 512 512" width="512" xmlns="http://www.w3.org/2000/svg"><path d="m483.826 83.586c-66.929-51.341-144.163-83.586-227.826-83.586-83.679 0-160.913 32.257-227.826 83.586-4.956 3.64-8.174 9.51-8.174 16.131v62.857c0 157.483 92.048 297.409 229.049 348.188 4.437 1.644 9.428 1.657 13.901 0 137.002-50.779 229.05-190.705 229.05-348.188v-62.857c0-6.621-3.218-12.491-8.174-16.131zm-31.826 78.988c0 130.133-69.648 246.613-176 299.06v-114.611c12.875 1.565 25.588 4.829 38.475 9.864 3.875 1.513 7.907 2.241 11.896 2.241 10.15 0 20.025-4.712 26.321-13.188 3.312-4.459 6.53-9.064 9.564-13.689 13.035-19.867 23.721-41.404 31.76-64.012 3.701-10.407-1.736-21.845-12.144-25.545-10.41-3.7-21.844 1.736-25.545 12.144-6.971 19.605-16.228 38.268-27.515 55.47-1.618 2.466-3.297 4.926-5.019 7.355-36.885-13.29-67.911-11.578-69.739-11.728-22.117 0-44.244 3.944-65.849 11.728-1.722-2.428-3.401-4.889-5.019-7.355-11.287-17.202-20.544-35.864-27.515-55.47-3.7-10.407-15.138-15.844-25.545-12.144-10.407 3.701-15.844 15.138-12.144 25.545 8.039 22.608 18.725 44.145 31.76 64.012 3.034 4.625 6.252 9.23 9.563 13.688 8.771 11.81 24.487 16.311 38.218 10.947 12.887-5.034 25.6-8.298 38.475-9.863v114.612c-106.35-52.448-175.998-168.928-175.998-299.061v-52.869c62.904-46.262 128.799-69.705 196-69.705s133.096 23.442 196 69.705zm-218.646 33.101c-5.489 9.584-17.711 12.904-27.295 7.414-26.169-14.991-55.928-22.914-86.059-22.914-11.046 0-20-8.954-20-20s8.954-20 20-20c37.095 0 73.729 9.753 105.941 28.205 9.584 5.49 12.904 17.711 7.413 27.295zm45.292 0c-5.49-9.584-2.171-21.805 7.414-27.295 32.212-18.452 68.846-28.205 105.941-28.205 11.046 0 20 8.954 20 20s-8.954 20-20 20c-30.131 0-59.89 7.923-86.059 22.914-9.585 5.49-21.806 2.172-27.296-7.414z"/></svg>