<svg id="Capa_1" enable-background="new 0 0 512 512" height="512" viewBox="0 0 512 512" width="512" xmlns="http://www.w3.org/2000/svg"><path d="m492 79.445h-169.686c-27.009-42.854-49.778-70.346-50.945-71.747-7.986-9.591-22.741-9.604-30.739 0-1.167 1.401-23.935 28.893-50.944 71.747h-169.686c-11.046 0-20 8.954-20 20v392.055c0 11.046 8.954 20 20 20h236 236c11.046 0 20-8.954 20-20v-392.055c0-11.046-8.954-20-20-20zm-452 40h126.038c-17.293 31.285-31.211 61.55-41.736 90.688h-84.302zm0 130.689h71.793c-7.845 29.965-11.793 58.578-11.793 85.695 0 1.661.026 3.318.067 4.972h-60.067zm0 221.366v-90.698h65.141c8.282 35.492 26.274 67.054 51.68 90.698zm216-.031c-22.056 0-40-17.944-40-40s17.944-40 40-40 40 17.944 40 40-17.944 40-40 40zm0-120.001c-44.112 0-80 35.888-80 80.001 0 .868.038 1.728.066 2.589-22.206-24.73-36.066-59.622-36.066-98.229 0-112.941 81.308-235.432 116-282.548 34.691 47.116 116 169.607 116 282.548 0 38.608-13.86 73.5-36.066 98.229.028-.862.066-1.721.066-2.589 0-44.113-35.888-80.001-80-80.001zm216 120.032h-116.822c25.383-23.623 43.391-55.175 51.681-90.698h65.141zm0-130.699h-60.067c.041-1.654.067-3.311.067-4.972 0-27.117-3.948-55.73-11.793-85.695h71.793zm0-130.668h-84.301c-10.525-29.137-24.443-59.403-41.737-90.688h126.038z"/></svg>