<svg id="Capa_1" enable-background="new 0 0 512 512" height="512" viewBox="0 0 512 512" width="512" xmlns="http://www.w3.org/2000/svg"><path d="m492 0h-472c-11.046 0-20 8.954-20 20v472c0 11.046 8.954 20 20 20h472c11.046 0 20-8.954 20-20 0-13.982 0-458.026 0-472 0-11.046-8.954-20-20-20zm-20 472h-432v-352h432zm0-392h-432v-40h432zm-296 352c33.084 0 60-26.916 60-60s-26.916-60-60-60-60 26.916-60 60 26.916 60 60 60zm0-80c11.028 0 20 8.972 20 20s-8.972 20-20 20-20-8.972-20-20 8.972-20 20-20zm-20-93.062v-78.938c0-11.046 8.954-20 20-20s20 8.954 20 20v78.938c0 11.046-8.954 20-20 20s-20-8.954-20-20zm180 21.062c33.084 0 60-26.916 60-60s-26.916-60-60-60-60 26.916-60 60 26.916 60 60 60zm0-80c11.028 0 20 8.972 20 20s-8.972 20-20 20-20-8.972-20-20 8.972-20 20-20zm20 133.062v78.938c0 11.046-8.954 20-20 20s-20-8.954-20-20v-78.938c0-11.046 8.954-20 20-20s20 8.954 20 20z"/></svg>