<svg id="Capa_1" enable-background="new 0 0 512 512" height="512" viewBox="0 0 512 512" width="512" xmlns="http://www.w3.org/2000/svg"><path d="m256 0c-141.484 0-256 114.497-256 256 0 141.484 114.497 256 256 256 141.484 0 256-114.497 256-256 0-141.484-114.497-256-256-256zm192.253 157.333h-34.413c-7.476-21.079-26.414-36.765-49.286-39.543-7.448-24.033-16.686-44.862-27.325-62.046 49.142 19.927 88.161 57.161 111.024 101.589zm-279.83 118.931c-.276-6.75-.423-13.522-.423-20.264 0-20.124 1.188-39.805 3.48-58.667h129.241c6.763 19.068 22.906 33.722 42.856 38.402.276 6.751.423 13.523.423 20.265 0 20.124-1.188 39.805-3.48 58.667h-129.241c-6.763-19.069-22.906-33.722-42.856-38.403zm6.296 58.403c0 11.028-8.972 20-20 20s-20-8.972-20-20c0-11.058 9.033-20 19.999-20h.001c11.028 0 20 8.972 20 20zm162.562-157.334c0-11.028 8.972-20 20-20s20 8.972 20 20c0 11.172-9.142 19.979-19.967 19.998-.011 0-.023.001-.034.001-.002 0-.003 0-.005 0-11.025-.001-19.994-8.972-19.994-19.999zm-81.281-137.333c33.898 0 58.991 54.279 69.367 86.562-11.324 7.144-20.102 17.96-24.646 30.771h-122.44c9.373-42.147 36.469-117.333 77.719-117.333zm-81.231 15.744c-18.514 29.972-30.356 66.809-37.334 101.589h-73.688c22.856-44.414 61.868-81.656 111.022-101.589zm-134.769 200.256c0-20.117 2.74-39.813 8.028-58.667h83.204c-2.13 19.009-3.232 38.668-3.232 58.667 0 8.207.214 16.453.591 24.663-14.11 6.855-25.14 19.082-30.432 34.003h-50.131c-5.288-18.853-8.028-38.549-8.028-58.666zm23.747 98.667h34.413c7.476 21.079 26.414 36.765 49.286 39.543 7.448 24.033 16.686 44.862 27.325 62.046-49.142-19.927-88.161-57.161-111.024-101.589zm192.253 117.333c-33.899 0-58.991-54.28-69.367-86.562 11.324-7.144 20.102-17.96 24.646-30.771h122.44c-9.373 42.147-36.469 117.333-77.719 117.333zm81.231-15.744c18.514-29.972 30.355-66.809 37.334-101.589h73.687c-22.855 44.414-61.867 81.656-111.021 101.589zm43.537-141.589c2.13-19.009 3.232-38.668 3.232-58.667 0-8.207-.214-16.453-.591-24.663 14.11-6.855 25.14-19.082 30.432-34.003h50.132c5.287 18.854 8.027 38.549 8.027 58.666s-2.74 39.813-8.028 58.667z"/></svg>