<svg id="Capa_1" enable-background="new 0 0 512 512" height="512" viewBox="0 0 512 512" width="512" xmlns="http://www.w3.org/2000/svg"><path d="m0 100v-80c0-11.046 8.954-20 20-20h80c11.046 0 20 8.954 20 20s-8.954 20-20 20h-60v60c0 11.046-8.954 20-20 20s-20-8.954-20-20zm492-100h-80c-11.046 0-20 8.954-20 20s8.954 20 20 20h60v60c0 11.046 8.954 20 20 20s20-8.954 20-20v-80c0-11.046-8.954-20-20-20zm-392 472h-60v-60c0-11.046-8.954-20-20-20s-20 8.954-20 20v80c0 11.046 8.954 20 20 20h80c11.046 0 20-8.954 20-20s-8.954-20-20-20zm392-80c-11.046 0-20 8.954-20 20v60h-60c-11.046 0-20 8.954-20 20s8.954 20 20 20h80c11.046 0 20-8.954 20-20v-80c0-11.046-8.954-20-20-20zm20-136c0 11.046-8.954 20-20 20h-25.181c-31.316 90.023-106.525 152.479-210.819 152.479-105.747 0-179.892-63.575-210.819-152.479h-25.181c-11.046 0-20-8.954-20-20s8.954-20 20-20h25.181c31.316-90.023 106.525-152.479 210.819-152.479 105.747 0 179.892 63.575 210.819 152.479h25.181c11.046 0 20 8.954 20 20zm-423.972-20h69.982c9.291-45.589 49.697-80 97.989-80s88.698 34.411 97.989 80h69.929c-29.529-69.044-86.665-112.479-167.917-112.479-80.949 0-138.232 42.929-167.972 112.479zm224.532 0c-8.256-23.278-30.487-40-56.56-40s-48.303 16.722-56.56 40zm-113.12 40c8.256 23.278 30.487 40 56.56 40s48.303-16.722 56.56-40zm224.532 0h-69.982c-9.291 45.589-49.697 80-97.989 80s-88.698-34.411-97.989-80h-69.93c29.53 69.044 86.665 112.479 167.918 112.479 80.949 0 138.232-42.929 167.972-112.479z"/></svg>