<svg id="Capa_1" enable-background="new 0 0 512 512" height="512" viewBox="0 0 512 512" width="512" xmlns="http://www.w3.org/2000/svg"><path d="m506.143 437.858-112.414-112.414c2.945-3.698 5.748-7.513 8.393-11.444h89.878c11.046 0 20-8.954 20-20v-156c0-11.046-8.954-20-20-20h-89.878c-31.631-47.01-85.324-78-146.122-78s-114.491 30.99-146.122 78h-89.878c-11.046 0-20 8.954-20 20v156c0 11.046 8.954 20 20 20h89.878c31.631 47.01 85.324 78 146.122 78 41.333 0 79.378-14.329 109.445-38.271l112.413 112.413c7.81 7.809 20.472 7.812 28.285 0 7.809-7.81 7.81-20.473 0-28.284zm-83.975-279.858h49.832v116h-49.832c6.361-18.17 9.832-37.686 9.832-58s-3.471-39.83-9.832-58zm-332.337 116h-49.831v-116h49.831c-6.36 18.17-9.831 37.686-9.831 58s3.471 39.83 9.831 58zm166.169 78c-74.991 0-136-61.009-136-136s61.009-136 136-136c74.99 0 136 61.009 136 136 0 74.984-61.035 136-136 136zm75.818-156.68-35.818 20.68 35.818 20.68c9.565 5.522 12.844 17.754 7.32 27.32-5.541 9.598-17.786 12.825-27.32 7.32l-35.818-20.679v41.359c0 11.046-8.954 20-20 20s-20-8.954-20-20v-41.359l-35.818 20.679c-9.54 5.508-21.781 2.274-27.32-7.32-5.523-9.566-2.246-21.798 7.32-27.32l35.818-20.68-35.818-20.68c-9.566-5.522-12.843-17.754-7.32-27.32 5.522-9.567 17.754-12.844 27.32-7.32l35.818 20.679v-41.359c0-11.046 8.954-20 20-20s20 8.954 20 20v41.359l35.818-20.68c9.565-5.524 21.798-2.246 27.32 7.32 5.524 9.567 2.246 21.799-7.32 27.321z"/></svg>