<svg id="Capa_1" enable-background="new 0 0 512 512" height="512" viewBox="0 0 512 512" width="512" xmlns="http://www.w3.org/2000/svg"><path d="m80 412c0-11.046 8.954-20 20-20h80c11.046 0 20 8.954 20 20s-8.954 20-20 20h-80c-11.046 0-20-8.954-20-20zm432-272v352c0 11.046-8.954 20-20 20h-472c-11.046 0-20-8.954-20-20 0-18.45 0-340.413 0-352 0-11.046 8.954-20 20-20h176v-100c0-11.046 8.954-20 20-20s20 8.954 20 20v100h40v-20c0-11.046 8.954-20 20-20s20 8.954 20 20v20h176c11.046 0 20 8.954 20 20zm-40 140h-432v192h432zm0-120h-236c0 11.028 8.972 20 20 20 11.046 0 20 8.954 20 20s-8.954 20-20 20c-33.084 0-60-26.916-60-60h-156v80h432z"/></svg>