<svg id="Capa_1" enable-background="new 0 0 512 512" height="512" viewBox="0 0 512 512" width="512" xmlns="http://www.w3.org/2000/svg"><path d="m20 200h160c11.046 0 20-8.954 20-20v-160c0-11.046-8.954-20-20-20h-160c-11.046 0-20 8.954-20 20v160c0 11.046 8.954 20 20 20zm20-160h120v120h-120zm472-20v236c0 11.046-8.954 20-20 20s-20-8.954-20-20v-216h-212.001c-11.046 0-20-8.954-20-20s8.954-20 20-20h232.001c11.046 0 20 8.954 20 20zm-312 312v160c0 11.046-8.954 20-20 20h-160c-11.046 0-20-8.954-20-20v-160c0-11.046 8.954-20 20-20s20 8.954 20 20v140h120v-120h-60c-11.046 0-20-8.954-20-20s8.954-20 20-20h80c11.046 0 20 8.954 20 20zm312 0v160c0 11.046-8.954 20-20 20s-20-8.954-20-20v-140h-140c-11.046 0-20-8.954-20-20s8.954-20 20-20h160c11.046 0 20 8.954 20 20zm-152-232v136h35.999v-56c0-11.046 8.954-20 20-20s20 8.954 20 20v76c0 11.046-8.954 20-20 20h-75.999c-11.046 0-20-8.954-20-20v-156c0-11.046 8.954-20 20-20s20 8.954 20 20zm-360 156c0-11.046 8.954-20 20-20h219.999l.001-136c0-11.045 8.955-20 20-20 11.046 0 20 8.955 20 20l-.001 156c0 11.046-8.954 20-20 20h-239.999c-11.046 0-20-8.954-20-20zm435.999 236c0 11.046-8.954 20-20 20h-156c-11.046 0-20-8.954-20-20s8.954-20 20-20h156c11.046 0 20 8.954 20 20zm0-80c0 11.046-8.954 20-20 20h-156c-11.046 0-20-8.954-20-20v-80c0-11.046 8.954-20 20-20s20 8.954 20 20v60h136c11.046 0 20 8.954 20 20z"/></svg>