<svg id="Capa_1" enable-background="new 0 0 512 512" height="512" viewBox="0 0 512 512" width="512" xmlns="http://www.w3.org/2000/svg"><path d="m0 100v-80c0-11.046 8.954-20 20-20h80c11.046 0 20 8.954 20 20s-8.954 20-20 20h-60v60c0 11.046-8.954 20-20 20s-20-8.954-20-20zm492-100h-80c-11.046 0-20 8.954-20 20s8.954 20 20 20h60v60c0 11.046 8.954 20 20 20s20-8.954 20-20v-80c0-11.046-8.954-20-20-20zm-392 472h-60v-60c0-11.046-8.954-20-20-20s-20 8.954-20 20v80c0 11.046 8.954 20 20 20h80c11.046 0 20-8.954 20-20s-8.954-20-20-20zm392-80c-11.046 0-20 8.954-20 20v60h-60c-11.046 0-20 8.954-20 20s8.954 20 20 20h80c11.046 0 20-8.954 20-20v-80c0-11.046-8.954-20-20-20zm0-156h-60v-136c0-11.046-8.954-20-20-20s-20 8.954-20 20v136h-64v-136c0-11.046-8.954-20-20-20s-20 8.954-20 20v136h-64v-136c0-11.046-8.954-20-20-20s-20 8.954-20 20v136h-64v-136c0-11.046-8.954-20-20-20s-20 8.954-20 20v136h-60c-11.046 0-20 8.954-20 20s8.954 20 20 20h60v136c0 11.046 8.954 20 20 20s20-8.954 20-20v-136h64v136c0 11.046 8.954 20 20 20s20-8.954 20-20v-136h64v136c0 11.046 8.954 20 20 20s20-8.954 20-20v-136h64v136c0 11.046 8.954 20 20 20s20-8.954 20-20v-136h60c11.046 0 20-8.954 20-20s-8.954-20-20-20z"/></svg>