<svg id="Capa_1" enable-background="new 0 0 512 512" height="512" viewBox="0 0 512 512" width="512" xmlns="http://www.w3.org/2000/svg"><path d="m47.879 313.983c-5.228-18.809-7.879-38.318-7.879-57.983 0-119.377 96.607-216 216-216 39.134 0 76.842 10.363 110.065 30.106-1.978 5.945-3.065 12.293-3.065 18.894 0 33.084 26.916 60 60 60s60-26.916 60-60-26.916-60-60-60c-11.817 0-22.837 3.448-32.135 9.37-40.45-25.147-86.754-38.37-134.865-38.37-141.483 0-256 114.496-256 256 0 23.285 3.143 46.397 9.34 68.696 2.968 10.678 14.02 16.861 24.625 13.913 10.643-2.958 16.872-13.983 13.914-24.626zm375.121-244.983c11.028 0 20 8.972 20 20s-8.972 20-20 20-20-8.972-20-20 8.972-20 20-20zm79.66 118.305c-2.958-10.642-13.982-16.871-24.625-13.914-10.643 2.958-16.872 13.982-13.914 24.625 5.229 18.811 7.879 38.32 7.879 57.984 0 119.378-96.608 216-216 216-39.134 0-76.841-10.363-110.066-30.105 1.979-5.946 3.066-12.294 3.066-18.895 0-33.084-26.916-60-60-60s-60 26.916-60 60 26.916 60 60 60c11.817 0 22.837-3.448 32.135-9.37 40.45 25.147 86.754 38.37 134.865 38.37 141.483 0 256-114.497 256-256 0-23.284-3.143-46.396-9.34-68.695zm-413.66 255.695c-11.028 0-20-8.972-20-20s8.972-20 20-20 20 8.972 20 20-8.972 20-20 20zm167-40c33.084 0 60-26.916 60-60v-81.797c17.654-16.525 27.94-39.857 27.94-64.263 0-50.002-41.626-90.243-92.231-87.838-44.442 2.126-80.628 37.631-83.466 82.11-1.701 26.659 8.55 52.128 27.757 70.011v81.777c0 33.084 26.916 60 60 60zm-47.838-209.24c1.526-23.921 21.494-43.557 45.458-44.702 27.741-1.32 50.32 20.731 50.32 47.883 0 15.247-7.376 29.731-19.73 38.748-5.159 3.765-8.21 9.768-8.21 16.155v91.156c0 11.028-8.972 20-20 20s-20-8.972-20-20v-91.157c0-6.388-3.051-12.391-8.211-16.156-13.344-9.738-20.681-25.412-19.627-41.927z"/></svg>