<svg id="Capa_1" enable-background="new 0 0 512 512" height="512" viewBox="0 0 512 512" width="512" xmlns="http://www.w3.org/2000/svg"><path d="m492 222.075h-60v-59.994c0-11.046-8.954-20-20-20h-60v-60.081c0-11.046-8.954-20-20-20h-312c-11.046 0-20 8.954-20 20v187.925c0 11.046 8.954 20 20 20h60v59.994c0 11.046 8.954 20 20 20h60v60.081c0 11.046 8.954 20 20 20h312c11.046 0 20-8.954 20-20v-187.925c0-10.969-8.924-20-20-20zm-57.236 40-98.764 78.609-98.764-78.608c6.217-.001 185.518-.001 197.528-.001zm-354.764-99.993v87.843h-40v-147.925h272v40.082h-212c-11.046 0-20 8.954-20 20zm80 79.993v87.843h-40v-147.836h272v39.994h-212c-11.223-.001-20 9.217-20 19.999zm312 167.925h-272v-126.438l123.545 98.332c7.291 5.802 17.62 5.802 24.91 0l123.545-98.332z"/></svg>