<svg id="Capa_1" enable-background="new 0 0 512 512" height="512" viewBox="0 0 512 512" width="512" xmlns="http://www.w3.org/2000/svg"><path d="m512 256c0-26.073-16.722-48.303-40-56.56v-82.88c23.278-8.256 40-30.487 40-56.56 0-33.084-26.916-60-60-60-26.073 0-48.303 16.722-56.56 40h-82.88c-8.257-23.278-30.487-40-56.56-40s-48.303 16.722-56.56 40h-82.88c-8.257-23.278-30.487-40-56.56-40-33.084 0-60 26.916-60 60s26.916 60 60 60c26.073 0 48.303-16.722 56.56-40h82.881c8.256 23.278 30.487 40 56.56 40s48.303-16.722 56.56-40h82.881c6.036 17.018 19.541 30.524 36.56 36.56v82.881c-23.278 8.256-40 30.487-40 56.56s16.722 48.303 40 56.56v82.881c-23.278 8.256-40 30.487-40 56.56 0 33.084 26.916 60 60 60s60-26.916 60-60c0-26.073-16.722-48.303-40-56.56v-82.882c23.276-8.257 39.998-30.487 39.998-56.56zm-452-176c-11.028 0-20-8.972-20-20s8.972-20 20-20 20 8.972 20 20-8.972 20-20 20zm196 0c-11.028 0-20-8.972-20-20s8.972-20 20-20 20 8.972 20 20-8.972 20-20 20zm196-40c11.028 0 20 8.972 20 20s-8.972 20-20 20-20-8.972-20-20 8.972-20 20-20zm0 432c-11.028 0-20-8.972-20-20s8.972-20 20-20 20 8.972 20 20-8.972 20-20 20zm0-196c-11.028 0-20-8.972-20-20s8.972-20 20-20 20 8.972 20 20-8.972 20-20 20zm-110.9 33.961c9.566-5.523 12.844-17.755 7.32-27.32l-40-69.281c-5.522-9.567-17.755-12.845-27.32-7.32-9.414 5.434-20.652 5.434-30.066 0-9.414-5.436-15.034-15.17-15.034-26.04 0-11.046-8.954-20-20-20h-80c-11.046 0-20 8.954-20 20 0 10.87-5.62 20.604-15.033 26.039s-20.653 5.435-30.066 0c-9.567-5.521-21.798-2.246-27.32 7.32l-40 69.281c-5.523 9.565-2.246 21.797 7.32 27.32 9.413 5.436 15.032 15.169 15.032 26.039s-5.619 20.604-15.032 26.039c-9.566 5.523-12.844 17.755-7.32 27.32l40 69.281c5.522 9.566 17.753 12.842 27.32 7.32 9.414-5.434 20.652-5.434 30.066 0 9.413 5.437 15.033 15.171 15.033 26.041 0 11.046 8.954 20 20 20h80c11.046 0 20-8.954 20-20 0-10.87 5.62-20.604 15.033-26.039 9.414-5.435 20.654-5.434 30.066 0 9.565 5.521 21.797 2.246 27.32-7.32l40-69.281c5.523-9.565 2.246-21.797-7.32-27.32-9.413-5.436-15.032-15.169-15.032-26.039s5.62-20.605 15.033-26.04zm-35.901 74.259-22.84 39.561c-17.18-4.182-35.377-1.669-51.326 7.54-15.949 9.208-27.226 23.713-32.192 40.68h-45.682c-4.967-16.967-16.243-31.472-32.192-40.68-15.95-9.208-34.147-11.721-51.325-7.54l-22.841-39.561c12.209-12.786 19.132-29.804 19.132-48.22s-6.923-35.434-19.132-48.22l22.84-39.561c17.181 4.182 35.377 1.668 51.326-7.54s27.226-23.713 32.192-40.68h45.682c4.967 16.967 16.243 31.472 32.192 40.68 15.951 9.208 34.146 11.721 51.325 7.54l22.841 39.561c-12.209 12.786-19.132 29.804-19.132 48.22s6.923 35.434 19.132 48.22zm-129.199-108.22c-33.084 0-60 26.916-60 60s26.916 60 60 60 60-26.916 60-60-26.916-60-60-60zm0 80c-11.028 0-20-8.972-20-20s8.972-20 20-20 20 8.972 20 20-8.972 20-20 20z"/></svg>