<svg id="Capa_1" enable-background="new 0 0 512 512" height="512" viewBox="0 0 512 512" width="512" xmlns="http://www.w3.org/2000/svg"><path d="m491.981 111.284h-91.258v-91.256c0-17.732-21.528-26.754-34.144-14.143l-76.359 76.358c-3.751 3.751-5.858 8.839-5.858 14.143l.001 73.834c-40.656-17.677-89.807-9.917-123.004 23.28l-128.864 128.859c-43.326 43.326-43.326 113.822 0 157.147s113.821 43.325 157.149 0l128.863-128.861c33.198-33.198 40.957-82.347 23.28-123.003l73.835.001c5.305 0 10.392-2.108 14.143-5.858l76.359-76.357c12.563-12.564 3.65-34.144-14.143-34.144zm-431.2 339.936c-22.818-22.818-26.841-57.404-12.105-84.393l96.499 96.498c-26.989 14.737-61.575 10.715-84.394-12.105zm114.719-14.143-100.576-100.575 100.577-100.574 100.576 100.574zm126.825-130.899-96.499-96.497c27.182-14.842 61.697-10.593 84.395 12.105 22.818 22.817 26.84 57.403 12.104 84.392zm105.012-118.537-82.972-.001-.001-82.97 36.356-36.356v62.971c0 11.046 8.955 20.001 20.001 20.001h62.971z"/></svg>