<svg id="Capa_1" enable-background="new 0 0 512 512" height="512" viewBox="0 0 512 512" width="512" xmlns="http://www.w3.org/2000/svg"><path d="m492 236h-20.921c-9.428-103.362-91.733-185.652-195.079-195.079v-20.921c0-11.046-8.954-20-20-20s-20 8.954-20 20v20.921c-103.362 9.428-185.652 91.733-195.079 195.079h-20.921c-11.046 0-20 8.954-20 20s8.954 20 20 20h20.921c9.428 103.361 91.733 185.652 195.079 195.079v20.921c0 11.046 8.954 20 20 20s20-8.954 20-20v-20.921c103.362-9.428 185.652-91.733 195.079-195.079h20.921c11.046 0 20-8.954 20-20s-8.954-20-20-20zm-80 40h18.857c-9.216 81.097-73.76 145.641-154.857 154.857v-18.857c0-11.046-8.954-20-20-20s-20 8.954-20 20v18.857c-81.097-9.216-145.641-73.76-154.857-154.857h18.857c11.046 0 20-8.954 20-20s-8.954-20-20-20h-18.857c9.216-81.097 73.76-145.641 154.857-154.857v18.857c0 11.046 8.954 20 20 20s20-8.954 20-20v-18.857c81.097 9.216 145.641 73.76 154.857 154.857h-18.857c-11.046 0-20 8.954-20 20s8.954 20 20 20zm-156-80c-33.084 0-60 26.916-60 60s26.916 60 60 60 60-26.916 60-60-26.916-60-60-60zm0 80c-11.028 0-20-8.972-20-20s8.972-20 20-20 20 8.972 20 20-8.972 20-20 20z"/></svg>