<svg id="Capa_1" enable-background="new 0 0 512 512" height="512" viewBox="0 0 512 512" width="512" xmlns="http://www.w3.org/2000/svg"><path d="m113.694 186.103c-7.81 7.811-7.81 20.475 0 28.285l36.204 36.204c-3.074 9.163-5.272 18.735-6.537 28.572h-43.361c-11.046 0-20 8.954-20 20s8.954 20 20 20h43.362c1.265 9.837 3.463 19.409 6.537 28.573l-36.203 36.202c-7.811 7.811-7.812 20.474-.001 28.284 7.808 7.808 20.471 7.814 28.284.001l27.095-27.094c20.817 28.582 51.579 46.87 86.926 46.87 35.358 0 66.116-18.298 86.927-46.871l27.095 27.094c7.81 7.81 20.473 7.81 28.284-.001s7.81-20.474-.001-28.284l-36.203-36.202c3.074-9.164 5.272-18.736 6.537-28.573h43.361c11.046 0 20-8.954 20-20s-8.954-20-20-20h-43.362c-1.265-9.836-3.463-19.408-6.537-28.572l36.204-36.204c7.81-7.811 7.81-20.475 0-28.285-7.811-7.811-20.475-7.811-28.285 0l-27.094 27.094c-8.473-11.633-18.388-21.293-29.289-28.758 6.746-10.727 10.526-23.284 10.526-36.276 0-37.584-30.578-68.162-68.163-68.162s-68.163 30.578-68.163 68.163c0 12.991 3.78 25.549 10.526 36.276-10.899 7.463-20.814 17.122-29.289 28.758l-27.094-27.094c-7.811-7.811-20.475-7.811-28.286 0zm142.306-66.103c15.529 0 28.163 12.634 28.163 28.163 0 7.738-3.083 14.889-8.457 20.118-6.438-1.292-13.023-1.955-19.706-1.955s-13.268.663-19.706 1.955c-5.375-5.229-8.457-12.38-8.457-20.118 0-15.529 12.634-28.163 28.163-28.163zm0 86.326c40.189 0 73.918 41.028 73.918 92.837 0 51.959-33.811 92.837-73.918 92.837-40.19 0-73.918-41.027-73.918-92.837 0-52.174 33.998-92.837 73.918-92.837zm236-206.326h-472c-11.046 0-20 8.954-20 20v472c0 11.046 8.954 20 20 20h472c11.046 0 20-8.954 20-20 0-13.982 0-458.026 0-472 0-11.046-8.954-20-20-20zm-20 80h-97.238c-11.046 0-20 8.954-20 20s8.954 20 20 20h97.238v352h-432v-352h97.238c11.046 0 20-8.954 20-20s-8.954-20-20-20h-97.238v-40h432z"/></svg>