<svg id="Capa_1" enable-background="new 0 0 512 512" height="512" viewBox="0 0 512 512" width="512" xmlns="http://www.w3.org/2000/svg"><path d="m452 391.998c-26.072 0-48.301 16.72-56.559 39.997h-61.036l-38.396-44.346c66.873-14.738 124.005-70.086 149.149-123.068 2.579-5.43 2.579-11.732 0-17.162-24.876-52.415-81.688-108.2-149.149-123.068l38.396-44.346h61.036c8.257 23.277 30.487 39.997 56.559 39.997 33.084 0 60-26.916 60-60.001s-26.916-60.001-60-60.001c-26.074 0-48.306 16.724-56.561 40.005h-70.172c-5.804 0-11.321 2.521-15.12 6.908l-54.147 62.537-54.146-62.537c-3.799-4.387-9.316-6.908-15.12-6.908h-70.172c-8.256-23.281-30.488-40.005-56.562-40.005-33.084 0-60 26.916-60 60.001s26.916 60.001 60 60.001c26.072 0 48.301-16.72 56.559-39.997h61.036l38.396 44.346c-66.7 14.7-123.94 69.948-149.149 123.068-2.579 5.43-2.579 11.732 0 17.162 24.702 52.05 81.462 108.15 149.149 123.068l-38.396 44.346h-61.036c-8.257-23.277-30.487-39.997-56.559-39.997-33.084 0-60 26.916-60 60.001s26.916 60.001 60 60.001c26.074 0 48.306-16.724 56.561-40.005h70.172c5.804 0 11.321-2.521 15.12-6.908l54.147-62.537 54.146 62.537c3.799 4.387 9.316 6.908 15.12 6.908h70.172c8.256 23.281 30.488 40.005 56.562 40.005 33.084 0 60-26.916 60-60.001s-26.916-60.001-60-60.001zm0-351.998c11.028 0 20 8.973 20 20.001s-8.972 20.001-20 20.001-20-8.973-20-20.001 8.972-20.001 20-20.001zm-392 40.002c-11.028 0-20-8.973-20-20.001s8.972-20.001 20-20.001 20 8.973 20 20.001-8.972 20.001-20 20.001zm0 391.998c-11.028 0-20-8.973-20-20.001s8.972-20.001 20-20.001 20 8.973 20 20.001-8.972 20.001-20 20.001zm47.669-216.014c14.665-25.015 63.739-95.981 148.331-95.981 64.337 0 116.646 42.042 148.331 96.009-14.665 25.015-63.739 95.981-148.331 95.981-64.337 0-116.646-42.042-148.331-96.009zm344.331 216.014c-11.028 0-20-8.973-20-20.001s8.972-20.001 20-20.001 20 8.973 20 20.001-8.972 20.001-20 20.001zm-196-276c-33.084 0-60 26.916-60 60s26.916 60 60 60 60-26.916 60-60-26.916-60-60-60zm0 80c-11.028 0-20-8.972-20-20s8.972-20 20-20 20 8.972 20 20-8.972 20-20 20z"/></svg>