<svg id="Capa_1" enable-background="new 0 0 512 512" height="512" viewBox="0 0 512 512" width="512" xmlns="http://www.w3.org/2000/svg"><path d="m492 80c-33.084 0-60-26.916-60-60 0-11.046-8.954-20-20-20h-312c-11.046 0-20 8.954-20 20 0 33.084-26.916 60-60 60-11.046 0-20 8.954-20 20v62.81c0 157.625 100.298 297.528 249.579 348.132 4.16 1.411 8.678 1.412 12.842 0 149.281-50.604 249.579-190.507 249.579-348.132v-62.81c0-11.046-8.954-20-20-20zm-20 82.81c0 138.2-86.516 261.115-216 307.999-129.484-46.884-216-169.799-216-307.999v-44.818c39.123-7.975 70.017-38.869 77.991-77.991h276.019c7.974 39.122 38.868 70.017 77.991 77.991v44.818zm-89.725 72.86c0 69.629-56.646 126.275-126.275 126.275s-126.275-56.646-126.275-126.275c0-26.441 8.331-51.739 23.082-72.694h-28.832c-11.046 0-20-8.954-20-20s8.954-20 20-20h80c10.777 0 20 8.773 20 20v80c0 11.046-8.954 20-20 20s-20-8.954-20-20v-34.737c-9.128 13.866-14.25 30.298-14.25 47.431 0 47.572 38.703 86.275 86.275 86.275s86.275-38.703 86.275-86.275c0-38.83-26.133-73.063-63.552-83.248-10.658-2.901-16.946-13.893-14.045-24.551 2.901-10.657 13.89-16.942 24.551-14.045 54.784 14.912 93.046 65.016 93.046 121.844z"/></svg>