<svg id="Capa_1" enable-background="new 0 0 512 512" height="512" viewBox="0 0 512 512" width="512" xmlns="http://www.w3.org/2000/svg"><path d="m492 0h-472c-11.046 0-20 8.954-20 20v370c0 11.046 8.954 20 20 20h150.018l-48.508 70.684c-9.096 13.252.42 31.316 16.49 31.316h236c16.074 0 25.584-18.067 16.49-31.316l-48.508-70.684h150.018c11.046 0 20-8.954 20-20 0-6.888 0-358.333 0-370 0-11.046-8.954-20-20-20zm-316.018 472 42.549-62h74.938l42.549 62zm296.018-102c-12.542 0-419.468 0-432 0v-40h432zm0-80h-432v-250h432zm-216-40c76.759 0 112.458-73.299 113.94-76.419 2.58-5.43 2.58-11.732 0-17.162-1.482-3.12-37.181-76.419-113.94-76.419s-112.458 73.299-113.94 76.419c-2.58 5.43-2.58 11.732 0 17.162 1.482 3.12 37.181 76.419 113.94 76.419zm0-130c31.073 0 56.164 19.459 72.806 45.043-9.799 15.153-34.008 44.957-72.806 44.957-31.073 0-56.164-19.459-72.806-45.043 9.799-15.153 34.008-44.957 72.806-44.957zm-20 45c0-11.046 8.954-20 20-20s20 8.954 20 20-8.954 20-20 20-20-8.954-20-20z"/></svg>