<svg id="Capa_1" enable-background="new 0 0 512 512" height="512" viewBox="0 0 512 512" width="512" xmlns="http://www.w3.org/2000/svg"><path d="m256 0c-141.484 0-256 114.497-256 256 0 141.483 114.497 256 256 256 141.483 0 256-114.497 256-256 0-141.483-114.497-256-256-256zm0 472c-119.377 0-216-96.607-216-216 0-50.976 17.55-99.248 49.773-137.942l52.984 52.984c-5.918 3.964-13.072 5.708-20.34 4.822-11.999-1.444-22.417 7.923-22.417 19.854v26.579c0 94.468 60.111 178.316 149.579 208.645 4.16 1.411 8.678 1.412 12.842 0 33.353-11.306 62.622-30.053 86.222-54.013l45.298 45.298c-38.693 32.223-86.965 49.773-137.941 49.773zm64.353-123.362c-17.824 18.156-39.616 32.674-64.353 42.109-69.662-26.57-116-93.418-116-168.45v-7.565c11.455-2.299 22.19-7.468 31.277-15.169zm-126.876-183.446c.483-1.712.905-3.443 1.256-5.192h122.535c2.674 13.326 9.222 25.683 19.137 35.599 9.914 9.914 22.269 16.461 35.596 19.134v7.564c0 34.265-9.668 66.82-26.804 94.615zm228.75 228.75-48.107-48.107c24.127-35.626 37.88-78.365 37.88-123.538v-26.579c0-11.96-10.456-21.297-22.417-19.854-9.254 1.127-18.332-1.989-24.894-8.55-6.563-6.563-9.682-15.639-8.554-24.896 1.451-11.908-7.853-22.418-19.853-22.418h-160.564c-6.979 0-13.698 3.67-17.359 10.074l-40.301-40.301c38.693-32.223 86.966-49.773 137.942-49.773 119.378 0 216 96.608 216 216 0 50.976-17.55 99.248-49.773 137.942z"/></svg>