<svg id="Capa_1" enable-background="new 0 0 512 512" height="512" viewBox="0 0 512 512" width="512" xmlns="http://www.w3.org/2000/svg"><path d="m374 0h-236c-76.094 0-138 61.906-138 138v232.975c0 6.121 2.803 11.905 7.607 15.697l49.88 39.38v65.948c0 11.046 8.954 20 20 20h357.025c11.046 0 20-8.954 20-20v-65.948l49.88-39.38c4.805-3.792 7.607-9.576 7.607-15.697v-232.975c.001-76.094-61.905-138-137.999-138zm98 361.282-49.88 39.38c-4.805 3.792-7.607 9.576-7.607 15.697v55.641h-79.009v-60c0-11.046-8.954-20-20-20s-20 8.954-20 20v60h-79.008v-60c0-11.046-8.954-20-20-20s-20 8.954-20 20v60h-79.009v-55.641c0-6.121-2.803-11.905-7.607-15.697l-49.88-39.38v-223.282c0-54.037 43.963-98 98-98h236c54.037 0 98 43.963 98 98zm-314-223.282c-43.01 0-78 34.99-78 78s34.99 78 78 78 78-34.99 78-78-34.99-78-78-78zm0 116c-20.953 0-38-17.047-38-38s17.047-38 38-38 38 17.047 38 38-17.047 38-38 38zm196-116c-43.01 0-78 34.99-78 78s34.99 78 78 78 78-34.99 78-78-34.99-78-78-78zm0 116c-20.953 0-38-17.047-38-38s17.047-38 38-38 38 17.047 38 38-17.047 38-38 38z"/></svg>