<svg id="Capa_1" enable-background="new 0 0 512 512" height="512" viewBox="0 0 512 512" width="512" xmlns="http://www.w3.org/2000/svg"><path d="m452 392c-26.073 0-48.303 16.722-56.56 40h-82.88c-6.036-17.018-19.541-30.524-36.56-36.56v-43.44h96c11.046 0 20-8.954 20-20v-192c0-11.046-8.954-20-20-20h-36v-40c0-44.112-35.888-80-80-80s-80 35.888-80 80v40h-36c-11.046 0-20 8.954-20 20v192c0 11.046 8.954 20 20 20h96v43.44c-17.018 6.036-30.524 19.541-36.56 36.56h-82.88c-8.256-23.278-30.487-40-56.56-40-33.084 0-60 26.916-60 60s26.916 60 60 60c26.073 0 48.303-16.722 56.56-40h82.881c8.256 23.278 30.487 40 56.56 40s48.303-16.722 56.56-40h82.881c8.256 23.278 30.487 40 56.56 40 33.084 0 60-26.916 60-60s-26.918-60-60.002-60zm-392 80c-11.028 0-20-8.972-20-20s8.972-20 20-20 20 8.972 20 20-8.972 20-20 20zm156-392c0-22.056 17.944-40 40-40s40 17.944 40 40v40h-80zm-56 232v-152h192v152zm96 160c-11.028 0-20-8.972-20-20s8.972-20 20-20 20 8.972 20 20-8.972 20-20 20zm196 0c-11.028 0-20-8.972-20-20s8.972-20 20-20 20 8.972 20 20-8.972 20-20 20z"/></svg>