<svg id="Capa_1" enable-background="new 0 0 512 512" height="512" viewBox="0 0 512 512" width="512" xmlns="http://www.w3.org/2000/svg"><path d="m492 0c-11.046 0-20 8.954-20 20v55c0 19.299-15.701 35-35 35h-38c-19.299 0-35-15.701-35-35 0-41.355-33.645-75-75-75h-38c-37.483 0-68.632 27.64-74.136 63.608h-30.864c-11.046 0-20 8.954-20 20v49.324c-73.605 28.24-126 99.645-126 183.068 0 108.075 87.925 196 196 196s196-87.925 196-196c0-83.423-52.395-154.828-126-183.067v-49.325c0-11.046-8.954-20-20-20h-28.086c4.738-13.721 17.775-23.608 33.086-23.608h38c19.299 0 35 15.701 35 35 0 41.355 33.645 75 75 75h38c41.355 0 75-33.645 75-75v-55c0-11.046-8.954-20-20-20zm-140 316c0 86.019-69.981 156-156 156s-156-69.981-156-156 69.981-156 156-156 156 69.981 156 156zm-126-212.392v18.686c-9.783-1.509-19.801-2.294-30-2.294s-20.217.785-30 2.294v-18.686z"/></svg>