<svg id="Capa_1" enable-background="new 0 0 512 512" height="512" viewBox="0 0 512 512" width="512" xmlns="http://www.w3.org/2000/svg"><path d="m455.543 302.044c-22.914-13.245-50.451-9.492-68.907 6.278l-10.166-5.869v-92.906l10.166-5.869c18.621 15.911 46.15 19.431 68.908 6.278 28.618-16.542 38.461-53.303 21.942-81.947-16.566-28.724-53.205-38.558-81.919-21.966-22.58 13.052-33.458 38.688-28.936 62.996l-10.163 5.867-80.466-46.453v-11.893c23.28-8.256 40.003-30.487 40.003-56.56 0-33.084-26.918-60-60.005-60s-60.005 26.916-60.005 60c0 26.073 16.723 48.303 40.003 56.56v11.894l-80.466 46.453-10.163-5.867c4.523-24.308-6.356-49.945-28.936-62.995-28.691-16.585-65.343-6.775-81.918 21.965-16.52 28.646-6.677 65.407 21.942 81.947 22.48 12.994 50.05 9.835 68.907-6.278l10.166 5.869v92.906l-10.166 5.869c-18.448-15.763-45.978-19.531-68.907-6.278-28.62 16.54-38.463 53.302-21.943 81.947 16.562 28.716 53.202 38.562 81.918 21.965 22.581-13.05 33.459-38.687 28.937-62.995l10.163-5.867 80.466 46.453v11.894c-23.28 8.256-40.003 30.487-40.003 56.56 0 33.084 26.918 60 60.005 60s60.005-26.916 60.005-60c0-26.073-16.723-48.303-40.003-56.56v-11.894l80.466-46.453 10.163 5.867c-4.523 24.308 6.356 49.945 28.936 62.995 28.681 16.578 65.336 6.787 81.918-21.965 16.52-28.646 6.677-65.408-21.942-81.948zm-39.957-161.37c9.68-5.593 21.814-2.1 27.245 7.317 5.512 9.558 2.234 21.819-7.307 27.334-9.048 5.232-21.226 2.833-27.09-7.325-5.906-10.227-1.922-22.082 7.152-27.326zm-312.019 27.326c-5.857 10.146-18.031 12.561-27.09 7.325-9.541-5.515-12.819-17.776-7.307-27.334 5.5-9.538 17.674-12.847 27.245-7.316 9.03 5.219 13.084 17.048 7.152 27.325zm-7.153 203.325c-9.559 5.525-21.736 2.237-27.245-7.316-5.512-9.558-2.234-21.819 7.307-27.334 9.057-5.236 21.238-2.813 27.09 7.325 5.966 10.332 1.832 22.133-7.152 27.325zm159.586-331.325c11.029 0 20.002 8.972 20.002 20s-8.973 20-20.002 20-20.002-8.972-20.002-20 8.973-20 20.002-20zm0 432c-11.029 0-20.002-8.972-20.002-20s8.973-20 20.002-20 20.002 8.972 20.002 20-8.973 20-20.002 20zm80.466-169.547-80.466 46.453-80.466-46.453v-92.906l80.466-46.453 80.466 46.453zm106.365 61.556c-5.515 9.563-17.696 12.835-27.245 7.316-8.994-5.198-13.111-17.004-7.152-27.325 5.84-10.118 18.008-12.573 27.091-7.325 9.54 5.514 12.818 17.776 7.306 27.334z"/></svg>