<svg id="Capa_1" enable-background="new 0 0 512 512" height="512" viewBox="0 0 512 512" width="512" xmlns="http://www.w3.org/2000/svg"><path d="m492 236h-216v-216c0-11.046-8.954-20-20-20s-20 8.954-20 20v20.943c-90.471 8.453-163.972 71.891-187.868 156.24-27.418 5.525-48.132 29.795-48.132 58.817 0 29.015 20.703 53.281 48.112 58.813 20.223 71.718 76.784 128.685 149.075 149.071 5.529 27.41 29.797 48.116 58.813 48.116 29.022 0 53.293-20.714 58.816-48.133 84.35-23.896 147.788-97.397 156.241-187.867h20.943c11.046 0 20-8.954 20-20s-8.954-20-20-20zm-236 40h75.392c-8.855 33.35-39.294 58.002-75.392 58.002-43.011 0-78.002-34.991-78.002-78.002 0-36.098 24.652-66.536 58.002-75.392v75.392c0 11.046 8.954 20 20 20zm-196 0c-11.028 0-20-8.972-20-20s8.972-20 20-20c10.957 0 20 8.901 20 20 0 11.028-8.972 20-20 20zm196 196c-11.028 0-20-8.972-20-20 0-10.981 8.927-20 20-20 11.059 0 20 9.002 20 20 0 11.028-8.972 20-20 20zm52.976-48.13c-10.099-18.943-30.052-31.87-52.976-31.87-22.923 0-42.876 12.927-52.976 31.868-54.588-17.181-97.711-60.29-114.897-114.891 18.944-10.098 31.873-30.052 31.873-52.977 0-22.924-12.928-42.877-31.871-52.977 20.782-65.707 78.266-113.877 147.871-121.869v58.548c-55.574 9.528-98.002 58.049-98.002 116.299 0 65.066 52.936 118.002 118.002 118.002 58.251 0 106.771-42.428 116.299-98.002h58.547c-7.987 69.562-56.124 127.075-121.87 147.869z"/></svg>