<svg id="Capa_1" enable-background="new 0 0 512 512" height="512" viewBox="0 0 512 512" width="512" xmlns="http://www.w3.org/2000/svg"><path d="m492 0h-472c-11.046 0-20 8.954-20 20v472c0 11.046 8.954 20 20 20h472c11.046 0 20-8.954 20-20 0-13.982 0-458.026 0-472 0-11.046-8.954-20-20-20zm-20 472h-432v-352h432zm0-392h-432v-40h432zm-256 352h76c33.084 0 60-26.916 60-60s-26.916-60-60-60h-76c-8.822 0-16-7.178-16-16s7.178-16 16-16h156c33.084 0 60-26.916 60-60s-26.916-60-60-60h-156c-74.991 0-136 61.01-136 136s61.009 136 136 136zm136-232h20c11.028 0 20 8.972 20 20s-8.972 20-20 20h-20zm-136 0h96v40h-96c-30.878 0-56 25.121-56 56s25.122 56 56 56h76c11.028 0 20 8.972 20 20s-8.972 20-20 20h-76c-52.935 0-96-43.065-96-96s43.065-96 96-96z"/></svg>