<svg id="Capa_1" enable-background="new 0 0 512 512" height="512" viewBox="0 0 512 512" width="512" xmlns="http://www.w3.org/2000/svg"><path d="m498.131 196.963-222.131-71.534v-8.856c23.281-8.255 40-30.498 40-56.573 0-33.084-26.916-60-60-60s-60 26.916-60 60c0 11.046 8.954 20 20 20s20-8.954 20-20c0-11.028 8.972-20 20-20s20 8.972 20 20-8.972 20-20 20c-11.046 0-20 8.954-20 20v25.429l-222.131 71.534c-8.265 2.662-13.869 10.353-13.869 19.037v84c0 11.046 8.954 20 20 20h60v172c0 11.046 8.954 20 20 20h312c11.046 0 20-8.954 20-20v-172h60c11.046 0 20-8.954 20-20v-84c0-8.684-5.604-16.375-13.869-19.037zm-378.131 275.037v-36.56c17.018 6.036 30.524 19.541 36.56 36.56zm272 0h-36.56c6.036-17.018 19.541-30.524 36.56-36.56zm0-77.99c-39.126 7.974-70.016 38.864-77.989 77.99h-116.021c-7.974-39.126-38.864-70.016-77.99-77.99v-118.01h41.341c7.64 45.345 47.176 80 94.659 80s87.019-34.655 94.659-80h41.341zm-189.672-118.01h107.344c-6.901 23.106-28.352 40-53.672 40s-46.771-16.894-53.672-40zm269.672 4h-40v-24c0-11.046-8.954-20-20-20-16.134 0-294.075 0-312 0-11.046 0-20 8.954-20 20v24h-40v-49.429l216-69.56 216 69.56z"/></svg>