<svg id="Capa_1" enable-background="new 0 0 512 512" height="512" viewBox="0 0 512 512" width="512" xmlns="http://www.w3.org/2000/svg"><path d="m492 0h-472c-11.046 0-20 8.954-20 20v392c0 11.046 8.954 20 20 20h147.716l74.142 74.143c7.809 7.809 20.474 7.811 28.285 0l74.141-74.143h147.716c11.046 0 20-8.954 20-20v-392c0-11.046-8.954-20-20-20zm-20 392h-136c-5.305 0-10.392 2.107-14.143 5.857l-65.857 65.859-65.857-65.858c-3.751-3.751-8.838-5.858-14.143-5.858h-136v-352h432zm-392-136v-80c0-11.046 8.954-20 20-20s20 8.954 20 20v80c0 11.046-8.954 20-20 20s-20-8.954-20-20zm78 38v-156c0-11.046 8.954-20 20-20s20 8.954 20 20v156c0 11.046-8.954 20-20 20s-20-8.954-20-20zm234-38v-80c0-11.046 8.954-20 20-20s20 8.954 20 20v80c0 11.046-8.954 20-20 20s-20-8.954-20-20zm-78 38v-156c0-11.046 8.954-20 20-20s20 8.954 20 20v156c0 11.046-8.954 20-20 20s-20-8.954-20-20zm-78 38v-232c0-11.046 8.954-20 20-20s20 8.954 20 20v232c0 11.046-8.954 20-20 20s-20-8.954-20-20z"/></svg>