<svg id="Capa_1" enable-background="new 0 0 512 512" height="512" viewBox="0 0 512 512" width="512" xmlns="http://www.w3.org/2000/svg"><path d="m492 80c-33.084 0-60-26.916-60-60 0-11.046-8.954-20-20-20h-312c-11.046 0-20 8.954-20 20 0 33.084-26.916 60-60 60-11.046 0-20 8.954-20 20v62.81c0 157.625 100.298 297.528 249.579 348.132 4.16 1.411 8.678 1.412 12.842 0 149.281-50.604 249.579-190.507 249.579-348.132v-62.81c0-11.046-8.954-20-20-20zm-20 82.81c0 138.2-86.516 261.115-216 307.999-129.484-46.884-216-169.799-216-307.999v-44.818c39.123-7.975 70.017-38.869 77.991-77.991h276.019c7.974 39.122 38.868 70.017 77.991 77.991v44.818zm-196-62.81v186.032c0 11.046-8.954 20-20 20s-20-8.954-20-20v-186.032c0-11.046 8.954-20 20-20s20 8.954 20 20zm0 286.032c0 11.046-8.954 20-20 20s-20-8.954-20-20 8.954-20 20-20 20 8.955 20 20z"/></svg>