<svg id="Capa_1" enable-background="new 0 0 512 512" height="512" viewBox="0 0 512 512" width="512" xmlns="http://www.w3.org/2000/svg"><path d="m452 120c33.084 0 60-26.916 60-60s-26.916-60-60-60-60 26.916-60 60 26.916 60 60 60zm0-80c11.028 0 20 8.972 20 20s-8.972 20-20 20-20-8.972-20-20 8.972-20 20-20zm0 352c-33.084 0-60 26.916-60 60s26.916 60 60 60 60-26.916 60-60-26.916-60-60-60zm0 80c-11.028 0-20-8.972-20-20s8.972-20 20-20 20 8.972 20 20-8.972 20-20 20zm-316-352c33.084 0 60-26.916 60-60s-26.916-60-60-60-60 26.916-60 60 26.916 60 60 60zm0-80c11.028 0 20 8.972 20 20s-8.972 20-20 20-20-8.972-20-20 8.972-20 20-20zm116 240h-156v-40c0-22.056 17.944-40 40-40 16.93 0 32.092 10.716 37.729 26.665 3.682 10.415 15.108 15.874 25.522 12.191 10.414-3.681 15.873-15.107 12.192-25.521-11.276-31.901-41.594-53.335-75.443-53.335-44.112 0-80 35.888-80 80v40h-36c-11.046 0-20 8.954-20 20v192c0 11.046 8.954 20 20 20h232c11.046 0 20-8.954 20-20v-192c0-11.046-8.954-20-20-20zm-20 192h-192v-152h192zm220-276c11.046 0 20 8.954 20 20v80c0 11.046-8.954 20-20 20s-20-8.954-20-20v-80c0-11.046 8.954-20 20-20zm-138-176v80c0 11.046-8.954 20-20 20s-20-8.954-20-20v-80c0-11.046 8.954-20 20-20s20 8.954 20 20z"/></svg>