<svg id="Capa_1" enable-background="new 0 0 512 512" height="512" viewBox="0 0 512 512" width="512" xmlns="http://www.w3.org/2000/svg"><path d="m492 0h-472c-11.046 0-20 8.954-20 20v472c0 11.046 8.954 20 20 20h472c11.046 0 20-8.954 20-20 0-13.982 0-458.026 0-472 0-11.046-8.954-20-20-20zm-20 472h-432v-352h432zm0-392h-432v-40h432zm-216 352c74.926 0 136-60.974 136-136 0-74.99-61.01-136-136-136-74.906 0-136 60.952-136 136 0 74.99 61.009 136 136 136zm0-232c52.935 0 96 43.065 96 96 0 19.247-5.698 37.185-15.488 52.227l-132.739-132.738c15.042-9.791 32.98-15.489 52.227-15.489zm-80.512 43.773 132.738 132.739c-15.041 9.79-32.98 15.488-52.226 15.488-52.935 0-96-43.065-96-96 0-19.247 5.698-37.185 15.488-52.227z"/></svg>