<svg id="Capa_1" enable-background="new 0 0 512 512" height="512" viewBox="0 0 512 512" width="512" xmlns="http://www.w3.org/2000/svg"><path d="m492 0c-21.291 0-466.499 0-472 0-11.046 0-20 8.954-20 20v370c0 11.046 8.954 20 20 20h150.018l-48.508 70.684c-9.096 13.252.421 31.316 16.49 31.316h236c16.074 0 25.584-18.067 16.49-31.316l-48.508-70.684h150.018c11.046 0 20-8.954 20-20 0-6.888 0-358.333 0-370 0-11.046-8.954-20-20-20zm-316.018 472 42.549-62h74.938l42.549 62zm296.018-102c-12.542 0-419.468 0-432 0v-40h432zm0-80h-107.882l38.909-75.874c6.812-13.285-2.847-29.126-17.797-29.126h-56.498l38.909-75.874c5.041-9.828 1.159-21.882-8.67-26.922-9.83-5.046-21.883-1.158-26.923 8.67l-53.845 105c-6.812 13.285 2.848 29.126 17.797 29.126h56.498l-33.333 65h-279.165v-250h107.882l-38.909 75.874c-6.812 13.285 2.847 29.126 17.797 29.126h56.498l-38.909 75.874c-5.041 9.828-1.159 21.882 8.67 26.922 9.784 5.021 21.861 1.199 26.923-8.67l53.845-105c6.812-13.285-2.848-29.126-17.797-29.126h-56.498l33.333-65h279.165z"/></svg>