<svg id="Capa_1" enable-background="new 0 0 512 512" height="512" viewBox="0 0 512 512" width="512" xmlns="http://www.w3.org/2000/svg"><path d="m492 0h-472c-11.046 0-20 8.954-20 20v312c0 11.046 8.954 20 20 20h216v43.44c-17.018 6.036-30.524 19.541-36.56 36.56h-82.88c-8.256-23.278-30.487-40-56.56-40-33.084 0-60 26.916-60 60s26.916 60 60 60c26.073 0 48.303-16.722 56.56-40h82.881c8.256 23.278 30.487 40 56.56 40s48.303-16.722 56.56-40h82.881c8.256 23.278 30.487 40 56.56 40 33.084 0 60-26.916 60-60s-26.916-60-60-60c-26.073 0-48.303 16.722-56.56 40h-82.882c-6.036-17.018-19.541-30.524-36.56-36.56v-43.44h216c11.046 0 20-8.954 20-20 0-4.252 0-291.848 0-312 0-11.046-8.954-20-20-20zm-432 472c-11.028 0-20-8.972-20-20s8.972-20 20-20 20 8.972 20 20-8.972 20-20 20zm392-40c11.028 0 20 8.972 20 20s-8.972 20-20 20-20-8.972-20-20 8.972-20 20-20zm-196 40c-11.028 0-20-8.972-20-20s8.972-20 20-20 20 8.972 20 20-8.972 20-20 20zm216-160h-432v-64h432zm0-104h-432v-64h432zm0-104h-432v-64h432z"/></svg>