<svg id="Capa_1" enable-background="new 0 0 512 512" height="512" viewBox="0 0 512 512" width="512" xmlns="http://www.w3.org/2000/svg"><path d="m492 0h-472c-11.046 0-20 8.954-20 20v370c0 11.046 8.954 20 20 20h150.018l-48.508 70.684c-9.096 13.252.421 31.316 16.49 31.316h236c16.074 0 25.584-18.067 16.49-31.316l-48.508-70.684h150.018c11.046 0 20-8.954 20-20 0-6.888 0-358.333 0-370 0-11.046-8.954-20-20-20zm-316.018 472 42.549-62h74.938l42.549 62zm296.018-102c-12.49 0-419.468 0-432 0v-40h432zm0-80h-432v-250h432zm-173.143-74.143 50.859-50.857-50.858-50.857c-7.81-7.811-7.81-20.475 0-28.285 7.811-7.811 20.475-7.811 28.285 0l65 65c7.81 7.811 7.81 20.475 0 28.285l-65 65c-7.811 7.811-20.476 7.809-28.285 0-7.81-7.811-7.81-20.475-.001-28.286zm-179-36.714c-7.81-7.811-7.81-20.475 0-28.285l65-65c7.811-7.811 20.475-7.811 28.285 0s7.81 20.475 0 28.285l-50.858 50.857 50.858 50.857c7.81 7.811 7.81 20.475 0 28.285-7.811 7.811-20.476 7.809-28.285 0z"/></svg>