<svg id="Capa_1" enable-background="new 0 0 512 512" height="512" viewBox="0 0 512 512" width="512" xmlns="http://www.w3.org/2000/svg"><path d="m442 362.877h-30v-176c0-86.019-69.981-156-156-156s-156 69.981-156 156v176h-30c-11.046 0-20 8.954-20 20v109.123c0 11.046 8.954 20 20 20h372c11.046 0 20-8.954 20-20v-109.123c0-11.045-8.954-20-20-20zm-302-176c0-63.962 52.037-116 116-116s116 52.038 116 116v176h-96v-119.44c23.278-8.256 40-30.487 40-56.56 0-33.084-26.916-60-60-60s-60 26.916-60 60c0 26.073 16.722 48.303 40 56.56v119.44h-96zm116 20c-11.028 0-20-8.972-20-20s8.972-20 20-20 20 8.972 20 20-8.972 20-20 20zm166 265.123h-332v-69.123h332zm-362-265.123h-40c-11.046 0-20-8.954-20-20s8.954-20 20-20h40c11.046 0 20 8.954 20 20s-8.954 20-20 20zm452-20c0 11.046-8.954 20-20 20h-40c-11.046 0-20-8.954-20-20s8.954-20 20-20h40c11.046 0 20 8.955 20 20zm-131.55-124.451c-7.81-7.811-7.81-20.474 0-28.284l28.284-28.284c7.811-7.811 20.475-7.811 28.285 0s7.81 20.474 0 28.284l-28.284 28.284c-7.81 7.811-20.475 7.81-28.285 0zm-305.47-28.284c-7.81-7.811-7.81-20.474 0-28.284 7.811-7.811 20.475-7.811 28.285 0l28.284 28.284c7.81 7.811 7.81 20.474 0 28.284-7.811 7.811-20.475 7.81-28.285 0z"/></svg>