<svg id="Capa_1" enable-background="new 0 0 512 512" height="512" viewBox="0 0 512 512" width="512" xmlns="http://www.w3.org/2000/svg"><path d="m501.535 238.348-213.161-115.614c16.29-15.861 34.343-29.753 53.898-41.458 6.034-3.612 9.728-10.129 9.728-17.161v-44.115c0-11.046-8.955-20-20-20-183.487 0-332 148.488-332 332v160c0 11.046 8.954 20 20 20h312c11.046 0 20-8.954 20-20v-138.072h140c11.046 0 20-8.954 20-20v-78c0-7.336-4.016-14.083-10.465-17.58zm-341.535 233.652h-120v-140c0-154.544 119.95-281.115 272-291.33v12.336c-26.463 17.099-50.32 37.833-71.038 61.751-.025.028-.052.052-.077.08-52.159 60.255-80.885 137.378-80.885 217.163zm312-158.072h-140c-11.046 0-20 8.954-20 20v138.072h-112v-140c0-64.821 21.571-127.631 61.014-178.601l210.986 114.434z"/></svg>