<svg id="Capa_1" enable-background="new 0 0 512 512" height="512" viewBox="0 0 512 512" width="512" xmlns="http://www.w3.org/2000/svg"><path d="m492 0h-472c-11.046 0-20 8.954-20 20v472c0 11.046 8.954 20 20 20h472c11.046 0 20-8.954 20-20v-472c0-11.046-8.954-20-20-20zm-20 472h-432v-432h432zm-324-140h216c11.046 0 20-8.954 20-20 0-45.236-26.96-84.292-65.654-101.952 11.031-13.715 17.654-31.118 17.654-50.048 0-44.112-35.888-80-80-80s-80 35.888-80 80c0 18.93 6.623 36.333 17.654 50.048-38.694 17.66-65.654 56.716-65.654 101.952 0 11.046 8.954 20 20 20zm108-212c22.056 0 40 17.944 40 40s-17.944 40-40 40-40-17.944-40-40 17.944-40 40-40zm-16 120h32c32.764 0 60.486 21.999 69.174 52h-170.348c8.688-30.001 36.41-52 69.174-52zm-140 162c0-11.046 8.954-20 20-20s20 8.954 20 20-8.954 20-20 20-20-8.954-20-20zm130.667 0c0 11.046-8.954 20-20 20s-20-8.954-20-20 8.954-20 20-20c11.045 0 20 8.954 20 20zm90.666 0c0 11.046-8.954 20-20 20s-20-8.954-20-20 8.954-20 20-20 20 8.954 20 20zm70.667-20c11.046 0 20 8.954 20 20s-8.954 20-20 20-20-8.954-20-20 8.954-20 20-20z"/></svg>