<svg id="Capa_1" enable-background="new 0 0 512 512" height="512" viewBox="0 0 512 512" width="512" xmlns="http://www.w3.org/2000/svg"><path d="m0 100v-80c0-11.046 8.954-20 20-20h80c11.046 0 20 8.954 20 20s-8.954 20-20 20h-60v60c0 11.046-8.954 20-20 20s-20-8.954-20-20zm492-100h-80c-11.046 0-20 8.954-20 20s8.954 20 20 20h60v60c0 11.046 8.954 20 20 20s20-8.954 20-20v-80c0-11.046-8.954-20-20-20zm-392 472h-60v-60c0-11.046-8.954-20-20-20s-20 8.954-20 20v80c0 11.046 8.954 20 20 20h80c11.046 0 20-8.954 20-20s-8.954-20-20-20zm392-80c-11.046 0-20 8.954-20 20v60h-60c-11.046 0-20 8.954-20 20s8.954 20 20 20h80c11.046 0 20-8.954 20-20v-80c0-11.046-8.954-20-20-20zm20-136c0 11.046-8.954 20-20 20h-60v126c0 11.046-8.954 20-20 20h-312c-11.046 0-20-8.954-20-20v-126h-60c-11.046 0-20-8.954-20-20s8.954-20 20-20h60v-20c0-97.047 78.953-176 176-176s176 78.953 176 176v20h60c11.046 0 20 8.954 20 20zm-120 20h-272v106h272zm0-60c0-74.991-61.01-136-136-136-74.991 0-136 61.009-136 136v20h272z"/></svg>