<svg id="Capa_1" enable-background="new 0 0 512 512" height="512" viewBox="0 0 512 512" width="512" xmlns="http://www.w3.org/2000/svg"><path d="m492 392h-30.715l-64.402-76.231c9.676-1.401 17.117-9.705 17.117-19.769v-80c0-11.046-8.954-20-20-20h-30.715l-64.402-76.231c9.676-1.401 17.117-9.705 17.117-19.769v-80c0-11.046-8.954-20-20-20h-80c-11.046 0-20 8.954-20 20v80c0 10.064 7.441 18.368 17.117 19.769l-64.402 76.231h-30.715c-11.046 0-20 8.954-20 20v80c0 10.064 7.441 18.368 17.117 19.769l-64.402 76.231h-30.715c-11.046 0-20 8.954-20 20v80c0 11.046 8.954 20 20 20h80c11.046 0 20-8.954 20-20v-80c0-10.064-7.441-18.368-17.117-19.769l55.117-65.24 55.117 65.241c-9.676 1.4-17.117 9.704-17.117 19.768v80c0 11.046 8.954 20 20 20h80c11.046 0 20-8.954 20-20v-80c0-11.046-8.954-20-20-20h-30.715l-64.402-76.231c9.676-1.401 17.117-9.705 17.117-19.769v-80c0-10.064-7.441-18.368-17.117-19.769l55.117-65.24 55.117 65.24c-9.676 1.401-17.117 9.705-17.117 19.769v80c0 11.046 8.954 20 20 20h30.715l64.402 76.231c-9.676 1.401-17.117 9.705-17.117 19.769v80c0 11.046 8.954 20 20 20h80c11.046 0 20-8.954 20-20v-80c0-11.046-8.954-20-20-20zm-412 80h-40v-40h19.979.011.009 20v40zm156-40h20 .009.011 19.98v40h-40zm-58-156h-40v-40h19.979.011.009 20v40zm98-196h-40v-40h40zm98 196h-40v-40h20 .009.011 19.98zm98 196h-40v-40h20 .009.011 19.98z"/></svg>