<?xml version="1.0" encoding="iso-8859-1"?>
<!-- Generator: Adobe Illustrator 16.0.0, SVG Export Plug-In . SVG Version: 6.00 Build 0)  -->
<!DOCTYPE svg PUBLIC "-//W3C//DTD SVG 1.1//EN" "http://www.w3.org/Graphics/SVG/1.1/DTD/svg11.dtd">
<svg version="1.1" id="Capa_1" xmlns="http://www.w3.org/2000/svg" xmlns:xlink="http://www.w3.org/1999/xlink" x="0px" y="0px"
	 width="37.788px" height="37.787px" viewBox="0 0 37.788 37.787" style="enable-background:new 0 0 37.788 37.787;"
	 xml:space="preserve">
<g>
	<path d="M30.478,29.874L29.049,27.8V15.151V7.669c0-1.301-1.063-2.364-2.364-2.364H13.557L9.904,0L9.699,0.144l2.178,3.161H9.673
		c-1.301,0-2.364,1.063-2.364,2.364v7.482v14.789v7.483c0,1.302,1.063,2.364,2.364,2.364h15.604c1.302,0,2.364-1.062,2.364-2.364
		v-7.483v-1.746l2.633,3.822L30.478,29.874z M26.768,8.073v15.608h-0.555L15.465,8.073H26.768z M13.037,35.062H10.49
		c-0.47,0-0.851-0.379-0.851-0.849s0.381-0.851,0.851-0.851h2.547c0.47,0,0.851,0.381,0.851,0.851S13.506,35.062,13.037,35.062z
		 M13.037,31.823H10.49c-0.47,0-0.851-0.382-0.851-0.851s0.381-0.85,0.851-0.85h2.547c0.47,0,0.851,0.381,0.851,0.85
		S13.506,31.823,13.037,31.823z M13.037,28.584H10.49c-0.47,0-0.851-0.38-0.851-0.85c0-0.471,0.381-0.851,0.851-0.851h2.547
		c0.47,0,0.851,0.38,0.851,0.851C13.887,28.204,13.506,28.584,13.037,28.584z M13.037,25.345H10.49c-0.47,0-0.851-0.381-0.851-0.85
		c0-0.47,0.381-0.851,0.851-0.851h2.547c0.47,0,0.851,0.381,0.851,0.851C13.888,24.964,13.506,25.345,13.037,25.345z M18.747,35.062
		h-2.546c-0.471,0-0.851-0.379-0.851-0.849s0.38-0.851,0.851-0.851h2.547c0.47,0,0.85,0.381,0.85,0.851S19.217,35.062,18.747,35.062
		z M18.747,31.823h-2.546c-0.471,0-0.851-0.382-0.851-0.851s0.38-0.85,0.851-0.85h2.547c0.47,0,0.85,0.381,0.85,0.85
		S19.217,31.823,18.747,31.823z M18.747,28.584h-2.546c-0.471,0-0.851-0.38-0.851-0.85c0-0.471,0.38-0.851,0.851-0.851h2.547
		c0.47,0,0.85,0.38,0.85,0.851C19.597,28.204,19.217,28.584,18.747,28.584z M18.747,25.345h-2.546c-0.471,0-0.851-0.381-0.851-0.85
		c0-0.47,0.38-0.851,0.851-0.851h2.547c0.47,0,0.85,0.381,0.85,0.851C19.598,24.964,19.217,25.345,18.747,25.345z M24.458,35.062
		h-2.549c-0.469,0-0.85-0.379-0.85-0.849s0.381-0.851,0.85-0.851h2.549c0.47,0,0.851,0.381,0.851,0.851S24.927,35.062,24.458,35.062
		z M24.458,31.823h-2.549c-0.469,0-0.85-0.382-0.85-0.851s0.381-0.85,0.85-0.85h2.549c0.47,0,0.851,0.381,0.851,0.85
		S24.927,31.823,24.458,31.823z M24.458,28.584h-2.549c-0.469,0-0.85-0.38-0.85-0.85c0-0.471,0.381-0.851,0.85-0.851h2.549
		c0.47,0,0.851,0.38,0.851,0.851C25.308,28.204,24.927,28.584,24.458,28.584z M24.458,25.345h-2.549c-0.469,0-0.85-0.381-0.85-0.85
		c0-0.47,0.381-0.851,0.85-0.851h2.549c0.47,0,0.851,0.381,0.851,0.851C25.308,24.964,24.927,25.345,24.458,25.345z M9.589,21.686
		V6.075h4.195l10.75,15.608H9.589V21.686z"/>
</g>
<g>
</g>
<g>
</g>
<g>
</g>
<g>
</g>
<g>
</g>
<g>
</g>
<g>
</g>
<g>
</g>
<g>
</g>
<g>
</g>
<g>
</g>
<g>
</g>
<g>
</g>
<g>
</g>
<g>
</g>
</svg>
