<?xml version="1.0" encoding="iso-8859-1"?>
<!-- Generator: Adobe Illustrator 16.0.0, SVG Export Plug-In . SVG Version: 6.00 Build 0)  -->
<!DOCTYPE svg PUBLIC "-//W3C//DTD SVG 1.1//EN" "http://www.w3.org/Graphics/SVG/1.1/DTD/svg11.dtd">
<svg version="1.1" id="Capa_1" xmlns="http://www.w3.org/2000/svg" xmlns:xlink="http://www.w3.org/1999/xlink" x="0px" y="0px"
	 width="35px" height="35px" viewBox="0 0 35 35" style="enable-background:new 0 0 35 35;" xml:space="preserve">
<g>
	<path d="M22.429,15.503c0,0.536-0.438,0.974-0.978,0.974c-0.539,0-0.978-0.438-0.978-0.974c0-0.543,0.438-0.979,0.978-0.979
		C21.991,14.523,22.429,14.96,22.429,15.503z M25.5,14.523c-0.539,0-0.978,0.437-0.978,0.979c0,0.536,0.438,0.975,0.978,0.975
		c0.54,0,0.978-0.438,0.978-0.975C26.476,14.96,26.04,14.523,25.5,14.523z M29.55,14.523c-0.541,0-0.978,0.437-0.978,0.979
		c0,0.536,0.437,0.975,0.978,0.975c0.539,0,0.977-0.438,0.977-0.975C30.522,14.96,30.089,14.523,29.55,14.523z M34.341,2.043v26.176
		c0,1.125-0.92,2.045-2.045,2.045h-7.65L19.908,35v-4.736h-1.104c-1.125,0-2.042-0.92-2.042-2.045V2.043
		C16.762,0.919,17.681,0,18.806,0h13.49C33.421,0,34.341,0.919,34.341,2.043z M23.144,1.723c0,0.135,0.111,0.245,0.248,0.245h4.314
		c0.139,0,0.249-0.11,0.249-0.245c0-0.139-0.11-0.25-0.249-0.25h-4.314C23.257,1.473,23.144,1.584,23.144,1.723z M32.919,3.241
		H18.183V26.48l3.102,0.017v5.159l5.157-5.159l6.479-0.017L32.919,3.241L32.919,3.241z M2.133,4.893h9.721
		c0.81,0,1.472,0.662,1.472,1.473v18.856c0,0.812-0.662,1.473-1.472,1.473h-0.797v3.412l-3.412-3.412H2.133
		c-0.811,0-1.474-0.662-1.474-1.473V6.365C0.659,5.555,1.322,4.893,2.133,4.893z M8.547,5.953H5.439
		c-0.102,0-0.181,0.081-0.181,0.18c0,0.098,0.079,0.178,0.181,0.178h3.107c0.098,0,0.18-0.08,0.18-0.178
		C8.726,6.034,8.644,5.953,8.547,5.953z M1.683,23.971l4.668,0.012l3.715,3.718v-3.718l2.233-0.012V7.229H1.683V23.971L1.683,23.971
		z"/>
</g>
<g>
</g>
<g>
</g>
<g>
</g>
<g>
</g>
<g>
</g>
<g>
</g>
<g>
</g>
<g>
</g>
<g>
</g>
<g>
</g>
<g>
</g>
<g>
</g>
<g>
</g>
<g>
</g>
<g>
</g>
</svg>
