<?xml version="1.0" encoding="iso-8859-1"?>
<!-- Generator: Adobe Illustrator 16.0.0, SVG Export Plug-In . SVG Version: 6.00 Build 0)  -->
<!DOCTYPE svg PUBLIC "-//W3C//DTD SVG 1.1//EN" "http://www.w3.org/Graphics/SVG/1.1/DTD/svg11.dtd">
<svg version="1.1" id="Capa_1" xmlns="http://www.w3.org/2000/svg" xmlns:xlink="http://www.w3.org/1999/xlink" x="0px" y="0px"
	 width="35px" height="35.001px" viewBox="0 0 35 35.001" style="enable-background:new 0 0 35 35.001;" xml:space="preserve">
<g>
	<path d="M32.425,26.236v8.765H4.32v-8.765c0-1.455,0.4-2.812,1.087-3.983c1.174,1.368,2.807,2.132,4.466,2.019
		c0.919-0.062,1.77-0.397,2.443-0.951c0.09-0.062,0.254-0.172,0.387-0.334c0.322-0.372,0.531-0.779,0.715-1.135
		c0.078-0.149,0.155-0.301,0.245-0.449c0.11-0.184,0.235-0.49,0.204-0.897c1.382,0.601,2.904,0.938,4.504,0.938
		c2.934,0,5.6-1.127,7.614-2.961C29.649,19.165,32.425,22.374,32.425,26.236z M7.094,8.462C6.951,8.449,6.81,8.425,6.667,8.401
		c2.156-4.216,5.563-6.537,6.979-7.238l-0.011,0.021C15.049,0.431,16.659,0,18.37,0c1.735,0,3.369,0.439,4.794,1.211l-0.023-0.049
		c2.16,1.07,8.982,5.884,8.869,15.51c0,1.93-0.228,3.534-0.228,3.534s-2.882-3.331-6.13-3.106c-1.843,1.916-4.423,3.114-7.283,3.114
		c-2.858,0-5.44-1.2-7.281-3.114c-0.933-0.057-1.832,0.185-2.644,0.549c-0.076-0.159-0.153-0.313-0.229-0.475
		c-0.057-0.119-0.112-0.236-0.169-0.353l0.003-0.007l-1.294-2.588c0.126,0.012,0.235,0.019,0.323,0.02
		c0.379,0,1.621-0.166,1.719-2.31C8.855,10.71,8.56,8.596,7.094,8.462z M10.134,10.633c0.272,4.312,3.858,7.741,8.237,7.741
		c4.395,0,7.984-3.444,8.243-7.771c-2.297-1.723-7.8-5.096-8.138-7.3l-0.082-0.061L18.31,3.303
		C17.972,5.519,12.406,8.919,10.134,10.633z M11.556,22.355c0.071-0.058,0.157-0.099,0.215-0.172
		c0.357-0.414,0.556-0.951,0.842-1.418c0.361-0.599-2.203-2.843-2.729-2.121c-0.192,0.271-0.646,1.166-0.916,1.354
		c-0.239,0.168-0.616-0.074-0.804-0.376c-0.489-0.804-0.969-1.906-1.411-2.795l0.001-0.002c-0.012-0.022-0.023-0.049-0.037-0.072
		c-0.013-0.027-0.023-0.052-0.037-0.077v0.003c-0.453-0.887-1.056-1.925-1.41-2.796c-0.135-0.331-0.104-0.776,0.174-0.87
		c0.312-0.104,1.305,0.063,1.636,0.067c0.892,0.006,0.61-3.393-0.086-3.456c-0.546-0.048-1.097-0.21-1.642-0.169
		c-0.09,0.009-0.178,0.049-0.267,0.076c-2.058,0.518-3.14,3.063-2.122,5.562c0.389,0.956,0.811,1.896,1.258,2.824L4.217,17.92
		c0.014,0.025,0.027,0.049,0.04,0.072c0.011,0.025,0.022,0.05,0.034,0.072l0.004,0.002c0.48,0.91,0.987,1.808,1.523,2.688
		C7.224,23.061,9.914,23.704,11.556,22.355z"/>
</g>
<g>
</g>
<g>
</g>
<g>
</g>
<g>
</g>
<g>
</g>
<g>
</g>
<g>
</g>
<g>
</g>
<g>
</g>
<g>
</g>
<g>
</g>
<g>
</g>
<g>
</g>
<g>
</g>
<g>
</g>
</svg>
