<?xml version="1.0" encoding="iso-8859-1"?>
<!-- Generator: Adobe Illustrator 16.0.0, SVG Export Plug-In . SVG Version: 6.00 Build 0)  -->
<!DOCTYPE svg PUBLIC "-//W3C//DTD SVG 1.1//EN" "http://www.w3.org/Graphics/SVG/1.1/DTD/svg11.dtd">
<svg version="1.1" id="Capa_1" xmlns="http://www.w3.org/2000/svg" xmlns:xlink="http://www.w3.org/1999/xlink" x="0px" y="0px"
	 width="38px" height="38px" viewBox="0 0 38 38" style="enable-background:new 0 0 38 38;" xml:space="preserve">
<g>
	<path d="M21.165,24.4v3.039h-4.854h-0.019h-4.854V24.4c0-1.34,0.962-2.452,2.233-2.689c0.695,0.634,1.617,1.023,2.631,1.025
		c1.014-0.002,1.934-0.393,2.631-1.025C20.202,21.948,21.165,23.061,21.165,24.4z M11.661,22.311c0,0-0.08-0.558-0.08-1.227
		c-0.039-3.338,2.326-5.007,3.076-5.378l-0.009,0.017c0.489-0.265,1.05-0.415,1.644-0.419v-0.001c0.004,0,0.006,0.001,0.011,0.001
		c0.003,0,0.006-0.001,0.009-0.001v0.001c0.596,0.004,1.155,0.154,1.645,0.419l-0.008-0.017c0.748,0.371,3.112,2.04,3.073,5.378
		c0,0.669-0.078,1.227-0.078,1.227s-1-1.155-2.125-1.078c-0.635,0.66-1.521,1.074-2.507,1.08l0,0c-0.003,0-0.006,0-0.009,0
		c-0.005,0-0.007,0-0.011,0l0,0c-0.983-0.006-1.871-0.42-2.506-1.08C12.659,21.154,11.661,22.311,11.661,22.311z M13.452,18.979
		c0.09,1.498,1.33,2.688,2.851,2.694c1.519-0.006,2.76-1.196,2.849-2.694c-0.796-0.598-2.703-1.768-2.82-2.531l-0.027-0.021
		l-0.029,0.021C16.157,17.212,14.249,18.382,13.452,18.979z M23.013,0v1.172c3.826,0,6.939,3.112,6.939,6.938l1.172,0.001
		C31.124,3.639,27.485,0,23.013,0z M23.013,2.025v1.172c2.711,0,4.914,2.204,4.914,4.914h1.172
		C29.099,4.756,26.368,2.025,23.013,2.025z M25.901,7.457v28.331c0,1.216-0.994,2.212-2.211,2.212H9.087
		c-1.215,0-2.211-0.996-2.211-2.212V7.457c0-1.217,0.996-2.211,2.211-2.211H23.69C24.907,5.246,25.901,6.24,25.901,7.457z
		 M13.786,7.108c0,0.148,0.119,0.267,0.269,0.267h4.672c0.147,0,0.269-0.118,0.269-0.267s-0.121-0.269-0.269-0.269h-4.672
		C13.905,6.84,13.786,6.96,13.786,7.108z M17.495,35.788c0-0.612-0.494-1.104-1.104-1.104c-0.61,0-1.106,0.492-1.106,1.104
		c0,0.61,0.496,1.106,1.106,1.106C16.999,36.895,17.495,36.398,17.495,35.788z M24.364,8.753H8.415v25.152h15.949V8.753z"/>
</g>
<g>
</g>
<g>
</g>
<g>
</g>
<g>
</g>
<g>
</g>
<g>
</g>
<g>
</g>
<g>
</g>
<g>
</g>
<g>
</g>
<g>
</g>
<g>
</g>
<g>
</g>
<g>
</g>
<g>
</g>
</svg>
