<?xml version="1.0" encoding="iso-8859-1"?>
<!-- Generator: Adobe Illustrator 16.0.0, SVG Export Plug-In . SVG Version: 6.00 Build 0)  -->
<!DOCTYPE svg PUBLIC "-//W3C//DTD SVG 1.1//EN" "http://www.w3.org/Graphics/SVG/1.1/DTD/svg11.dtd">
<svg version="1.1" id="Capa_1" xmlns="http://www.w3.org/2000/svg" xmlns:xlink="http://www.w3.org/1999/xlink" x="0px" y="0px"
	 width="33.627px" height="33.627px" viewBox="0 0 33.627 33.627" style="enable-background:new 0 0 33.627 33.627;"
	 xml:space="preserve">
<g>
	<path d="M31.355,4.178H2.271C1.022,4.178,0,5.199,0,6.447v14.99c0,1.25,1.021,2.272,2.271,2.272h5.93v5.74l5.742-5.74h17.413
		c1.248,0,2.271-1.022,2.271-2.272V6.447C33.625,5.2,32.604,4.178,31.355,4.178z M2.271,15.079c-0.628,0-1.137-0.508-1.137-1.135
		c0-0.628,0.509-1.136,1.137-1.136c0.627,0,1.137,0.508,1.137,1.136C3.408,14.572,2.898,15.079,2.271,15.079z M30.025,22.132H13.827
		l-4.441,4.44v-4.44H4.204V5.76h25.821V22.132z M31.991,16.342c0,0.151-0.123,0.274-0.277,0.274c-0.149,0-0.271-0.123-0.271-0.274
		v-4.795c0-0.15,0.121-0.274,0.271-0.274c0.154,0,0.277,0.124,0.277,0.274V16.342z M13.269,13.94c0,0.619-0.503,1.123-1.126,1.123
		c-0.621,0-1.125-0.504-1.125-1.123c0-0.626,0.504-1.129,1.125-1.129C12.766,12.812,13.269,13.314,13.269,13.94z M17.939,13.94
		c0,0.619-0.504,1.123-1.126,1.123c-0.622,0-1.126-0.504-1.126-1.123c0-0.626,0.504-1.129,1.126-1.129
		C17.436,12.812,17.939,13.314,17.939,13.94z M22.607,13.94c0,0.619-0.504,1.123-1.125,1.123c-0.623,0-1.125-0.504-1.125-1.123
		c0-0.626,0.502-1.129,1.125-1.129C22.104,12.812,22.607,13.314,22.607,13.94z"/>
</g>
<g>
</g>
<g>
</g>
<g>
</g>
<g>
</g>
<g>
</g>
<g>
</g>
<g>
</g>
<g>
</g>
<g>
</g>
<g>
</g>
<g>
</g>
<g>
</g>
<g>
</g>
<g>
</g>
<g>
</g>
</svg>
