<?xml version="1.0" encoding="iso-8859-1"?>
<!-- Generator: Adobe Illustrator 16.0.0, SVG Export Plug-In . SVG Version: 6.00 Build 0)  -->
<!DOCTYPE svg PUBLIC "-//W3C//DTD SVG 1.1//EN" "http://www.w3.org/Graphics/SVG/1.1/DTD/svg11.dtd">
<svg version="1.1" id="Capa_1" xmlns="http://www.w3.org/2000/svg" xmlns:xlink="http://www.w3.org/1999/xlink" x="0px" y="0px"
	 width="33.625px" height="33.625px" viewBox="0 0 33.625 33.625" style="enable-background:new 0 0 33.625 33.625;"
	 xml:space="preserve">
<g>
	<path d="M21.139,21.147l-1.252-0.001c0-4.088-3.327-7.415-7.416-7.414v-1.253C17.25,12.48,21.139,16.369,21.139,21.147z
		 M12.471,14.644l-0.001,1.252c2.896,0,5.252,2.356,5.252,5.252h1.252C18.975,17.562,16.056,14.644,12.471,14.644z M12.471,16.878
		v1.252c1.664,0,3.019,1.354,3.018,3.019h1.252C16.74,18.794,14.826,16.878,12.471,16.878z M2.271,7.047h29.084
		c1.248,0,2.27,1.021,2.27,2.271v14.989c0,1.25-1.021,2.271-2.27,2.271H2.271C1.021,26.58,0,25.557,0,24.307V9.318
		C0,8.071,1.021,7.047,2.271,7.047z M1.912,19.488c0.152,0,0.275-0.125,0.275-0.275v-4.795c0-0.152-0.123-0.274-0.275-0.274
		c-0.151,0-0.274,0.123-0.274,0.274v4.795C1.637,19.365,1.76,19.488,1.912,19.488z M31.355,15.678c-0.627,0-1.14,0.509-1.14,1.136
		s0.513,1.136,1.14,1.136s1.137-0.509,1.137-1.136C32.492,16.188,31.982,15.678,31.355,15.678z M3.602,8.628V25h25.82V8.628H3.602z"
		/>
</g>
<g>
</g>
<g>
</g>
<g>
</g>
<g>
</g>
<g>
</g>
<g>
</g>
<g>
</g>
<g>
</g>
<g>
</g>
<g>
</g>
<g>
</g>
<g>
</g>
<g>
</g>
<g>
</g>
<g>
</g>
</svg>
