<?xml version="1.0" encoding="iso-8859-1"?>
<!-- Generator: Adobe Illustrator 16.0.0, SVG Export Plug-In . SVG Version: 6.00 Build 0)  -->
<!DOCTYPE svg PUBLIC "-//W3C//DTD SVG 1.1//EN" "http://www.w3.org/Graphics/SVG/1.1/DTD/svg11.dtd">
<svg version="1.1" id="Capa_1" xmlns="http://www.w3.org/2000/svg" xmlns:xlink="http://www.w3.org/1999/xlink" x="0px" y="0px"
	 width="35.001px" height="35.001px" viewBox="0 0 35.001 35.001" style="enable-background:new 0 0 35.001 35.001;"
	 xml:space="preserve">
<g>
	<path d="M31.562,8.919c-0.035,0.176-0.037,0.363-0.104,0.53c-0.408,0.987-1.177,1.808-1.742,2.718
		c-0.728,1.163-6.912-1.343-6.113-2.896c0.301-0.574,1.471-2.158,1.561-2.795c0.082-0.572-0.672-1.018-1.369-1.072
		c-1.834-0.148-10.746-0.149-12.581,0c-0.698,0.055-1.454,0.501-1.373,1.072C9.93,7.11,11.101,8.696,11.4,9.271
		c0.797,1.554-5.389,4.061-6.117,2.896c-0.562-0.913-1.329-1.729-1.738-2.718c-0.07-0.167-0.07-0.355-0.107-0.531
		C2.533,4.862,6.03,0.726,11.293,0.303c2.012-0.163,4.027-0.256,6.045-0.292v-0.01c0.055,0.001,0.107,0.004,0.162,0.004
		C17.555,0.007,17.609,0.002,17.665,0v0.01c2.016,0.037,4.031,0.13,6.045,0.292C28.972,0.728,32.47,4.864,31.562,8.919z
		 M17.499,35.001L17.499,35.001L17.499,35.001L17.499,35.001c-6.426,0-11.652-5.228-11.652-11.649l0,0l0,0l0,0
		c0-6.426,5.228-11.651,11.652-11.651l0,0l0,0l0,0c6.422,0,11.648,5.225,11.65,11.646c0,0.002,0,0.004,0,0.006s0,0.004,0,0.006
		C29.146,29.775,23.921,35.001,17.499,35.001z M20.599,27.884c-1.02,0.108-2.065,0.165-3.1,0.165c-1.035,0-2.08-0.057-3.1-0.165
		c0.613,3.607,1.906,5.882,3.1,5.882l0,0C18.691,33.766,19.984,31.491,20.599,27.884z M20.777,26.628
		c0.117-1.017,0.185-2.11,0.185-3.276s-0.066-2.266-0.185-3.279c-1.016-0.117-2.112-0.186-3.279-0.186
		c-1.166,0-2.264,0.066-3.279,0.186c-0.117,1.016-0.184,2.113-0.184,3.279s0.066,2.264,0.184,3.276
		c1.016,0.118,2.113,0.187,3.279,0.187C18.665,26.814,19.763,26.746,20.777,26.628z M7.083,23.352c0,1.191,2.273,2.484,5.881,3.1
		c-0.107-1.02-0.164-2.065-0.164-3.1c0-1.035,0.057-2.08,0.164-3.102C9.356,20.861,7.083,22.155,7.083,23.352L7.083,23.352z
		 M14.399,18.814c1.02-0.107,2.063-0.166,3.1-0.166c1.033,0,2.081,0.059,3.1,0.166c-0.613-3.606-1.906-5.88-3.1-5.88l0,0
		C16.305,12.935,15.012,15.208,14.399,18.814z M22.195,23.352c0,1.032-0.055,2.08-0.164,3.1c3.604-0.613,5.877-1.903,5.882-3.096
		c0-0.002,0-0.004,0-0.004c0-0.002,0-0.002,0-0.004c-0.005-1.193-2.275-2.482-5.882-3.098
		C22.142,21.271,22.195,22.314,22.195,23.352z M19.908,13.219c0.937,1.337,1.595,3.429,1.957,5.766
		c2.334,0.36,4.429,1.021,5.765,1.957C26.724,17.13,23.72,14.126,19.908,13.219z M7.367,20.939c1.336-0.937,3.428-1.597,5.762-1.959
		c0.365-2.335,1.023-4.425,1.959-5.764C11.277,14.125,8.274,17.13,7.367,20.939z M15.088,33.479
		c-0.936-1.336-1.594-3.428-1.959-5.764c-2.334-0.361-4.426-1.021-5.762-1.957C8.274,29.568,11.277,32.574,15.088,33.479z
		 M27.63,25.76c-1.336,0.938-3.431,1.596-5.765,1.957c-0.362,2.336-1.021,4.428-1.957,5.766C23.72,32.573,26.724,29.568,27.63,25.76
		z"/>
</g>
<g>
</g>
<g>
</g>
<g>
</g>
<g>
</g>
<g>
</g>
<g>
</g>
<g>
</g>
<g>
</g>
<g>
</g>
<g>
</g>
<g>
</g>
<g>
</g>
<g>
</g>
<g>
</g>
<g>
</g>
</svg>
