<?xml version="1.0" encoding="iso-8859-1"?>
<!-- Generator: Adobe Illustrator 16.0.0, SVG Export Plug-In . SVG Version: 6.00 Build 0)  -->
<!DOCTYPE svg PUBLIC "-//W3C//DTD SVG 1.1//EN" "http://www.w3.org/Graphics/SVG/1.1/DTD/svg11.dtd">
<svg version="1.1" id="Capa_1" xmlns="http://www.w3.org/2000/svg" xmlns:xlink="http://www.w3.org/1999/xlink" x="0px" y="0px"
	 width="38.826px" height="38.826px" viewBox="0 0 38.826 38.826" style="enable-background:new 0 0 38.826 38.826;"
	 xml:space="preserve">
<g>
	<path d="M29.352,6.879c0-3.246-2.64-5.886-5.886-5.886V0c3.793-0.001,6.879,3.085,6.879,6.878L29.352,6.879z M28.628,6.878
		c0-2.847-2.315-5.161-5.162-5.161v0.994c2.298,0,4.168,1.87,4.168,4.168L28.628,6.878z M23.466,3.49v0.994
		c1.32-0.002,2.396,1.072,2.396,2.395h0.993C26.855,5.01,25.335,3.491,23.466,3.49z M24.812,8.212v24.315
		c0,1.045-0.855,1.897-1.9,1.897h-7.106l-4.399,4.401v-4.401h-1.026c-1.044,0.001-1.898-0.853-1.898-1.897V8.212
		c0-1.044,0.854-1.897,1.898-1.897h12.532C23.956,6.314,24.812,7.168,24.812,8.212z M14.411,7.914c0,0.126,0.104,0.229,0.229,0.229
		h4.009c0.129,0,0.231-0.103,0.231-0.229c0-0.128-0.102-0.23-0.231-0.23H14.64C14.515,7.684,14.411,7.786,14.411,7.914z
		 M23.49,9.326H9.801v21.587l2.88,0.017v4.791l4.791-4.791l6.018-0.017V9.326L23.49,9.326z"/>
</g>
<g>
</g>
<g>
</g>
<g>
</g>
<g>
</g>
<g>
</g>
<g>
</g>
<g>
</g>
<g>
</g>
<g>
</g>
<g>
</g>
<g>
</g>
<g>
</g>
<g>
</g>
<g>
</g>
<g>
</g>
</svg>
