<?xml version="1.0" encoding="iso-8859-1"?>
<!-- Generator: Adobe Illustrator 16.0.0, SVG Export Plug-In . SVG Version: 6.00 Build 0)  -->
<!DOCTYPE svg PUBLIC "-//W3C//DTD SVG 1.1//EN" "http://www.w3.org/Graphics/SVG/1.1/DTD/svg11.dtd">
<svg version="1.1" id="Capa_1" xmlns="http://www.w3.org/2000/svg" xmlns:xlink="http://www.w3.org/1999/xlink" x="0px" y="0px"
	 width="33.625px" height="33.625px" viewBox="0 0 33.625 33.625" style="enable-background:new 0 0 33.625 33.625;"
	 xml:space="preserve">
<g>
	<path d="M14.962,14.994c0-1.371,1.116-2.486,2.488-2.486c1.37,0,2.483,1.115,2.483,2.486s-1.113,2.485-2.483,2.485
		C16.079,17.48,14.962,16.364,14.962,14.994z M11.045,17.965c1.187,0,2.153-0.964,2.153-2.15c0-1.188-0.967-2.155-2.153-2.155
		c-1.188,0-2.154,0.967-2.154,2.155C8.891,17.001,9.857,17.965,11.045,17.965z M23.156,18.567c0.96,0,1.74-0.779,1.74-1.741
		c0-0.961-0.78-1.742-1.74-1.742c-0.961,0-1.742,0.781-1.742,1.742C21.414,17.786,22.195,18.567,23.156,18.567z M24.467,18.271
		c-0.346,0.312-0.803,0.509-1.303,0.513v-0.002c-0.006,0-0.006,0.002-0.012,0.002c-0.002,0-0.006-0.002-0.01-0.002v0.002
		c-0.502-0.004-0.957-0.197-1.305-0.513c-0.412,0.076-0.742,0.349-0.938,0.705v-0.018c0-0.949-0.682-1.737-1.584-1.905
		c-0.491,0.445-1.146,0.725-1.856,0.729V17.78c-0.007,0-0.011,0.002-0.019,0.002c-0.004,0-0.01-0.002-0.016-0.002v0.002
		c-0.716-0.006-1.366-0.28-1.858-0.729c-0.878,0.161-1.544,0.917-1.579,1.831c-0.145-0.651-0.666-1.164-1.327-1.285
		c-0.428,0.388-0.991,0.627-1.61,0.629l0,0c-0.006,0-0.009,0-0.015,0c-0.003,0-0.007,0-0.012,0l0,0
		c-0.62-0.002-1.184-0.241-1.61-0.629c-0.779,0.146-1.371,0.828-1.371,1.646v1.869h2.983h0.026h2.931h0.052h3.394h0.03h3.269h0.174
		h2.238h0.021h2.412v-1.51C25.577,18.94,25.098,18.389,24.467,18.271z M31.354,26.579H2.271C1.022,26.579,0,25.557,0,24.307V9.317
		c0-1.25,1.022-2.271,2.271-2.271h29.083c1.25,0,2.271,1.021,2.271,2.271v14.99C33.624,25.555,32.604,26.579,31.354,26.579z
		 M31.712,14.138c-0.151,0-0.272,0.124-0.272,0.274v4.794c0,0.152,0.121,0.274,0.272,0.274s0.274-0.122,0.274-0.274v-4.794
		C31.988,14.262,31.865,14.138,31.712,14.138z M2.271,17.944c0.628,0,1.136-0.508,1.136-1.133c0-0.627-0.508-1.137-1.136-1.137
		s-1.136,0.51-1.136,1.137C1.135,17.438,1.643,17.944,2.271,17.944z M30.023,24.997V8.626H4.203v16.373h25.82V24.997z"/>
</g>
<g>
</g>
<g>
</g>
<g>
</g>
<g>
</g>
<g>
</g>
<g>
</g>
<g>
</g>
<g>
</g>
<g>
</g>
<g>
</g>
<g>
</g>
<g>
</g>
<g>
</g>
<g>
</g>
<g>
</g>
</svg>
