<?xml version="1.0" encoding="iso-8859-1"?>
<!-- Generator: Adobe Illustrator 16.0.0, SVG Export Plug-In . SVG Version: 6.00 Build 0)  -->
<!DOCTYPE svg PUBLIC "-//W3C//DTD SVG 1.1//EN" "http://www.w3.org/Graphics/SVG/1.1/DTD/svg11.dtd">
<svg version="1.1" id="Capa_1" xmlns="http://www.w3.org/2000/svg" xmlns:xlink="http://www.w3.org/1999/xlink" x="0px" y="0px"
	 width="35px" height="35px" viewBox="0 0 35 35" style="enable-background:new 0 0 35 35;" xml:space="preserve">
<g>
	<path d="M20.133,18.387c0-3.494-2.842-6.337-6.336-6.337v-1.067c4.084-0.002,7.406,3.32,7.406,7.403L20.133,18.387z M19.356,18.386
		c-0.002-3.062-2.495-5.557-5.561-5.557l0.002,1.069c2.474,0,4.486,2.015,4.486,4.487L19.356,18.386L19.356,18.386z M13.797,14.738
		l0.002,1.07c1.42-0.002,2.578,1.155,2.578,2.578h1.068C17.445,16.375,15.809,14.739,13.797,14.738z M26.29,2.043v26.176
		c0,1.125-0.921,2.045-2.046,2.045h-7.65L11.857,35v-4.736h-1.104c-1.124,0-2.043-0.92-2.043-2.045V2.043
		C8.71,0.919,9.629,0,10.753,0h13.491C25.369,0,26.29,0.919,26.29,2.043z M15.094,1.723c0,0.135,0.111,0.245,0.247,0.245h4.314
		c0.14,0,0.248-0.11,0.248-0.245c0-0.139-0.108-0.25-0.248-0.25h-4.314C15.205,1.473,15.094,1.584,15.094,1.723z M24.868,3.241
		H10.132V26.48l3.101,0.017v5.159l5.159-5.159l6.479-0.017L24.868,3.241L24.868,3.241z"/>
</g>
<g>
</g>
<g>
</g>
<g>
</g>
<g>
</g>
<g>
</g>
<g>
</g>
<g>
</g>
<g>
</g>
<g>
</g>
<g>
</g>
<g>
</g>
<g>
</g>
<g>
</g>
<g>
</g>
<g>
</g>
</svg>
