<?xml version="1.0" encoding="iso-8859-1"?>
<!-- Generator: Adobe Illustrator 16.0.0, SVG Export Plug-In . SVG Version: 6.00 Build 0)  -->
<!DOCTYPE svg PUBLIC "-//W3C//DTD SVG 1.1//EN" "http://www.w3.org/Graphics/SVG/1.1/DTD/svg11.dtd">
<svg version="1.1" id="Capa_1" xmlns="http://www.w3.org/2000/svg" xmlns:xlink="http://www.w3.org/1999/xlink" x="0px" y="0px"
	 width="33.625px" height="33.625px" viewBox="0 0 33.625 33.625" style="enable-background:new 0 0 33.625 33.625;"
	 xml:space="preserve">
<g>
	<path d="M10.797,16.695c0.546,0.566,1.309,0.92,2.154,0.926v0.002c0.003,0,0.005-0.002,0.008-0.002s0.005,0.002,0.008,0.002v-0.002
		c0.846-0.006,1.608-0.356,2.153-0.926c0.968-0.066,1.825,0.926,1.825,0.926s0.069-0.479,0.069-1.053
		c0.033-2.87-1.999-4.305-2.643-4.622l0.007,0.016c-0.42-0.229-0.901-0.356-1.412-0.36c-0.003,0-0.005,0-0.008,0s-0.005,0-0.008,0
		c-0.511,0.004-0.992,0.134-1.412,0.36l0.007-0.016c-0.644,0.317-2.676,1.752-2.643,4.622c0,0.572,0.069,1.053,0.069,1.053
		S9.831,16.629,10.797,16.695z M12.936,12.586l0.023-0.021l0.023,0.021c0.102,0.655,1.739,1.66,2.424,2.174
		c-0.076,1.285-1.143,2.311-2.447,2.312c-1.305-0.007-2.371-1.027-2.448-2.312C11.196,14.246,12.835,13.242,12.936,12.586z
		 M20.661,17.623c1.659,0,3.01-1.352,3.01-3.01c0-1.662-1.351-3.013-3.01-3.013c-1.661,0-3.013,1.351-3.013,3.013
		C17.648,16.272,19,17.623,20.661,17.623z M18.38,13.683c0.679-0.061,3.464-0.619,3.591-1c0.1,0.688,0.614,1.664,1.141,2.146
		c-0.11,1.255-1.166,2.246-2.449,2.246c-1.359,0-2.463-1.106-2.463-2.463C18.198,14.285,18.262,13.97,18.38,13.683z M24.846,19.416
		v2.609h-4.17h-0.035h-3.5h-0.67h-3.502h-0.016H8.78v-2.607c0-1.151,0.826-2.106,1.919-2.312c0.598,0.542,1.39,0.879,2.26,0.881
		c0.871-0.002,1.661-0.339,2.26-0.881c0.674,0.125,1.245,0.539,1.584,1.104c0.339-0.564,0.911-0.979,1.583-1.104
		c0.598,0.542,1.385,0.876,2.252,0.883l0,0c0.006,0,0.012,0.002,0.018,0.002c0.008,0,0.012-0.002,0.02-0.002v0.002
		c0.865-0.007,1.653-0.342,2.251-0.884C24.02,17.31,24.846,18.265,24.846,19.416z M33.625,24.309V9.318
		c0-1.249-1.021-2.271-2.271-2.271H2.271C1.022,7.046,0,8.068,0,9.318v14.989c0,1.249,1.022,2.271,2.271,2.271h29.083
		C32.605,26.582,33.625,25.557,33.625,24.309z M31.988,14.416v4.795c0,0.152-0.122,0.273-0.274,0.273
		c-0.151,0-0.272-0.121-0.272-0.273v-4.795c0-0.15,0.121-0.274,0.272-0.274C31.866,14.14,31.988,14.264,31.988,14.416z
		 M1.136,16.813c0-0.627,0.508-1.137,1.136-1.137s1.136,0.51,1.136,1.137c0,0.625-0.508,1.134-1.136,1.134
		S1.136,17.439,1.136,16.813z M4.204,25.002V8.629h25.821v16.373H4.204z"/>
</g>
<g>
</g>
<g>
</g>
<g>
</g>
<g>
</g>
<g>
</g>
<g>
</g>
<g>
</g>
<g>
</g>
<g>
</g>
<g>
</g>
<g>
</g>
<g>
</g>
<g>
</g>
<g>
</g>
<g>
</g>
</svg>
