<?xml version="1.0" encoding="iso-8859-1"?>
<!-- Generator: Adobe Illustrator 16.0.0, SVG Export Plug-In . SVG Version: 6.00 Build 0)  -->
<!DOCTYPE svg PUBLIC "-//W3C//DTD SVG 1.1//EN" "http://www.w3.org/Graphics/SVG/1.1/DTD/svg11.dtd">
<svg version="1.1" id="Capa_1" xmlns="http://www.w3.org/2000/svg" xmlns:xlink="http://www.w3.org/1999/xlink" x="0px" y="0px"
	 width="81.748px" height="81.749px" viewBox="0 0 81.748 81.749" style="enable-background:new 0 0 81.748 81.749;"
	 xml:space="preserve">
<g>
	<path d="M59.098,0H22.649c-3.036,0-5.521,2.48-5.521,5.519v70.707c0,3.041,2.485,5.522,5.521,5.522h36.448
		c3.036,0,5.522-2.481,5.522-5.522V5.519C64.62,2.48,62.134,0,59.098,0z M35.043,3.978h11.661c0.37,0,0.669,0.301,0.669,0.671
		c0,0.366-0.299,0.665-0.669,0.665H35.043c-0.368,0-0.668-0.299-0.668-0.665C34.375,4.279,34.675,3.978,35.043,3.978z
		 M40.874,78.994c-1.522,0-2.761-1.236-2.761-2.768c0-1.525,1.236-2.76,2.761-2.76c1.525,0,2.76,1.234,2.76,2.76
		C43.634,77.757,42.396,78.994,40.874,78.994z M60.778,71.535h-39.81V8.754h39.81V71.535z M40.466,26.407V55.07
		c0,0-7.683-6.221-9.22-9.218c-1.752-3.425-2.289-12.651-1.156-15.718L40.466,26.407z M51.656,30.129
		c1.134,3.067,0.598,12.296-1.153,15.718c-1.538,2.997-9.221,9.218-9.221,9.218V26.407L51.656,30.129z"/>
</g>
<g>
</g>
<g>
</g>
<g>
</g>
<g>
</g>
<g>
</g>
<g>
</g>
<g>
</g>
<g>
</g>
<g>
</g>
<g>
</g>
<g>
</g>
<g>
</g>
<g>
</g>
<g>
</g>
<g>
</g>
</svg>
