<?xml version="1.0" encoding="iso-8859-1"?>
<!-- Generator: Adobe Illustrator 16.0.0, SVG Export Plug-In . SVG Version: 6.00 Build 0)  -->
<!DOCTYPE svg PUBLIC "-//W3C//DTD SVG 1.1//EN" "http://www.w3.org/Graphics/SVG/1.1/DTD/svg11.dtd">
<svg version="1.1" id="Capa_1" xmlns="http://www.w3.org/2000/svg" xmlns:xlink="http://www.w3.org/1999/xlink" x="0px" y="0px"
	 width="37.883px" height="37.883px" viewBox="0 0 37.883 37.883" style="enable-background:new 0 0 37.883 37.883;"
	 xml:space="preserve">
<g>
	<path d="M30.119,12.271c0.051,0.065,0.115,0.106,0.182,0.13l-0.303,0.188l-0.524-0.678l0.084-0.117
		C29.715,11.991,30.119,12.271,30.119,12.271z M32.668,16.127c0,4.989-4.043,9.031-9.031,9.031c-4.987,0-9.032-4.042-9.032-9.031
		c0-4.986,4.045-9.031,9.032-9.031C28.625,7.096,32.668,11.139,32.668,16.127z M17.668,10.536c0.078-0.04,0.156-0.071,0.234-0.095
		c0,0,0.754-0.077,0.438-0.551C18.106,10.092,17.879,10.307,17.668,10.536z M18.91,17.116c0,0-0.121-0.397-0.725-0.397
		c0,0-0.363-0.396-0.688-0.396c0,0-0.119-1.111-0.726-0.872c0,0-0.082-0.438-0.324-0.397c0,0-0.157-0.438-0.44-0.316l-0.324-0.2
		c0,0-0.029,0.052-0.076,0.13c-0.078,0.455-0.121,0.922-0.121,1.396c0,2.308,0.969,4.39,2.518,5.866
		c0.002-0.07,0.021-0.14,0.062-0.201c0,0,0.16-0.317-0.043-0.597c0,0,0.203-0.278,0.203-0.639c0,0-0.203-0.634,0.321-0.712
		c0,0,0.729,0,0.363-1.272c0,0-0.039-0.356,0.244-0.713C19.154,17.793,19.436,17.035,18.91,17.116z M19.396,9.131
		C19.033,9.35,18.69,9.6,18.367,9.87c0.186,0.021,0.956,0.075,1.006-0.364L19.396,9.131z M30.346,12.414
		c0.152,0.038,0.318-0.008,0.438-0.058C29.553,9.969,27.17,8.269,24.365,8c-0.645,0.633,0.149,0.895,0.149,0.895
		C24.797,9.092,25.4,8.734,25.4,8.734c0.244,0.276-0.688,0.678-0.688,0.678c-0.521,0.037-0.926,0.317-0.926,0.317
		c-0.242-0.358-0.484-0.081-0.484-0.081c-0.197,0.237,0.283,0.36,0.283,0.36c0.322,0.076,0.242,0.276,0.119,0.396
		c-0.119,0.118-0.643,0-0.643,0c-0.283,0.159-0.082,0.715-0.082,0.715h0.241c0.806,0.236,0.849-0.358,0.849-0.358
		c0.24,0,0.321-0.396,0.321-0.396c0.203,0.2,0.687-0.119,0.687-0.119c0.041,0.16,0.281,0.396,0.281,0.396
		c0.362,0.119,0.442,0.279,0.442,0.279c-0.362,0.08-0.041,0.237-0.041,0.237c0.486-0.198,0.121-0.476,0.121-0.476
		c-0.924-0.438-0.522-0.559-0.522-0.559c0.162,0.279,0.809,0.397,0.809,0.397c0.08,0.517,0.322,0.597,0.322,0.597
		c0.281,0.12,0.361-0.119,0.361-0.119c-0.281-0.078-0.324-0.316-0.324-0.316c-0.078-0.239,0.283-0.08,0.283-0.08
		c0.323,0.477,1.01,0.437,1.01,0.437c0.44-0.038,0.322,0.757,0.322,0.757c-0.484,0.317-1.414-0.24-1.414-0.24
		c0.082,0.279-0.279,0.316-0.279,0.316c-0.365-0.435-0.928-0.236-0.928-0.236c0.121-0.197-0.082-0.517-0.082-0.517
		c-0.32-0.08-0.845,0.08-0.845,0.08c-0.403,0.156-1.172,0.197-1.172,0.197c-0.36,0-0.604,0.717-0.604,0.717
		c-0.808,0.356-0.887,1.071-0.887,1.071c0,0.438-0.08,0.873-0.08,0.873c-0.283,0.438,0.521,0.914,0.521,0.914
		c0.486,0.914,1.09,0.519,1.09,0.519c0.484,0.197,1.533-0.198,1.533-0.198c0.121,0.396,0.685,0.277,0.685,0.277
		c0.2,0.118,0.12,0.518,0.12,0.518C25.521,16.562,26.043,17,26.043,17c0.809,0.913,0.279,1.15,0.279,1.15
		c-0.562,0.557-0.197,1.033-0.197,1.033c0.4,0.875,0.4,1.621,0.4,1.621c1.371,0.199,1.854-0.826,1.854-0.826
		c0.442,0,0.442-0.397,0.442-0.397c0-0.478,0.283-0.674,0.283-0.674c0.646-0.438,0.523-1.312,0.523-1.312
		c-0.08-0.516,0.119-0.991,0.119-0.991c0.767-0.874,0.729-2.185,0.729-2.185c-0.322,0.158-0.523,0.037-0.523,0.037
		c-0.727-0.716-1.612-2.266-1.612-2.266c0.849,0.357,1.533,2.027,1.533,2.027c0.483-0.24,0.643-0.677,0.643-0.677
		C30.988,13.119,30.471,12.539,30.346,12.414z M23.637,26.602c0.203,0,0.404-0.021,0.604-0.029v1.964v2.004v0.002
		c0,0.144-0.017,0.282-0.043,0.42c-0.008,0.043-0.021,0.084-0.033,0.127c-0.021,0.091-0.049,0.181-0.082,0.267
		c-0.021,0.049-0.045,0.094-0.066,0.141c-0.035,0.074-0.074,0.148-0.119,0.221c-0.029,0.045-0.061,0.09-0.094,0.133
		c-0.047,0.064-0.098,0.127-0.152,0.187c-0.037,0.041-0.074,0.08-0.115,0.116c-0.059,0.058-0.12,0.105-0.186,0.154
		c-0.043,0.031-0.085,0.064-0.131,0.096c-0.07,0.046-0.146,0.084-0.225,0.121c-0.047,0.021-0.088,0.049-0.135,0.066
		c-0.103,0.041-0.209,0.072-0.314,0.1c-0.168,0.041-0.338,0.066-0.518,0.066h-8.279l-5.127,5.127v-5.127H7.426
		c-1.217-0.002-2.211-0.998-2.211-2.215V2.211C5.215,0.994,6.209,0,7.426,0h14.604c0.15,0,0.299,0.016,0.441,0.045l0,0l0,0
		c0.006,0,0.008,0.002,0.012,0.002c0.133,0.028,0.26,0.069,0.383,0.121c0.039,0.016,0.074,0.035,0.111,0.053
		c0.084,0.041,0.168,0.084,0.247,0.137c0.041,0.025,0.077,0.056,0.116,0.085c0.068,0.052,0.137,0.104,0.199,0.165
		c0.037,0.034,0.07,0.07,0.105,0.107c0.057,0.062,0.11,0.127,0.161,0.194c0.029,0.041,0.06,0.082,0.087,0.125
		c0.047,0.073,0.086,0.147,0.123,0.228c0.021,0.045,0.045,0.089,0.062,0.135c0.035,0.087,0.062,0.177,0.084,0.27
		c0.011,0.041,0.025,0.082,0.033,0.125c0.026,0.137,0.043,0.276,0.043,0.42v1.416v2.059c-0.201-0.012-0.401-0.03-0.604-0.03
		c-0.315,0-0.625,0.021-0.935,0.047V3.627V3.51H6.752v25.151l3.356,0.019v5.584l5.581-5.584l6.779-0.018V28.66h0.231v-0.121v-1.98
		C23.012,26.582,23.32,26.602,23.637,26.602z M12.125,1.861c0,0.146,0.121,0.268,0.268,0.268h4.671c0.149,0,0.271-0.119,0.271-0.268
		s-0.12-0.269-0.271-0.269h-4.671C12.246,1.592,12.125,1.713,12.125,1.861z"/>
</g>
<g>
</g>
<g>
</g>
<g>
</g>
<g>
</g>
<g>
</g>
<g>
</g>
<g>
</g>
<g>
</g>
<g>
</g>
<g>
</g>
<g>
</g>
<g>
</g>
<g>
</g>
<g>
</g>
<g>
</g>
</svg>
