<?xml version="1.0" encoding="iso-8859-1"?>
<!-- Generator: Adobe Illustrator 16.0.0, SVG Export Plug-In . SVG Version: 6.00 Build 0)  -->
<!DOCTYPE svg PUBLIC "-//W3C//DTD SVG 1.1//EN" "http://www.w3.org/Graphics/SVG/1.1/DTD/svg11.dtd">
<svg version="1.1" id="Capa_1" xmlns="http://www.w3.org/2000/svg" xmlns:xlink="http://www.w3.org/1999/xlink" x="0px" y="0px"
	 width="35px" height="35px" viewBox="0 0 35 35" style="enable-background:new 0 0 35 35;" xml:space="preserve">
<g>
	<path d="M25.302,0H9.698c-1.3,0-2.364,1.063-2.364,2.364v30.271c0,1.3,1.064,2.364,2.364,2.364h15.604
		c1.3,0,2.364-1.062,2.364-2.364V2.364C27.666,1.064,26.602,0,25.302,0z M15.004,1.704h4.992c0.158,0,0.286,0.128,0.286,0.287
		c0,0.158-0.128,0.286-0.286,0.286h-4.992c-0.158,0-0.286-0.128-0.286-0.286C14.718,1.832,14.846,1.704,15.004,1.704z M17.5,33.818
		c-0.652,0-1.182-0.528-1.182-1.182c0-0.652,0.529-1.182,1.182-1.182s1.182,0.529,1.182,1.182
		C18.682,33.29,18.152,33.818,17.5,33.818z M26.021,30.625H8.978V3.749h17.043V30.625z M21.982,17.34h-0.976v-2.733h-0.001
		c-0.015-1.924-1.578-3.48-3.507-3.48c-1.929,0-3.492,1.556-3.507,3.48h-0.001v2.733h-0.975c-0.214,0-0.39,0.176-0.39,0.391v5.457
		c0,0.213,0.176,0.39,0.39,0.39h8.964c0.215,0,0.391-0.177,0.391-0.39V17.73C22.372,17.516,22.195,17.34,21.982,17.34z
		 M18.233,21.445h-1.467l0.472-1.373c-0.301-0.108-0.516-0.393-0.516-0.729c0-0.43,0.348-0.778,0.777-0.778s0.777,0.349,0.777,0.778
		c0,0.337-0.215,0.621-0.516,0.729L18.233,21.445z M19.645,17.34h-4.288v-2.733l0.001,0.011c0.009-1.173,0.97-2.127,2.143-2.127
		s2.134,0.955,2.144,2.127v-0.011V17.34L19.645,17.34z"/>
</g>
<g>
</g>
<g>
</g>
<g>
</g>
<g>
</g>
<g>
</g>
<g>
</g>
<g>
</g>
<g>
</g>
<g>
</g>
<g>
</g>
<g>
</g>
<g>
</g>
<g>
</g>
<g>
</g>
<g>
</g>
</svg>
