<?xml version="1.0" encoding="iso-8859-1"?>
<!-- Generator: Adobe Illustrator 16.0.0, SVG Export Plug-In . SVG Version: 6.00 Build 0)  -->
<!DOCTYPE svg PUBLIC "-//W3C//DTD SVG 1.1//EN" "http://www.w3.org/Graphics/SVG/1.1/DTD/svg11.dtd">
<svg version="1.1" id="Capa_1" xmlns="http://www.w3.org/2000/svg" xmlns:xlink="http://www.w3.org/1999/xlink" x="0px" y="0px"
	 width="33.625px" height="33.625px" viewBox="0 0 33.625 33.625" style="enable-background:new 0 0 33.625 33.625;"
	 xml:space="preserve">
<g>
	<path d="M12.051,3.459l-0.803-0.805c3.066-3.066,8.061-3.066,11.129,0l-0.803,0.805C18.949,0.834,14.676,0.834,12.051,3.459z
		 M20.988,4.045c-2.303-2.303-6.049-2.303-8.352,0l0.803,0.804c1.859-1.855,4.887-1.855,6.745,0L20.988,4.045z M14.07,5.48
		l0.805,0.804c1.068-1.068,2.809-1.068,3.875,0l0.807-0.805C18.043,3.967,15.582,3.967,14.07,5.48z M17.451,19.37
		c1.369,0,2.484-1.115,2.484-2.486c0-1.372-1.115-2.487-2.484-2.487c-1.371,0-2.488,1.115-2.488,2.487
		C14.963,18.252,16.08,19.37,17.451,19.37z M11.045,19.855c1.188,0,2.154-0.966,2.154-2.151c0-1.188-0.968-2.154-2.154-2.154
		c-1.188,0-2.153,0.966-2.153,2.154C8.892,18.89,9.857,19.855,11.045,19.855z M23.156,20.458c0.961,0,1.74-0.781,1.74-1.74
		c0-0.963-0.779-1.742-1.74-1.742s-1.742,0.779-1.742,1.742C21.414,19.676,22.195,20.458,23.156,20.458z M11.058,23.006h2.931h0.053
		h3.394h0.03h3.269h0.176h2.236h0.021h2.412v-1.511c0-0.666-0.479-1.22-1.108-1.336c-0.347,0.312-0.804,0.508-1.304,0.512v-0.002
		c-0.006,0-0.006,0.002-0.013,0.002c-0.002,0-0.006-0.002-0.01-0.002v0.002c-0.502-0.004-0.957-0.197-1.303-0.512
		c-0.412,0.075-0.744,0.348-0.938,0.705v-0.017c0-0.95-0.682-1.738-1.582-1.906c-0.494,0.448-1.146,0.726-1.859,0.729v-0.002
		c-0.006,0-0.01,0.002-0.018,0.002c-0.004,0-0.008-0.002-0.014-0.002v0.002c-0.718-0.004-1.367-0.28-1.858-0.729
		c-0.878,0.162-1.544,0.916-1.579,1.831c-0.145-0.652-0.666-1.164-1.326-1.286c-0.429,0.39-0.992,0.627-1.61,0.632
		c-0.007,0-0.009,0-0.015,0c-0.004,0-0.008,0-0.013,0c-0.62-0.005-1.184-0.242-1.61-0.632c-0.78,0.146-1.373,0.828-1.373,1.648
		v1.869h2.983h0.027L11.058,23.006L11.058,23.006z M33.625,11.206v14.988c0,1.249-1.021,2.272-2.271,2.272H20.309l-3.496,4.804
		l-3.496-4.804H2.271C1.022,28.467,0,27.443,0,26.194V11.206c0-1.25,1.022-2.271,2.271-2.271h29.083
		C32.604,8.934,33.625,9.956,33.625,11.206z M3.408,18.702c0-0.629-0.509-1.139-1.137-1.139s-1.136,0.511-1.136,1.139
		c0,0.625,0.508,1.133,1.136,1.133S3.408,19.327,3.408,18.702z M30.023,10.514H4.203v16.373h7.965l-0.018-0.022h1.482l3.18,4.371
		l3.18-4.371h1.482l-0.019,0.022h8.565L30.023,10.514L30.023,10.514z M31.988,16.302c0-0.151-0.123-0.275-0.275-0.275
		c-0.15,0-0.271,0.124-0.271,0.275v4.795c0,0.153,0.121,0.274,0.271,0.274c0.152,0,0.275-0.121,0.275-0.274V16.302z"/>
</g>
<g>
</g>
<g>
</g>
<g>
</g>
<g>
</g>
<g>
</g>
<g>
</g>
<g>
</g>
<g>
</g>
<g>
</g>
<g>
</g>
<g>
</g>
<g>
</g>
<g>
</g>
<g>
</g>
<g>
</g>
</svg>
