<?xml version="1.0" encoding="iso-8859-1"?>
<!-- Generator: Adobe Illustrator 16.0.0, SVG Export Plug-In . SVG Version: 6.00 Build 0)  -->
<!DOCTYPE svg PUBLIC "-//W3C//DTD SVG 1.1//EN" "http://www.w3.org/Graphics/SVG/1.1/DTD/svg11.dtd">
<svg version="1.1" id="Capa_1" xmlns="http://www.w3.org/2000/svg" xmlns:xlink="http://www.w3.org/1999/xlink" x="0px" y="0px"
	 width="32.754px" height="32.754px" viewBox="0 0 32.754 32.754" style="enable-background:new 0 0 32.754 32.754;"
	 xml:space="preserve">
<g>
	<path d="M15.216,18.414h2.701l-0.227,1.072h-4.236c0.104-0.444,0.285-0.851,0.541-1.217c0.262-0.414,0.764-0.85,1.506-1.311
		c0.646-0.4,1.069-0.689,1.272-0.861c0.31-0.271,0.499-0.566,0.567-0.89c0.058-0.261,0.031-0.479-0.078-0.652
		c-0.106-0.174-0.297-0.261-0.567-0.261c-0.369,0-0.65,0.139-0.845,0.414c-0.11,0.159-0.209,0.414-0.295,0.761h-1.183
		c0.131-0.527,0.315-0.952,0.556-1.275c0.455-0.619,1.097-0.928,1.924-0.928c0.655,0,1.138,0.182,1.446,0.544
		c0.312,0.364,0.401,0.844,0.272,1.441c-0.098,0.457-0.317,0.865-0.666,1.219c-0.229,0.237-0.582,0.502-1.055,0.791l-0.559,0.346
		c-0.351,0.217-0.592,0.373-0.727,0.471C15.437,18.175,15.319,18.287,15.216,18.414z M18.553,18.154l0.228-1.062l3.072-3.757h1.364
		l-0.823,3.867h0.7l-0.199,0.95h-0.7l-0.28,1.332h-1.19l0.282-1.332L18.553,18.154L18.553,18.154z M19.656,17.203h1.55l0.566-2.673
		L19.656,17.203z M20.292,28.455L20.292,28.455c0.004,0,0.006,0,0.01,0v2.087c0,1.216-0.994,2.212-2.211,2.212H3.486
		c-1.217,0-2.212-0.996-2.212-2.212V2.211C1.274,0.994,2.269,0,3.486,0H18.09c1.217,0,2.211,0.994,2.211,2.211L20.29,4.174
		c6.25,0.517,11.19,5.759,11.19,12.141C31.48,22.695,26.54,27.938,20.292,28.455z M8.183,1.862c0,0.148,0.12,0.267,0.268,0.267
		h4.672c0.148,0,0.269-0.118,0.269-0.267s-0.119-0.269-0.269-0.269H8.451C8.303,1.594,8.183,1.714,8.183,1.862z M11.894,30.542
		c0-0.612-0.496-1.104-1.107-1.104c-0.609,0-1.104,0.492-1.104,1.104c0,0.61,0.495,1.106,1.104,1.106
		C11.398,31.648,11.894,31.152,11.894,30.542z M28.48,16.314c0-5.067-4.123-9.19-9.188-9.19c-0.195,0-0.367,0.018-0.559,0.029v-3
		c0.007,0-0.006,0,0-0.001V3.507H2.813v25.152H18.76V28.48l-0.006-0.002c-6.473-0.281-11.656-5.621-11.656-12.164
		c0-0.069,0.006-0.139,0.011-0.207h-1.84l3.277-3.276l3.274,3.274h-1.712c-0.005,0.069-0.011,0.14-0.011,0.209
		c0,5.068,4.123,9.191,9.19,9.191C24.356,25.506,28.48,21.383,28.48,16.314z"/>
</g>
<g>
</g>
<g>
</g>
<g>
</g>
<g>
</g>
<g>
</g>
<g>
</g>
<g>
</g>
<g>
</g>
<g>
</g>
<g>
</g>
<g>
</g>
<g>
</g>
<g>
</g>
<g>
</g>
<g>
</g>
</svg>
