<?xml version="1.0" encoding="iso-8859-1"?>
<!-- Generator: Adobe Illustrator 16.0.0, SVG Export Plug-In . SVG Version: 6.00 Build 0)  -->
<!DOCTYPE svg PUBLIC "-//W3C//DTD SVG 1.1//EN" "http://www.w3.org/Graphics/SVG/1.1/DTD/svg11.dtd">
<svg version="1.1" id="Capa_1" xmlns="http://www.w3.org/2000/svg" xmlns:xlink="http://www.w3.org/1999/xlink" x="0px" y="0px"
	 width="33.624px" height="33.624px" viewBox="0 0 33.624 33.624" style="enable-background:new 0 0 33.624 33.624;"
	 xml:space="preserve">
<g>
	<path d="M12.951,23.915H8.78v-2.61c0-1.152,0.826-2.107,1.919-2.311c0.598,0.543,1.39,0.879,2.26,0.881
		c0.871-0.002,1.661-0.338,2.26-0.881c0.674,0.125,1.245,0.536,1.584,1.104c0.339-0.566,0.911-0.979,1.583-1.104
		c0.598,0.543,1.385,0.877,2.252,0.883v-0.002c0.006,0,0.012,0.002,0.018,0.002c0.008,0,0.012-0.002,0.02-0.002v0.002
		c0.865-0.006,1.653-0.34,2.251-0.883c1.093,0.201,1.919,1.156,1.919,2.309v2.611h-4.17h-0.035h-3.502h-0.669h-3.502L12.951,23.915
		L12.951,23.915z M8.972,19.506c0,0-0.069-0.479-0.069-1.053c-0.033-2.869,1.999-4.304,2.643-4.621l-0.007,0.017
		c0.42-0.229,0.901-0.355,1.412-0.361c0.003,0,0.005,0,0.008,0s0.005,0,0.008,0c0.511,0.006,0.992,0.135,1.412,0.361l-0.007-0.017
		c0.644,0.317,2.676,1.752,2.642,4.621c0,0.573-0.068,1.053-0.068,1.053s-0.857-0.991-1.825-0.926
		c-0.545,0.567-1.308,0.922-2.153,0.926v0.002c-0.003,0-0.005-0.002-0.008-0.002s-0.005,0.002-0.008,0.002v-0.002
		c-0.846-0.004-1.608-0.356-2.154-0.926C9.83,18.515,8.972,19.506,8.972,19.506z M10.51,16.646c0.077,1.285,1.144,2.311,2.448,2.313
		c1.305-0.006,2.371-1.028,2.447-2.313c-0.685-0.515-2.322-1.519-2.424-2.174l-0.023-0.019l-0.023,0.019
		C12.834,15.127,11.195,16.131,10.51,16.646z M17.648,16.501c0-1.662,1.351-3.014,3.012-3.014c1.658,0,3.01,1.352,3.01,3.014
		c0,1.66-1.352,3.01-3.01,3.01C18.999,19.508,17.648,18.161,17.648,16.501z M18.197,16.501c0,1.354,1.104,2.463,2.463,2.463
		c1.283,0,2.339-0.99,2.449-2.246c-0.524-0.482-1.041-1.459-1.141-2.146c-0.126,0.382-2.912,0.939-3.59,1
		C18.262,15.856,18.197,16.17,18.197,16.501z M33.624,11.206v14.988c0,1.249-1.021,2.272-2.271,2.272H20.309l-3.497,4.804
		l-3.496-4.804H2.271C1.022,28.467,0,27.443,0,26.194V11.206c0-1.25,1.022-2.271,2.271-2.271h29.083
		C32.604,8.934,33.624,9.956,33.624,11.206z M3.407,18.702c0-0.629-0.508-1.139-1.136-1.139s-1.136,0.511-1.136,1.139
		c0,0.625,0.508,1.133,1.136,1.133S3.407,19.327,3.407,18.702z M30.023,10.514H4.203v16.373h7.964l-0.017-0.022h1.482l3.18,4.371
		l3.18-4.371h1.482l-0.018,0.022h8.566V10.514L30.023,10.514z M31.988,16.302c0-0.151-0.123-0.275-0.275-0.275
		c-0.15,0-0.273,0.124-0.273,0.275v4.795c0,0.153,0.123,0.274,0.273,0.274c0.152,0,0.275-0.121,0.275-0.274V16.302z M21.574,3.459
		l0.803-0.805c-3.068-3.066-8.062-3.066-11.129,0l0.803,0.805C14.675,0.834,18.949,0.834,21.574,3.459z M20.988,4.045
		c-2.303-2.303-6.049-2.303-8.352,0l0.803,0.804c1.86-1.855,4.887-1.855,6.745,0L20.988,4.045z M14.07,5.48l0.804,0.804
		c1.069-1.068,2.808-1.068,3.876,0l0.805-0.805C18.042,3.967,15.582,3.967,14.07,5.48z"/>
</g>
<g>
</g>
<g>
</g>
<g>
</g>
<g>
</g>
<g>
</g>
<g>
</g>
<g>
</g>
<g>
</g>
<g>
</g>
<g>
</g>
<g>
</g>
<g>
</g>
<g>
</g>
<g>
</g>
<g>
</g>
</svg>
