<?xml version="1.0" encoding="iso-8859-1"?>
<!-- Generator: Adobe Illustrator 16.0.0, SVG Export Plug-In . SVG Version: 6.00 Build 0)  -->
<!DOCTYPE svg PUBLIC "-//W3C//DTD SVG 1.1//EN" "http://www.w3.org/Graphics/SVG/1.1/DTD/svg11.dtd">
<svg version="1.1" id="Capa_1" xmlns="http://www.w3.org/2000/svg" xmlns:xlink="http://www.w3.org/1999/xlink" x="0px" y="0px"
	 width="81.751px" height="81.751px" viewBox="0 0 81.751 81.751" style="enable-background:new 0 0 81.751 81.751;"
	 xml:space="preserve">
<g>
	<path d="M78.863,24.446H49.882V5.522c0-3.04-2.483-5.522-5.52-5.522H7.914C4.875,0,2.393,2.483,2.393,5.522v70.707
		c0,3.038,2.483,5.522,5.521,5.522h36.448c3.036,0,5.52-2.484,5.52-5.522V59.915h13.226h2.964l0.161-0.44L78.286,27.31l1.072-2.866
		L78.863,24.446L78.863,24.446z M31.133,29.305l9.653,10.607L20.99,56.375L31.133,29.305z M33.211,27.011h41.4L47.877,43.117
		L33.211,27.011z M20.306,3.982h11.661c0.368,0,0.67,0.299,0.67,0.668c0,0.366-0.302,0.667-0.67,0.667H20.306
		c-0.368,0-0.666-0.301-0.666-0.667C19.64,4.281,19.938,3.982,20.306,3.982z M26.136,78.994c-1.522,0-2.761-1.234-2.761-2.763
		c0-1.521,1.236-2.76,2.761-2.76s2.764,1.233,2.764,2.76C28.9,77.759,27.661,78.994,26.136,78.994z M46.038,71.537H6.233V8.759
		h39.805v15.689H30.877h-0.49l-0.696,1.854H10.454v4.236h17.651l-1.414,3.772H16.242v3.176h9.259l-1.196,3.191h-6.087v2.58h5.12
		l-6.075,16.209l-0.167,0.447h2.96h25.987L46.038,71.537L46.038,71.537z M23.139,57.355L42.22,41.486l4.441,4.879l8.094-4.879
		l7.191,15.869H23.139z M64.83,56.376l-7.462-16.465l17.605-10.607L64.83,56.376z"/>
</g>
<g>
</g>
<g>
</g>
<g>
</g>
<g>
</g>
<g>
</g>
<g>
</g>
<g>
</g>
<g>
</g>
<g>
</g>
<g>
</g>
<g>
</g>
<g>
</g>
<g>
</g>
<g>
</g>
<g>
</g>
</svg>
