<?xml version="1.0" encoding="iso-8859-1"?>
<!-- Generator: Adobe Illustrator 16.0.0, SVG Export Plug-In . SVG Version: 6.00 Build 0)  -->
<!DOCTYPE svg PUBLIC "-//W3C//DTD SVG 1.1//EN" "http://www.w3.org/Graphics/SVG/1.1/DTD/svg11.dtd">
<svg version="1.1" id="Capa_1" xmlns="http://www.w3.org/2000/svg" xmlns:xlink="http://www.w3.org/1999/xlink" x="0px" y="0px"
	 width="81.749px" height="81.749px" viewBox="0 0 81.749 81.749" style="enable-background:new 0 0 81.749 81.749;"
	 xml:space="preserve">
<g>
	<path d="M69.723,21.821c-1.344-1.432-3.139-2.256-5.101-2.438V5.519C64.623,2.485,62.143,0,59.1,0H22.655
		c-3.037,0-5.52,2.485-5.52,5.519v13.863c-1.959,0.182-3.756,1.007-5.102,2.438c-1.523,1.622-2.282,3.764-2.138,6.029l0.505,7.942
		c0.245,3.856,3.099,7.083,6.729,8.037v32.4c0,3.043,2.483,5.52,5.519,5.52h36.448c3.041,0,5.521-2.481,5.521-5.52v-32.4
		c3.629-0.954,6.483-4.178,6.729-8.034l0.504-7.943C72.001,25.584,71.242,23.442,69.723,21.821z M35.046,3.98h11.661
		c0.37,0,0.669,0.299,0.669,0.668c0,0.368-0.299,0.669-0.669,0.669H35.046c-0.368,0-0.668-0.301-0.668-0.669
		C34.377,4.279,34.68,3.98,35.046,3.98z M60.784,8.759v10.549H50.622c-2.271,0-4.359,0.89-5.881,2.513
		c-1.359,1.448-2.069,3.322-2.112,5.314h-3.497c-0.042-1.995-0.751-3.866-2.111-5.314c-1.521-1.623-3.611-2.513-5.882-2.513H20.975
		V8.759H60.784z M13.389,35.603l-0.504-7.943c-0.091-1.431,0.381-2.777,1.331-3.793c0.951-1.011,2.266-1.572,3.7-1.572h13.221
		c1.436,0,2.749,0.561,3.7,1.572c0.95,1.016,1.422,2.362,1.331,3.793l-0.506,7.943c-0.194,3.061-2.853,5.554-5.921,5.554H19.31
		C16.246,41.157,13.584,38.664,13.389,35.603z M40.879,78.994c-1.525,0-2.764-1.236-2.764-2.765s1.236-2.761,2.764-2.761
		c1.527,0,2.764,1.232,2.764,2.761S42.401,78.994,40.879,78.994z M20.975,71.535V44.148h8.766c4.618,0,8.615-3.748,8.907-8.356
		l0.316-4.966h3.827l0.314,4.966c0.294,4.608,4.291,8.356,8.907,8.356h8.767v27.387H20.975z M68.366,35.603
		c-0.194,3.061-2.854,5.554-5.922,5.554H52.015c-3.07,0-5.726-2.493-5.922-5.554l-0.504-7.943c-0.092-1.431,0.381-2.777,1.33-3.793
		c0.951-1.011,2.267-1.572,3.699-1.572h13.219c1.438,0,2.749,0.561,3.7,1.572c0.951,1.016,1.424,2.362,1.332,3.793L68.366,35.603z
		 M29.569,56.324h22.619v3.232H29.569V56.324z"/>
</g>
<g>
</g>
<g>
</g>
<g>
</g>
<g>
</g>
<g>
</g>
<g>
</g>
<g>
</g>
<g>
</g>
<g>
</g>
<g>
</g>
<g>
</g>
<g>
</g>
<g>
</g>
<g>
</g>
<g>
</g>
</svg>
