<?xml version="1.0" encoding="iso-8859-1"?>
<!-- Generator: Adobe Illustrator 16.0.0, SVG Export Plug-In . SVG Version: 6.00 Build 0)  -->
<!DOCTYPE svg PUBLIC "-//W3C//DTD SVG 1.1//EN" "http://www.w3.org/Graphics/SVG/1.1/DTD/svg11.dtd">
<svg version="1.1" id="Capa_1" xmlns="http://www.w3.org/2000/svg" xmlns:xlink="http://www.w3.org/1999/xlink" x="0px" y="0px"
	 width="29.999px" height="29.999px" viewBox="0 0 29.999 29.999" style="enable-background:new 0 0 29.999 29.999;"
	 xml:space="preserve">
<g>
	<path d="M12.998,6.235l2.961,2.962l7.639-7.636c0.48-0.48,1.266-0.48,1.748,0.001l2.768,2.77c0.48,0.479,0.48,1.267,0,1.748
		l-7.635,7.634l3.023,3.026c0.479,0.479,0.319,0.93-0.355,0.995l-11.155,1.116c-0.675,0.066-1.173-0.43-1.104-1.105l1.116-11.154
		C12.067,5.915,12.518,5.755,12.998,6.235z M25.045,13.439l4.397,4.398c0.742,0.74,0.742,1.955,0,2.697l-8.907,8.907
		c-0.74,0.742-1.957,0.742-2.697,0.001L0.557,12.161c-0.742-0.741-0.742-1.956,0-2.697l8.906-8.907
		c0.742-0.742,1.957-0.742,2.699-0.001l4.221,4.222l-0.938,0.939l-3.432-3.431l-9.729,9.729l15.342,15.342l9.729-9.728l-3.25-3.251
		L25.045,13.439z M4.559,7.734c0.09,0.091,0.236,0.091,0.326-0.001l2.85-2.848c0.091-0.092,0.091-0.237,0-0.327
		c-0.09-0.091-0.235-0.091-0.325,0L4.559,7.408C4.469,7.499,4.466,7.646,4.559,7.734z M24.313,22.967
		c-0.373-0.373-0.978-0.373-1.351,0s-0.373,0.977,0,1.35c0.373,0.372,0.978,0.372,1.351,0
		C24.688,23.943,24.688,23.338,24.313,22.967z"/>
</g>
<g>
</g>
<g>
</g>
<g>
</g>
<g>
</g>
<g>
</g>
<g>
</g>
<g>
</g>
<g>
</g>
<g>
</g>
<g>
</g>
<g>
</g>
<g>
</g>
<g>
</g>
<g>
</g>
<g>
</g>
</svg>
