<?xml version="1.0" encoding="iso-8859-1"?>
<!-- Generator: Adobe Illustrator 16.0.0, SVG Export Plug-In . SVG Version: 6.00 Build 0)  -->
<!DOCTYPE svg PUBLIC "-//W3C//DTD SVG 1.1//EN" "http://www.w3.org/Graphics/SVG/1.1/DTD/svg11.dtd">
<svg version="1.1" id="Capa_1" xmlns="http://www.w3.org/2000/svg" xmlns:xlink="http://www.w3.org/1999/xlink" x="0px" y="0px"
	 width="78.564px" height="78.564px" viewBox="0 0 78.564 78.564" style="enable-background:new 0 0 78.564 78.564;"
	 xml:space="preserve">
<g>
	<path d="M73.829,4.246H42.592c-2.603,0-4.733,2.131-4.733,4.732v2.647c-1.016-1.234-2.938-1.667-5.532-0.32
		C27.905,13.601,8.717,24.589,8.697,24.6C5.167,26.053-0.002,30.738,0,41.8c-0.002,17.737,15.823,17.737,15.823,17.737h22.036V69.59
		c0,2.601,2.13,4.729,4.733,4.729h31.237c2.604,0,4.735-2.128,4.735-4.729V8.979C78.564,6.377,76.434,4.246,73.829,4.246z
		 M37.859,24.065h-8.851c3.506-3.286,7.304-5.499,8.851-7.621V24.065z M53.215,7.659h9.993c0.315,0,0.57,0.254,0.57,0.575
		c0,0.315-0.255,0.57-0.57,0.57h-9.993c-0.316,0-0.574-0.255-0.574-0.57C52.641,7.913,52.898,7.659,53.215,7.659z M58.211,71.957
		c-1.308,0-2.363-1.061-2.363-2.367c0-1.31,1.056-2.37,2.363-2.37c1.312,0,2.37,1.061,2.37,2.37
		C60.581,70.896,59.518,71.957,58.211,71.957z M75.271,65.562H41.152v-6.022h1.212l0.004-0.014l19.991-0.002
		c2.069,0,3.741-1.675,3.741-3.743v-0.411c0-2.064-1.672-3.74-3.741-3.74H42.364v-1.022h27.317c2.069,0,3.741-1.677,3.746-3.745
		l-0.005-0.411c0-2.066-1.672-3.745-3.741-3.745H42.364V41.46l32.177,0.004c0.251,0,0.495-0.029,0.729-0.077V65.562z M75.271,33.64
		c-0.237-0.047-0.479-0.073-0.729-0.073H42.364l0.004-1.606h24.33c2.066,0,3.746-1.675,3.743-3.748l0.003-0.408
		c0-2.069-1.68-3.742-3.746-3.742h-24.33h-1.216V11.751h34.118V33.64z"/>
</g>
<g>
</g>
<g>
</g>
<g>
</g>
<g>
</g>
<g>
</g>
<g>
</g>
<g>
</g>
<g>
</g>
<g>
</g>
<g>
</g>
<g>
</g>
<g>
</g>
<g>
</g>
<g>
</g>
<g>
</g>
</svg>
