<?xml version="1.0" encoding="iso-8859-1"?>
<!-- Generator: Adobe Illustrator 16.0.0, SVG Export Plug-In . SVG Version: 6.00 Build 0)  -->
<!DOCTYPE svg PUBLIC "-//W3C//DTD SVG 1.1//EN" "http://www.w3.org/Graphics/SVG/1.1/DTD/svg11.dtd">
<svg version="1.1" id="Capa_1" xmlns="http://www.w3.org/2000/svg" xmlns:xlink="http://www.w3.org/1999/xlink" x="0px" y="0px"
	 width="81.749px" height="81.749px" viewBox="0 0 81.749 81.749" style="enable-background:new 0 0 81.749 81.749;"
	 xml:space="preserve">
<g>
	<path d="M59.099,0H22.65c-3.036,0-5.519,2.485-5.519,5.522v70.707c0,3.043,2.483,5.52,5.519,5.52h36.449
		c3.038,0,5.52-2.481,5.52-5.52V5.522C64.618,2.485,62.137,0,59.099,0z M35.044,3.98h11.661c0.367,0,0.668,0.299,0.668,0.668
		c0,0.368-0.301,0.669-0.668,0.669H35.044c-0.369,0-0.668-0.301-0.668-0.669C34.376,4.279,34.676,3.98,35.044,3.98z M40.875,78.994
		c-1.525,0-2.763-1.236-2.763-2.765s1.236-2.761,2.763-2.761c1.528,0,2.762,1.232,2.762,2.761S42.399,78.994,40.875,78.994z
		 M60.777,71.535H20.974V8.759h39.804V71.535z M37.754,30.394c0,1.856-1.507,3.361-3.359,3.361c-1.857,0-3.361-1.507-3.361-3.361
		c0-1.855,1.507-3.359,3.361-3.359C36.25,27.033,37.754,28.536,37.754,30.394z M50.715,30.394c0,1.856-1.503,3.361-3.359,3.361
		c-1.853,0-3.36-1.507-3.36-3.361c0-1.855,1.508-3.359,3.36-3.359C49.212,27.035,50.715,28.536,50.715,30.394z M40.875,40.525
		c-8.023,0-14.527,3.596-14.527,8.032c0,4.432,6.506,8.027,14.527,8.027c8.023,0,14.526-3.596,14.526-8.027
		C55.4,44.121,48.897,40.525,40.875,40.525z M40.875,45.197c-4.646,0-8.995,0.685-12.769,1.861
		c2.461-2.495,7.257-4.197,12.769-4.197c5.513,0,10.308,1.702,12.77,4.197C49.869,45.881,45.521,45.197,40.875,45.197z"/>
</g>
<g>
</g>
<g>
</g>
<g>
</g>
<g>
</g>
<g>
</g>
<g>
</g>
<g>
</g>
<g>
</g>
<g>
</g>
<g>
</g>
<g>
</g>
<g>
</g>
<g>
</g>
<g>
</g>
<g>
</g>
</svg>
