<?xml version="1.0" encoding="iso-8859-1"?>
<!-- Generator: Adobe Illustrator 16.0.0, SVG Export Plug-In . SVG Version: 6.00 Build 0)  -->
<!DOCTYPE svg PUBLIC "-//W3C//DTD SVG 1.1//EN" "http://www.w3.org/Graphics/SVG/1.1/DTD/svg11.dtd">
<svg version="1.1" id="Capa_1" xmlns="http://www.w3.org/2000/svg" xmlns:xlink="http://www.w3.org/1999/xlink" x="0px" y="0px"
	 width="37.882px" height="37.882px" viewBox="0 0 37.882 37.882" style="enable-background:new 0 0 37.882 37.882;"
	 xml:space="preserve">
<g>
	<path d="M32.667,16.136c0-0.002,0-0.002,0-0.004s0-0.002,0-0.004c-0.001-4.979-4.054-9.029-9.031-9.029l0,0l0,0l0,0
		c-4.981,0-9.033,4.054-9.033,9.033l0,0l0,0l0,0c0,4.979,4.052,9.031,9.033,9.031l0,0l0,0l0,0
		C28.613,25.163,32.664,21.113,32.667,16.136z M23.635,24.204L23.635,24.204c-0.925,0-1.927-1.763-2.402-4.56
		c0.791,0.084,1.601,0.129,2.402,0.129c0.801,0,1.612-0.045,2.403-0.129C25.562,22.441,24.561,24.204,23.635,24.204z M23.635,18.814
		c-0.904,0-1.755-0.053-2.542-0.145c-0.091-0.785-0.144-1.637-0.144-2.541c0-0.904,0.053-1.755,0.144-2.541
		c0.787-0.092,1.638-0.144,2.542-0.144s1.755,0.052,2.542,0.144c0.091,0.787,0.144,1.637,0.144,2.541
		c0,0.904-0.053,1.756-0.144,2.541C25.39,18.764,24.539,18.814,23.635,18.814z M15.561,16.132c0-0.926,1.762-1.929,4.558-2.402
		c-0.082,0.789-0.127,1.601-0.127,2.402c0,0.801,0.045,1.611,0.127,2.401C17.323,18.059,15.561,17.056,15.561,16.132L15.561,16.132z
		 M23.635,8.058L23.635,8.058c0.926,0,1.928,1.762,2.403,4.559c-0.791-0.084-1.603-0.128-2.403-0.128
		c-0.802,0-1.611,0.044-2.402,0.128C21.708,9.819,22.71,8.058,23.635,8.058z M27.148,13.728c2.795,0.476,4.557,1.476,4.56,2.4v0.002
		c0,0.002,0,0.002,0,0.004c-0.003,0.924-1.765,1.925-4.56,2.398c0.086-0.79,0.127-1.602,0.127-2.402
		C27.275,15.33,27.234,14.519,27.148,13.728z M31.488,14.263c-1.035-0.726-2.658-1.236-4.467-1.519
		c-0.281-1.812-0.793-3.433-1.518-4.468C28.458,8.98,30.785,11.31,31.488,14.263z M21.767,8.277
		c-0.726,1.036-1.235,2.657-1.519,4.468c-1.81,0.281-3.431,0.793-4.467,1.52C16.484,11.31,18.813,8.98,21.767,8.277z M15.782,17.999
		c1.036,0.726,2.657,1.235,4.467,1.519c0.282,1.812,0.793,3.433,1.519,4.469C18.813,23.281,16.484,20.952,15.782,17.999z
		 M25.503,23.984c0.726-1.036,1.235-2.657,1.517-4.469c1.811-0.281,3.434-0.793,4.469-1.519
		C30.785,20.952,28.458,23.281,25.503,23.984z M24.197,1.792c-0.008-0.043-0.022-0.084-0.033-0.126
		c-0.023-0.092-0.049-0.182-0.084-0.269c-0.02-0.047-0.041-0.09-0.063-0.135c-0.036-0.078-0.077-0.153-0.122-0.228
		c-0.027-0.043-0.058-0.084-0.088-0.125c-0.051-0.067-0.104-0.133-0.162-0.194c-0.033-0.037-0.068-0.074-0.104-0.107
		c-0.063-0.061-0.13-0.113-0.2-0.165c-0.038-0.029-0.075-0.06-0.116-0.085c-0.079-0.053-0.163-0.096-0.247-0.137
		c-0.037-0.018-0.072-0.037-0.111-0.053c-0.123-0.052-0.25-0.093-0.383-0.121c-0.004,0-0.006-0.002-0.011-0.002
		C22.328,0.017,22.18,0,22.029,0H7.427C6.21,0,5.215,0.995,5.215,2.212v28.329c0,1.218,0.995,2.214,2.212,2.214h1.195v5.127
		l5.126-5.127h8.279c0.18,0,0.351-0.026,0.518-0.065c0.107-0.026,0.214-0.06,0.314-0.101c0.047-0.021,0.09-0.045,0.135-0.065
		c0.076-0.037,0.152-0.076,0.225-0.121c0.046-0.03,0.088-0.062,0.131-0.096c0.064-0.05,0.127-0.101,0.186-0.154
		c0.041-0.037,0.078-0.076,0.115-0.117c0.056-0.059,0.105-0.12,0.153-0.186c0.032-0.043,0.063-0.089,0.093-0.134
		c0.045-0.069,0.084-0.146,0.119-0.221c0.022-0.047,0.047-0.093,0.066-0.142c0.033-0.086,0.061-0.176,0.083-0.266
		c0.011-0.043,0.024-0.084,0.034-0.127c0.025-0.138,0.043-0.277,0.043-0.421l0,0v-2.004v-1.964
		c-0.201,0.011-0.402,0.029-0.605,0.029c-0.316,0-0.625-0.021-0.934-0.047v1.979v0.122h-0.231v0.002l-6.78,0.018l-5.581,5.584
		v-5.584l-3.356-0.018V3.507h15.948v0.117v2.075c0.31-0.026,0.617-0.047,0.935-0.047c0.203,0,0.404,0.021,0.604,0.03v-2.06V2.208
		C24.24,2.068,24.224,1.929,24.197,1.792z M17.061,2.132H12.39c-0.146,0-0.268-0.119-0.268-0.268c0-0.149,0.121-0.271,0.268-0.271
		h4.671c0.15,0,0.27,0.121,0.27,0.271C17.331,2.011,17.211,2.132,17.061,2.132z"/>
</g>
<g>
</g>
<g>
</g>
<g>
</g>
<g>
</g>
<g>
</g>
<g>
</g>
<g>
</g>
<g>
</g>
<g>
</g>
<g>
</g>
<g>
</g>
<g>
</g>
<g>
</g>
<g>
</g>
<g>
</g>
</svg>
