<?xml version="1.0" encoding="iso-8859-1"?>
<!-- Generator: Adobe Illustrator 16.0.0, SVG Export Plug-In . SVG Version: 6.00 Build 0)  -->
<!DOCTYPE svg PUBLIC "-//W3C//DTD SVG 1.1//EN" "http://www.w3.org/Graphics/SVG/1.1/DTD/svg11.dtd">
<svg version="1.1" id="Capa_1" xmlns="http://www.w3.org/2000/svg" xmlns:xlink="http://www.w3.org/1999/xlink" x="0px" y="0px"
	 width="34.546px" height="34.546px" viewBox="0 0 34.546 34.546" style="enable-background:new 0 0 34.546 34.546;"
	 xml:space="preserve">
<g>
	<path d="M34.372,13.115c-0.043,0.215-0.045,0.441-0.13,0.646c-0.497,1.202-1.429,2.197-2.116,3.306
		c-0.885,1.413-8.405-1.635-7.435-3.521c0.364-0.698,1.788-2.626,1.896-3.401c0.099-0.692-0.817-1.233-1.664-1.302
		c-2.231-0.182-5.082-0.018-7.452-0.003v0.003c-0.063,0-0.133-0.002-0.197-0.002c-0.065,0-0.135,0.002-0.197,0.002V8.84
		c-2.37-0.015-5.221-0.179-7.453,0.003c-0.847,0.068-1.763,0.609-1.665,1.302c0.107,0.775,1.531,2.703,1.896,3.401
		c0.971,1.887-6.551,4.935-7.436,3.521c-0.688-1.108-1.617-2.104-2.115-3.306c-0.084-0.204-0.087-0.431-0.13-0.646
		C-0.929,8.185,3.323,3.154,9.726,2.639c2.446-0.197,4.897-0.31,7.351-0.354V2.272c0.066,0.001,0.131,0.005,0.197,0.006
		c0.065-0.001,0.13-0.005,0.197-0.006v0.012c2.453,0.044,4.904,0.156,7.351,0.354C31.223,3.154,35.475,8.185,34.372,13.115z
		 M29.974,30.124c0.071,1.183-0.703,2.149-1.722,2.149H6.292c-1.017,0-1.792-0.968-1.722-2.149l0.641-10.783
		c2.327-0.545,5.301-1.969,6.38-3.738c0.602-0.984,0.666-2.094,0.171-3.055c-0.125-0.24-0.359-0.613-0.628-1.032
		c0-0.001,0-0.001,0-0.002c-0.008-0.019-0.008-0.019-0.014-0.032h11.953c-0.007,0.017-0.008,0.02-0.019,0.044
		c-0.151,0.36-0.2,0.638-0.174,0.847c-0.033,0.061-0.082,0.137-0.107,0.188c-0.488,0.948-0.424,2.058,0.177,3.042
		c1.079,1.768,4.051,3.191,6.378,3.736L29.974,30.124z M18.022,22.618c0.86-0.312,1.478-1.128,1.478-2.094
		c0-1.23-0.996-2.229-2.228-2.229c-1.23,0-2.228,0.998-2.228,2.229c0,0.966,0.616,1.781,1.478,2.094l-1.353,3.935h4.205
		L18.022,22.618z"/>
</g>
<g>
</g>
<g>
</g>
<g>
</g>
<g>
</g>
<g>
</g>
<g>
</g>
<g>
</g>
<g>
</g>
<g>
</g>
<g>
</g>
<g>
</g>
<g>
</g>
<g>
</g>
<g>
</g>
<g>
</g>
</svg>
