<?xml version="1.0" encoding="iso-8859-1"?>
<!-- Generator: Adobe Illustrator 16.0.0, SVG Export Plug-In . SVG Version: 6.00 Build 0)  -->
<!DOCTYPE svg PUBLIC "-//W3C//DTD SVG 1.1//EN" "http://www.w3.org/Graphics/SVG/1.1/DTD/svg11.dtd">
<svg version="1.1" id="Capa_1" xmlns="http://www.w3.org/2000/svg" xmlns:xlink="http://www.w3.org/1999/xlink" x="0px" y="0px"
	 width="33.285px" height="33.285px" viewBox="0 0 33.285 33.285" style="enable-background:new 0 0 33.285 33.285;"
	 xml:space="preserve">
<g>
	<path d="M13.876,33.285h-2.307H5.474l0,0c-0.205,0-0.383-0.1-0.492-0.254c-0.006-0.004-0.01-0.008-0.014-0.014
		c-0.002-0.004-0.004-0.009-0.006-0.013c-0.062-0.094-0.098-0.207-0.098-0.33l0,0v-0.53v-1.75L13.876,33.285z M15.746,17.834
		l-4.776-1.531l-6.851-2.195l0,0c-0.379-0.123-0.686,0.086-0.686,0.465l0,0v0.598v2.242v1.263v2.241v1.263v2.241v1.263v2.242v0.598
		l0,0c0,0.139,0.041,0.277,0.111,0.406c0.002,0.004,0.004,0.01,0.006,0.014c0.004,0.01,0.01,0.018,0.014,0.023
		c0.125,0.211,0.326,0.389,0.555,0.461l0,0l6.851,2.196l4.776,1.531c0.379,0.12,0.685-0.089,0.685-0.468V18.738
		C16.429,18.359,16.125,17.955,15.746,17.834z M19.412,33.285h2.309h6.096l0,0c0.205,0,0.384-0.1,0.492-0.254
		c0.004-0.004,0.01-0.008,0.014-0.014c0.003-0.004,0.005-0.009,0.007-0.013c0.062-0.094,0.098-0.207,0.098-0.33l0,0v-0.53v-1.75
		L19.412,33.285z M16.857,18.738v13.949c0,0.379,0.307,0.588,0.686,0.467l4.777-1.531l6.85-2.196l0,0
		c0.229-0.071,0.432-0.25,0.557-0.461c0.004-0.009,0.01-0.017,0.015-0.022c0.002-0.004,0.004-0.01,0.006-0.014
		c0.069-0.13,0.11-0.271,0.11-0.406l0,0v-0.599v-2.241V24.42v-2.24v-1.264v-2.241v-1.263V15.17v-0.598l0,0
		c0-0.379-0.309-0.588-0.688-0.465l0,0l-6.85,2.195l-4.777,1.531C17.164,17.955,16.857,18.359,16.857,18.738z M22.853,0.301
		c-2.014-0.162-4.028-0.254-6.045-0.291V0c-0.056,0.002-0.108,0.006-0.163,0.004c-0.055,0-0.107-0.002-0.162-0.004v0.01
		c-2.018,0.037-4.033,0.129-6.045,0.293C5.171,0.725,1.673,4.861,2.582,8.918c0.037,0.176,0.037,0.363,0.107,0.531
		c0.408,0.987,1.176,1.805,1.738,2.717c0.729,1.164,6.914-1.344,6.117-2.896c-0.301-0.574-1.471-2.16-1.562-2.795
		C8.9,5.905,9.655,5.457,10.353,5.403c1.834-0.15,10.746-0.148,12.581,0c0.695,0.055,1.449,0.5,1.368,1.072
		c-0.089,0.637-1.259,2.221-1.56,2.795c-0.8,1.553,5.387,4.059,6.113,2.896c0.565-0.91,1.333-1.73,1.741-2.719
		c0.068-0.166,0.07-0.354,0.105-0.529C31.613,4.863,28.117,0.725,22.853,0.301z"/>
</g>
<g>
</g>
<g>
</g>
<g>
</g>
<g>
</g>
<g>
</g>
<g>
</g>
<g>
</g>
<g>
</g>
<g>
</g>
<g>
</g>
<g>
</g>
<g>
</g>
<g>
</g>
<g>
</g>
<g>
</g>
</svg>
