<?xml version="1.0" encoding="iso-8859-1"?>
<!-- Generator: Adobe Illustrator 16.0.0, SVG Export Plug-In . SVG Version: 6.00 Build 0)  -->
<!DOCTYPE svg PUBLIC "-//W3C//DTD SVG 1.1//EN" "http://www.w3.org/Graphics/SVG/1.1/DTD/svg11.dtd">
<svg version="1.1" id="Capa_1" xmlns="http://www.w3.org/2000/svg" xmlns:xlink="http://www.w3.org/1999/xlink" x="0px" y="0px"
	 width="35.001px" height="35.001px" viewBox="0 0 35.001 35.001" style="enable-background:new 0 0 35.001 35.001;"
	 xml:space="preserve">
<g>
	<path d="M31.563,8.919c-0.036,0.176-0.037,0.363-0.106,0.53c-0.408,0.987-1.175,1.808-1.741,2.718
		c-0.727,1.163-6.913-1.343-6.112-2.896c0.3-0.574,1.471-2.158,1.559-2.795c0.081-0.572-0.671-1.018-1.37-1.072
		c-1.834-0.148-10.745-0.149-12.58,0C10.514,5.459,9.759,5.905,9.84,6.476c0.09,0.635,1.26,2.221,1.561,2.795
		c0.797,1.554-5.388,4.061-6.117,2.896c-0.563-0.913-1.33-1.729-1.739-2.718c-0.07-0.167-0.07-0.355-0.107-0.531
		c-0.907-4.056,2.59-8.192,7.855-8.615c2.012-0.163,4.028-0.256,6.045-0.292v-0.01c0.055,0.001,0.108,0.004,0.163,0.004
		C17.555,0.007,17.609,0.002,17.664,0v0.01c2.018,0.037,4.032,0.13,6.045,0.292C28.974,0.728,32.47,4.864,31.563,8.919z
		 M25.136,17.758l-0.104,0.154l0.676,0.871l0.392-0.24c-0.088-0.029-0.167-0.083-0.234-0.17
		C25.864,18.373,25.344,18.016,25.136,17.758z M29.151,23.352c0,6.435-5.216,11.649-11.65,11.649
		c-6.434,0-11.651-5.217-11.651-11.649c0-6.434,5.217-11.651,11.651-11.651C23.936,11.699,29.151,16.917,29.151,23.352z
		 M9.801,16.137c0.101-0.051,0.202-0.093,0.303-0.12c0,0,0.974-0.102,0.567-0.711C10.365,15.565,10.074,15.843,9.801,16.137z
		 M11.404,24.625c0,0-0.155-0.514-0.937-0.514c0,0-0.468-0.512-0.884-0.512c0,0-0.157-1.437-0.936-1.127
		c0,0-0.105-0.563-0.417-0.514c0,0-0.208-0.562-0.573-0.408l-0.416-0.259c0,0-0.038,0.065-0.097,0.169
		c-0.102,0.586-0.158,1.188-0.158,1.801c0,2.979,1.249,5.662,3.246,7.564c0.004-0.086,0.027-0.174,0.078-0.258
		c0,0,0.209-0.408-0.052-0.77c0,0,0.261-0.355,0.261-0.82c0,0-0.261-0.818,0.416-0.92c0,0,0.936,0,0.468-1.643
		c0,0-0.053-0.462,0.313-0.923C11.717,25.497,12.081,24.521,11.404,24.625z M12.031,14.321c-0.468,0.285-0.912,0.604-1.327,0.957
		c0.24,0.023,1.231,0.096,1.298-0.469L12.031,14.321z M26.157,18.561c0.195,0.047,0.409-0.01,0.566-0.072
		c-1.589-3.082-4.664-5.273-8.28-5.619c-0.834,0.812,0.19,1.148,0.19,1.148c0.365,0.256,1.143-0.205,1.143-0.205
		c0.313,0.357-0.884,0.871-0.884,0.871c-0.676,0.051-1.195,0.41-1.195,0.41c-0.312-0.461-0.625-0.103-0.625-0.103
		c-0.258,0.307,0.366,0.463,0.366,0.463c0.416,0.1,0.311,0.356,0.155,0.511c-0.155,0.153-0.833,0-0.833,0
		c-0.362,0.205-0.104,0.923-0.104,0.923h0.312c1.039,0.308,1.091-0.462,1.091-0.462c0.312,0,0.417-0.514,0.417-0.514
		c0.26,0.258,0.884-0.152,0.884-0.152c0.052,0.205,0.364,0.512,0.364,0.512c0.468,0.154,0.571,0.359,0.571,0.359
		c-0.468,0.104-0.052,0.309-0.052,0.309c0.624-0.258,0.155-0.614,0.155-0.614c-1.195-0.564-0.676-0.718-0.676-0.718
		c0.209,0.357,1.042,0.512,1.042,0.512c0.103,0.668,0.416,0.77,0.416,0.77c0.362,0.153,0.467-0.154,0.467-0.154
		c-0.364-0.103-0.416-0.408-0.416-0.408c-0.104-0.307,0.365-0.104,0.365-0.104c0.416,0.614,1.301,0.564,1.301,0.564
		c0.57-0.053,0.415,0.973,0.415,0.973c-0.624,0.41-1.821-0.309-1.821-0.309c0.105,0.359-0.363,0.41-0.363,0.41
		c-0.471-0.562-1.196-0.309-1.196-0.309c0.154-0.256-0.104-0.665-0.104-0.665c-0.417-0.103-1.092,0.103-1.092,0.103
		c-0.521,0.204-1.508,0.256-1.508,0.256c-0.469,0-0.78,0.923-0.78,0.923c-1.041,0.462-1.144,1.383-1.144,1.383
		c0,0.565-0.104,1.129-0.104,1.129c-0.364,0.562,0.675,1.178,0.675,1.178c0.625,1.182,1.405,0.668,1.405,0.668
		c0.624,0.258,1.977-0.256,1.977-0.256c0.155,0.514,0.884,0.357,0.884,0.357c0.26,0.154,0.155,0.667,0.155,0.667
		c-0.362,0.613,0.312,1.179,0.312,1.179c1.041,1.18,0.363,1.485,0.363,1.485c-0.728,0.718-0.258,1.333-0.258,1.333
		c0.52,1.129,0.52,2.093,0.52,2.093c1.768,0.255,2.392-1.067,2.392-1.067c0.572,0,0.572-0.512,0.572-0.512
		c0-0.615,0.364-0.873,0.364-0.873c0.833-0.562,0.677-1.689,0.677-1.689c-0.104-0.666,0.156-1.28,0.156-1.28
		c0.988-1.128,0.936-2.817,0.936-2.817c-0.415,0.205-0.676,0.051-0.676,0.051c-0.938-0.924-2.081-2.922-2.081-2.922
		c1.092,0.461,1.977,2.615,1.977,2.615c0.625-0.311,0.833-0.873,0.833-0.873C26.984,19.468,26.316,18.723,26.157,18.561z"/>
</g>
<g>
</g>
<g>
</g>
<g>
</g>
<g>
</g>
<g>
</g>
<g>
</g>
<g>
</g>
<g>
</g>
<g>
</g>
<g>
</g>
<g>
</g>
<g>
</g>
<g>
</g>
<g>
</g>
<g>
</g>
</svg>
