<?xml version="1.0" encoding="iso-8859-1"?>
<!-- Generator: Adobe Illustrator 16.0.0, SVG Export Plug-In . SVG Version: 6.00 Build 0)  -->
<!DOCTYPE svg PUBLIC "-//W3C//DTD SVG 1.1//EN" "http://www.w3.org/Graphics/SVG/1.1/DTD/svg11.dtd">
<svg version="1.1" id="Capa_1" xmlns="http://www.w3.org/2000/svg" xmlns:xlink="http://www.w3.org/1999/xlink" x="0px" y="0px"
	 width="35px" height="35px" viewBox="0 0 35 35" style="enable-background:new 0 0 35 35;" xml:space="preserve">
<g>
	<path d="M28.928,17.914l-1.293-1.293c4.226-4.227,4.225-11.103-0.002-15.328L28.928,0C33.867,4.938,33.867,12.976,28.928,17.914z
		 M26.69,2.236l-1.293,1.293c2.991,2.993,2.991,7.863,0,10.854l1.293,1.295C30.396,11.973,30.396,5.941,26.69,2.236z M24.382,4.543
		l-1.293,1.293c1.722,1.722,1.722,4.521,0,6.24l1.294,1.293C26.816,10.938,26.816,6.978,24.382,4.543z M6.072,17.914l1.293-1.293
		C3.139,12.395,3.14,5.519,7.367,1.293L6.072,0C1.132,4.938,1.132,12.976,6.072,17.914z M8.308,15.679l1.294-1.295
		c-2.992-2.991-2.992-7.861,0-10.854L8.308,2.236C4.602,5.941,4.602,11.973,8.308,15.679z M10.616,13.371l1.294-1.295
		c-1.72-1.72-1.72-4.519,0.001-6.238l-1.294-1.293C8.183,6.978,8.183,10.938,10.616,13.371z M12.811,22.23l4.479-3.951l-2.885-2.545
		l-1.958,6.176L12.811,22.23z M16.085,10.438l1.205-1.062l-0.679-0.6L16.085,10.438z M12.811,23.23l-1.086,0.959L8.297,35h0.134
		l8.859-7.814L12.811,23.23z M15.645,11.828l-0.991,3.125l3.203,2.826l3.246-2.863l-0.859-2.935l-2.387-2.106L15.645,11.828z
		 M19.85,10.632l-0.585-2l-0.841,0.741L19.85,10.632z M17.857,8.873l1.175-1.035l-1.019-3.481L16.86,7.995L17.857,8.873z
		 M17.857,27.684L9.565,35h3.077c0.151-2.641,2.319-4.738,4.996-4.738c2.677,0,4.845,2.1,4.997,4.738h3.515L17.857,27.684z
		 M23.757,23.984l-0.854-0.754l-4.479,3.953l8.449,7.455L23.757,23.984z M18.424,18.279l4.479,3.951l0.271-0.238l-1.839-6.281
		L18.424,18.279z M22.335,22.73l-4.479-3.951l-4.479,3.951l4.479,3.953L22.335,22.73z"/>
</g>
<g>
</g>
<g>
</g>
<g>
</g>
<g>
</g>
<g>
</g>
<g>
</g>
<g>
</g>
<g>
</g>
<g>
</g>
<g>
</g>
<g>
</g>
<g>
</g>
<g>
</g>
<g>
</g>
<g>
</g>
</svg>
