<?xml version="1.0" encoding="iso-8859-1"?>
<!-- Generator: Adobe Illustrator 16.0.0, SVG Export Plug-In . SVG Version: 6.00 Build 0)  -->
<!DOCTYPE svg PUBLIC "-//W3C//DTD SVG 1.1//EN" "http://www.w3.org/Graphics/SVG/1.1/DTD/svg11.dtd">
<svg version="1.1" id="Capa_1" xmlns="http://www.w3.org/2000/svg" xmlns:xlink="http://www.w3.org/1999/xlink" x="0px" y="0px"
	 width="34.546px" height="34.546px" viewBox="0 0 34.546 34.546" style="enable-background:new 0 0 34.546 34.546;"
	 xml:space="preserve">
<g>
	<path d="M34.372,13.115c-0.043,0.215-0.045,0.441-0.131,0.646c-0.496,1.201-1.43,2.197-2.115,3.306
		c-0.887,1.413-8.406-1.635-7.437-3.521c0.364-0.698,1.788-2.627,1.896-3.401c0.098-0.692-0.818-1.233-1.664-1.302
		c-2.232-0.182-5.082-0.019-7.452-0.004v0.004c-0.063,0-0.134-0.002-0.197-0.002c-0.065,0-0.135,0.002-0.196,0.002V8.839
		c-2.371-0.015-5.222-0.178-7.453,0.004c-0.847,0.069-1.763,0.61-1.664,1.302c0.106,0.774,1.53,2.703,1.896,3.401
		c0.972,1.887-6.551,4.935-7.437,3.521c-0.688-1.108-1.617-2.104-2.114-3.306c-0.084-0.204-0.087-0.432-0.13-0.646
		C-0.93,8.184,3.322,3.154,9.726,2.638c2.445-0.197,4.896-0.311,7.352-0.354V2.273c0.065,0.001,0.131,0.005,0.196,0.006
		c0.065-0.001,0.13-0.005,0.197-0.006v0.012c2.452,0.045,4.903,0.156,7.351,0.354C31.222,3.154,35.474,8.184,34.372,13.115z
		 M29.973,30.125c0.071,1.182-0.703,2.148-1.722,2.148H6.292c-1.017,0-1.791-0.968-1.722-2.148l0.642-10.785
		c2.326-0.545,5.301-1.969,6.379-3.736c0.603-0.983,0.666-2.095,0.172-3.056c-0.125-0.239-0.359-0.612-0.629-1.031
		c0-0.001,0-0.001,0-0.002c-0.008-0.02-0.008-0.02-0.014-0.032h11.953c-0.007,0.017-0.008,0.021-0.019,0.044
		c-0.151,0.359-0.2,0.639-0.173,0.848c-0.034,0.061-0.082,0.137-0.108,0.188c-0.486,0.947-0.424,2.058,0.178,3.042
		c1.078,1.769,4.051,3.19,6.379,3.737L29.973,30.125z M17.131,18.19l-3.582,1.284c-0.391,1.06-0.204,4.242,0.399,5.424
		c0.53,1.035,3.183,3.182,3.183,3.182V18.19z M20.993,19.474l-3.581-1.284v9.89c0,0,2.651-2.146,3.183-3.182
		C21.199,23.716,21.384,20.534,20.993,19.474z"/>
</g>
<g>
</g>
<g>
</g>
<g>
</g>
<g>
</g>
<g>
</g>
<g>
</g>
<g>
</g>
<g>
</g>
<g>
</g>
<g>
</g>
<g>
</g>
<g>
</g>
<g>
</g>
<g>
</g>
<g>
</g>
</svg>
