<?xml version="1.0" encoding="iso-8859-1"?>
<!-- Generator: Adobe Illustrator 16.0.0, SVG Export Plug-In . SVG Version: 6.00 Build 0)  -->
<!DOCTYPE svg PUBLIC "-//W3C//DTD SVG 1.1//EN" "http://www.w3.org/Graphics/SVG/1.1/DTD/svg11.dtd">
<svg version="1.1" id="Capa_1" xmlns="http://www.w3.org/2000/svg" xmlns:xlink="http://www.w3.org/1999/xlink" x="0px" y="0px"
	 width="35px" height="35px" viewBox="0 0 35 35" style="enable-background:new 0 0 35 35;" xml:space="preserve">
<g>
	<path d="M27.842,33.575c0.213-0.354,0.348-0.763,0.348-1.202V9.925c0-1.311-1.074-2.382-2.383-2.382H12.831V1.387
		C12.831,0.619,12.209,0,11.443,0c-0.767,0-1.387,0.619-1.387,1.387v6.158C10.01,7.546,9.967,7.553,9.924,7.561L6.496,2.579
		L6.289,2.723l1.971,2.861C7.141,5.777,6.275,6.738,6.275,7.91v22.447c0,1.312,1.072,2.384,2.383,2.384h15.727
		c0.783,0,1.47-0.392,1.902-0.978L28.518,35l0.207-0.145L27.842,33.575z M8.574,8.839h1.928l5.281,7.67H8.574V8.839z M17.145,18.486
		l1.086,1.574c-0.125,0.078-0.266,0.139-0.426,0.139h-2.566c-0.473,0-0.854-0.385-0.854-0.856c0-0.471,0.384-0.856,0.854-0.856
		H17.145L17.145,18.486z M12.05,29.994H9.482c-0.473,0-0.854-0.385-0.854-0.855c0-0.473,0.383-0.854,0.854-0.854h2.568
		c0.473,0,0.855,0.384,0.855,0.854C12.906,29.609,12.523,29.994,12.05,29.994z M12.05,26.729H9.482
		c-0.473,0-0.854-0.383-0.854-0.854c0-0.475,0.383-0.855,0.854-0.855h2.568c0.473,0,0.855,0.383,0.855,0.855
		C12.906,26.346,12.523,26.729,12.05,26.729z M12.05,23.464H9.482c-0.473,0-0.854-0.383-0.854-0.854
		c0-0.475,0.383-0.855,0.854-0.855h2.568c0.473,0,0.855,0.383,0.855,0.855C12.906,23.081,12.523,23.464,12.05,23.464z M12.05,20.199
		H9.482c-0.473,0-0.854-0.385-0.854-0.856c0-0.471,0.383-0.856,0.854-0.856h2.568c0.473,0,0.855,0.386,0.855,0.856
		C12.905,19.814,12.523,20.199,12.05,20.199z M17.804,29.994h-2.566c-0.473,0-0.854-0.385-0.854-0.855
		c0-0.473,0.384-0.854,0.854-0.854h2.566c0.475,0,0.858,0.384,0.858,0.854S18.279,29.994,17.804,29.994z M17.804,26.729h-2.566
		c-0.473,0-0.854-0.383-0.854-0.854c0-0.475,0.384-0.855,0.854-0.855h2.566c0.475,0,0.858,0.383,0.858,0.855
		C18.662,26.346,18.279,26.729,17.804,26.729z M17.804,23.464h-2.566c-0.473,0-0.854-0.383-0.854-0.854
		c0-0.475,0.384-0.855,0.854-0.855h2.566c0.475,0,0.858,0.383,0.858,0.855C18.662,23.081,18.279,23.464,17.804,23.464z
		 M19.824,21.934l-0.984-1.432h0.388c0.473,0,0.854,0.385,0.854,0.855C20.082,21.589,19.975,21.779,19.824,21.934z M23.562,29.994
		h-2.566c-0.475,0-0.857-0.385-0.857-0.855c0-0.473,0.386-0.854,0.857-0.854h2.566c0.152,0,0.287,0.051,0.412,0.121l0.416,0.604
		c0.008,0.044,0.027,0.083,0.027,0.13C24.418,29.609,24.033,29.994,23.562,29.994z M20.994,25.018h0.648l1.18,1.711h-1.828
		c-0.473,0-0.857-0.383-0.857-0.854C20.137,25.398,20.521,25.018,20.994,25.018z M24.982,28.744h-0.467l-1.18-1.711h1.646
		c0.474,0,0.854,0.383,0.854,0.855C25.838,28.359,25.455,28.744,24.982,28.744z M24.982,25.479h-2.566
		c-0.062,0-0.115-0.021-0.173-0.033l-0.655-0.955c0.064-0.406,0.402-0.723,0.828-0.723h2.566c0.475,0,0.855,0.383,0.855,0.855
		C25.838,25.098,25.455,25.479,24.982,25.479z M24.982,22.215h-2.566c-0.475,0-0.856-0.384-0.856-0.855
		c0-0.473,0.385-0.855,0.856-0.855h2.566c0.475,0,0.855,0.385,0.855,0.855C25.838,21.831,25.455,22.215,24.982,22.215z
		 M25.889,18.523h-8.412l-5.281-7.668h13.693V18.523L25.889,18.523z"/>
</g>
<g>
</g>
<g>
</g>
<g>
</g>
<g>
</g>
<g>
</g>
<g>
</g>
<g>
</g>
<g>
</g>
<g>
</g>
<g>
</g>
<g>
</g>
<g>
</g>
<g>
</g>
<g>
</g>
<g>
</g>
</svg>
