<?xml version="1.0" encoding="iso-8859-1"?>
<!-- Generator: Adobe Illustrator 16.0.0, SVG Export Plug-In . SVG Version: 6.00 Build 0)  -->
<!DOCTYPE svg PUBLIC "-//W3C//DTD SVG 1.1//EN" "http://www.w3.org/Graphics/SVG/1.1/DTD/svg11.dtd">
<svg version="1.1" id="Capa_1" xmlns="http://www.w3.org/2000/svg" xmlns:xlink="http://www.w3.org/1999/xlink" x="0px" y="0px"
	 width="35.001px" height="35.001px" viewBox="0 0 35.001 35.001" style="enable-background:new 0 0 35.001 35.001;"
	 xml:space="preserve">
<g>
	<path d="M23.064,2.302l-0.803,0.804c-2.625-2.625-6.899-2.625-9.524,0l-0.803-0.803C15.003-0.768,19.996-0.768,23.064,2.302z
		 M13.324,3.691l0.803,0.803c1.86-1.857,4.888-1.857,6.744,0l0.805-0.803C19.373,1.39,15.627,1.39,13.324,3.691z M14.758,5.126
		l0.804,0.804c1.069-1.07,2.808-1.07,3.876,0l0.805-0.805C18.73,3.613,16.27,3.613,14.758,5.126z M23.064,32.699l-0.803-0.805
		c-2.625,2.625-6.896,2.625-9.521,0l-0.804,0.805C15.004,35.769,19.998,35.769,23.064,32.699z M21.676,31.31l-0.803-0.803
		c-1.858,1.856-4.886,1.856-6.744,0l-0.805,0.803C15.627,33.611,19.374,33.611,21.676,31.31z M20.242,29.875l-0.803-0.805
		c-1.07,1.07-2.81,1.07-3.877,0l-0.804,0.806C16.27,31.388,18.73,31.388,20.242,29.875z M32.699,11.937l-0.805,0.803
		c2.626,2.626,2.626,6.898,0.001,9.523l0.804,0.803C35.769,19.997,35.769,15.003,32.699,11.937z M31.31,13.325l-0.804,0.804
		c1.858,1.858,1.858,4.886,0,6.744l0.804,0.805C33.611,19.374,33.611,15.626,31.31,13.325z M29.875,14.758l-0.804,0.803
		c1.069,1.07,1.069,2.811,0,3.877l0.804,0.806C31.388,18.73,31.388,16.271,29.875,14.758z M2.301,23.064l0.806-0.803
		c-2.626-2.626-2.626-6.898-0.001-9.523l-0.805-0.803C-0.767,15.004-0.767,19.998,2.301,23.064z M3.691,21.677l0.803-0.804
		c-1.857-1.858-1.857-4.887,0-6.744l-0.803-0.805C1.389,15.627,1.389,19.375,3.691,21.677z M5.126,20.243l0.804-0.804
		c-1.07-1.069-1.07-2.81,0-3.877l-0.805-0.805C3.613,16.271,3.613,18.73,5.126,20.243z M17.501,26.767L17.501,26.767L17.501,26.767
		L17.501,26.767c-5.11,0-9.266-4.156-9.266-9.265c0-0.001,0-0.001,0-0.001l0,0l0,0c0-5.107,4.155-9.267,9.266-9.267l0,0l0,0l0,0
		c5.106,0,9.264,4.154,9.265,9.263c0,0.002,0,0.003,0,0.004c0,0.002,0,0.003,0,0.005C26.763,22.611,22.607,26.767,17.501,26.767z
		 M19.966,21.105c-0.812,0.086-1.644,0.131-2.465,0.131c-0.823,0-1.654-0.045-2.465-0.131c0.487,2.867,1.516,4.678,2.465,4.678l0,0
		C18.449,25.783,19.479,23.976,19.966,21.105z M20.108,20.105c0.093-0.807,0.146-1.68,0.146-2.604c0-0.925-0.053-1.8-0.146-2.605
		c-0.809-0.096-1.682-0.147-2.607-0.147c-0.928,0-1.801,0.053-2.608,0.147c-0.093,0.807-0.146,1.68-0.146,2.605
		c0,0.925,0.053,1.8,0.146,2.604c0.808,0.097,1.681,0.147,2.608,0.147C18.429,20.255,19.301,20.202,20.108,20.105z M9.218,17.501
		c0,0.949,1.808,1.979,4.677,2.465c-0.086-0.812-0.131-1.643-0.131-2.465c0-0.823,0.045-1.654,0.131-2.465
		C11.025,15.521,9.218,16.551,9.218,17.501L9.218,17.501z M15.036,13.896c0.811-0.086,1.642-0.131,2.465-0.131
		c0.821,0,1.653,0.045,2.465,0.131c-0.487-2.867-1.517-4.677-2.465-4.677l0,0C16.552,9.218,15.523,11.025,15.036,13.896z
		 M21.236,17.501c0,0.822-0.044,1.653-0.131,2.465c2.865-0.486,4.673-1.514,4.677-2.462c0-0.001,0-0.002,0-0.003s0-0.002,0-0.002
		c-0.004-0.95-1.81-1.978-4.677-2.463C21.192,15.847,21.236,16.678,21.236,17.501z M19.417,9.443
		c0.744,1.062,1.269,2.727,1.558,4.584c1.854,0.287,3.521,0.812,4.583,1.556C24.836,12.556,22.447,10.166,19.417,9.443z
		 M9.444,15.584c1.062-0.744,2.727-1.27,4.582-1.557c0.29-1.857,0.813-3.521,1.558-4.584C12.554,10.166,10.165,12.556,9.444,15.584z
		 M15.584,25.558c-0.744-1.062-1.268-2.727-1.558-4.584c-1.855-0.287-3.52-0.812-4.582-1.556
		C10.165,22.445,12.554,24.836,15.584,25.558z M25.558,19.418c-1.062,0.743-2.729,1.269-4.583,1.556
		c-0.289,1.857-0.812,3.521-1.558,4.584C22.447,24.836,24.836,22.445,25.558,19.418z"/>
</g>
<g>
</g>
<g>
</g>
<g>
</g>
<g>
</g>
<g>
</g>
<g>
</g>
<g>
</g>
<g>
</g>
<g>
</g>
<g>
</g>
<g>
</g>
<g>
</g>
<g>
</g>
<g>
</g>
<g>
</g>
</svg>
