<svg id="Layer_1" enable-background="new 0 0 512 512" height="512" viewBox="0 0 512 512" width="512" xmlns="http://www.w3.org/2000/svg"><path d="m256 180.946c-41.385 0-75.053 33.669-75.053 75.053s33.669 75.053 75.053 75.053 75.053-33.669 75.053-75.053-33.668-75.053-75.053-75.053z"/><path d="m459.572 256c15.694-25.699 28.291-51.426 37.262-76.392 23.834-66.331 19.462-120.359-12.31-152.132-31.772-31.772-85.801-36.143-152.132-12.31-24.967 8.971-50.693 21.568-76.392 37.262-25.699-15.694-51.425-28.291-76.392-37.262-66.331-23.833-120.359-19.462-152.132 12.31-31.772 31.772-36.144 85.8-12.31 152.132 8.971 24.967 21.568 50.693 37.262 76.392-15.694 25.699-28.291 51.426-37.262 76.392-23.834 66.331-19.462 120.359 12.31 152.132 18.267 18.267 43.887 27.476 74.977 27.476 22.984 0 48.961-5.035 77.155-15.166 24.967-8.971 50.693-21.568 76.392-37.262 25.699 15.694 51.425 28.291 76.392 37.262 28.199 10.132 54.168 15.166 77.155 15.166 31.086 0 56.711-9.211 74.977-27.476 31.772-31.772 36.144-85.8 12.31-152.132-8.971-24.967-21.568-50.693-37.262-76.392zm-117.037-212.605c24.722-8.883 47.161-13.369 66.824-13.369 2.251 0 4.467.059 6.645.176 20.221 1.094 36.139 7.313 47.31 18.484s17.39 27.089 18.484 47.31c1.146 21.197-3.293 45.916-13.193 73.468-6.876 19.137-16.08 38.8-27.335 58.58-20.447-29.257-44.696-58.104-71.953-85.361s-56.104-51.506-85.361-71.953c19.78-11.255 39.443-20.459 58.579-27.335zm81.513 212.605c-20.837 31.435-46.519 62.683-75.942 92.106-29.424 29.424-60.671 55.105-92.106 75.942-31.435-20.837-62.683-46.518-92.106-75.942-29.424-29.423-55.105-60.671-75.942-92.106 20.837-31.435 46.519-62.683 75.942-92.106 29.424-29.424 60.671-55.105 92.106-75.942 31.435 20.837 62.682 46.518 92.106 75.942 29.424 29.423 55.105 60.671 75.942 92.106zm-380.653-86.535c-9.9-27.552-14.339-52.271-13.193-73.468 1.094-20.221 7.313-36.139 18.484-47.31s27.089-17.39 47.31-18.484c2.179-.118 4.392-.176 6.645-.176 19.661 0 42.103 4.486 66.824 13.369 19.137 6.876 38.799 16.08 58.58 27.335-29.257 20.447-58.104 44.696-85.361 71.953s-51.506 56.104-71.953 85.361c-11.256-19.781-20.46-39.444-27.336-58.58zm126.07 299.14c-27.552 9.9-52.273 14.338-73.468 13.193-20.221-1.094-36.139-7.313-47.31-18.484s-17.39-27.089-18.484-47.31c-1.146-21.197 3.293-45.916 13.193-73.468 6.876-19.137 16.08-38.8 27.335-58.58 20.447 29.257 44.696 58.104 71.953 85.361s56.104 51.506 85.361 71.953c-19.781 11.255-39.444 20.459-58.58 27.335zm312.333-52.601c-1.094 20.221-7.313 36.139-18.484 47.31s-27.089 17.39-47.31 18.484c-21.195 1.142-45.916-3.293-73.468-13.193-19.137-6.876-38.799-16.08-58.58-27.335 29.257-20.447 58.104-44.696 85.361-71.953s51.506-56.104 71.953-85.361c11.255 19.78 20.459 39.443 27.335 58.58 9.9 27.552 14.339 52.27 13.193 73.468z"/></svg>