<svg id="Layer_1" enable-background="new 0 0 512 512" height="512" viewBox="0 0 512 512" width="512" xmlns="http://www.w3.org/2000/svg"><path d="m129.33 205.13c-10.83 0-19.64 8.82-19.64 19.65s8.81 19.65 19.64 19.65c10.84 0 19.65-8.82 19.65-19.65s-8.81-19.65-19.65-19.65z"/><path d="m437.02 74.98c-48.35-48.35-112.64-74.98-181.02-74.98s-132.67 26.63-181.02 74.98-74.98 112.64-74.98 181.02 26.63 132.67 74.98 181.02 112.64 74.98 181.02 74.98 132.67-26.63 181.02-74.98 74.98-112.64 74.98-181.02-26.63-132.67-74.98-181.02zm-278.76 49.11c19.71-28.88 53.59-45.21 88.42-42.62 19.62 1.46 38.11 8.66 53.5 20.81 6.5 5.13 7.6 14.56 2.47 21.06-5.14 6.51-14.57 7.61-21.07 2.48-10.66-8.43-23.5-13.41-37.12-14.43-24.19-1.8-47.72 9.54-61.42 29.61-2.9 4.25-7.61 6.55-12.4 6.55-2.91 0-5.85-.85-8.44-2.62-6.84-4.66-8.61-14-3.94-20.84zm102.19 97.76c-4.96-9.06-14.46-14.84-24.8-15.08-8.29-.2-14.84-7.07-14.65-15.35.2-8.28 7.06-14.85 15.35-14.64 21.01.5 40.33 12.25 50.41 30.67 5.68 10.37 8.1 22.05 7 33.79-.73 7.77-7.27 13.6-14.92 13.6-.47 0-.94-.02-1.42-.07-8.24-.77-14.3-8.08-13.53-16.33.54-5.75-.65-11.49-3.44-16.59zm-180.76 2.93c0-27.37 22.27-49.65 49.64-49.65 27.38 0 49.65 22.28 49.65 49.65 0 27.38-22.27 49.65-49.65 49.65-27.37 0-49.64-22.27-49.64-49.65zm277.31 170.23c-6.13 16.3-19.4 30.01-37.34 38.61-14.37 6.88-31.61 10.4-50.62 10.4-6.76 0-13.73-.45-20.89-1.34-45.88-5.72-79.01-28.52-90.92-62.54-7.54-21.54-7.97-42.41-1.25-60.37 6.21-16.57 18.49-29.74 33.71-36.12 13.23-5.55 27.71-5.68 40.78-.36 13.83 5.62 25.24 16.92 32.99 32.65 8.76 17.79 13.99 22.74 15.72 24.01 1.53-.74 4.17-2.6 6-3.9 9.83-6.93 28.12-19.84 53.07-2.91 20.03 13.59 27.57 38.46 18.75 61.87zm69.75-122.9c-.73 7.78-7.26 13.61-14.92 13.61-.46 0-.94-.02-1.41-.07-8.25-.77-14.31-8.08-13.54-16.33.86-9.18-1.04-18.32-5.49-26.45-7.9-14.43-23.04-23.64-39.51-24.03-8.28-.2-14.84-7.07-14.64-15.35.19-8.29 7.04-14.85 15.35-14.64 27.14.64 52.1 15.82 65.12 39.61 7.33 13.4 10.46 28.5 9.04 43.65z"/><path d="m321.41 357.96c-7.49-5.07-9.9-3.77-18.93 2.6-7.25 5.12-17.17 12.12-30.27 8.79-12.73-3.24-23.39-15.25-35.66-40.15-7.19-14.6-17.05-19.79-25.97-19.79-3.28 0-6.44.71-9.29 1.9-15.27 6.41-26.71 27.58-15.75 58.92 8.12 23.2 31.68 38.36 66.32 42.68 6.27.78 12.15 1.15 17.61 1.15 35.29 0 53.99-15.09 59.46-29.62 3.95-10.5 1.07-20.65-7.52-26.48z"/></svg>