<svg id="Layer_1" enable-background="new 0 0 512 512" height="512" viewBox="0 0 512 512" width="512" xmlns="http://www.w3.org/2000/svg"><path d="m464.68 360.344c-7.952-7.971-18.527-12.361-29.777-12.361-6.05 0-11.905 1.27-17.262 3.684l-38.857-38.651c23.68-33.905 23.293-79.679-1.162-113.196l30.087-30.159c5.344 2.4 11.183 3.663 17.216 3.663 11.25 0 21.825-4.39 29.777-12.361h.001c16.39-16.431 16.39-43.166-.001-59.597-7.952-7.971-18.527-12.361-29.777-12.361s-21.825 4.39-29.777 12.361c-12.671 12.702-15.547 31.561-8.628 47.058l-30.083 30.156c-12.157-8.929-26.124-14.836-40.971-17.336v-45.219c9.989-2.618 19.146-7.855 26.638-15.365 22.931-22.986 22.931-60.388 0-83.375-11.12-11.145-25.907-17.285-41.638-17.285-.001 0 0 0-.001 0-15.729 0-30.518 6.14-41.638 17.286-22.931 22.987-22.931 60.389 0 83.375 7.492 7.51 16.649 12.747 26.638 15.365v44.816c-15.448 2.171-30.014 8.007-42.671 17.081l-59.743-59.543c6.9-15.49 4.019-34.331-8.643-47.023-7.952-7.971-18.527-12.361-29.777-12.361s-21.825 4.39-29.777 12.361c-16.392 16.431-16.392 43.166 0 59.598 7.952 7.971 18.527 12.36 29.777 12.36 6.046 0 11.896-1.269 17.25-3.678l59.486 59.286c-9.449 12.643-15.429 27.084-17.938 42.003h-52.65c-2.551-9.784-7.643-19.035-15.278-26.688-11.119-11.147-25.906-17.286-41.637-17.286s-30.519 6.139-41.638 17.285c-22.933 22.987-22.933 60.389 0 83.375 11.119 11.147 25.906 17.286 41.638 17.286 15.73 0 30.518-6.139 41.637-17.286 7.634-7.653 12.726-16.903 15.277-26.688h52.247c2.838 20.182 11.982 39.637 27.434 55.126 15.08 15.117 34.248 24.653 55.007 27.57v42.353c-9.988 2.618-19.146 7.854-26.638 15.364-22.931 22.986-22.931 60.388 0 83.375 11.12 11.15 25.908 17.288 41.638 17.288s30.518-6.139 41.637-17.286c22.931-22.987 22.931-60.389 0-83.375-7.492-7.51-16.649-12.747-26.638-15.365v-42.754c15.5-2.609 30.042-8.934 42.565-18.533l38.447 38.242c-6.892 15.488-4.01 34.322 8.648 47.011 7.952 7.971 18.527 12.361 29.777 12.361s21.825-4.39 29.777-12.361c16.393-16.43 16.393-43.166.001-59.596z"/></svg>