<svg id="Layer_1" enable-background="new 0 0 512 512" height="512" viewBox="0 0 512 512" width="512" xmlns="http://www.w3.org/2000/svg"><path d="m238.568 170.543c-5.857-5.858-15.355-5.859-21.213 0-5.858 5.858-5.858 15.356 0 21.214l13.751 13.752-123.917 123.924h150.735l48.55-48.552 13.75 13.751c2.929 2.929 6.768 4.394 10.606 4.394s7.678-1.465 10.606-4.394c5.858-5.858 5.858-15.356 0-21.214z"/><path d="m493.027 18.943c-25.256-25.256-66.35-25.258-91.605 0l-136.066 136.075 91.605 91.611 136.066-136.076c12.235-12.234 18.973-28.501 18.973-45.804s-6.738-33.571-18.973-45.806z"/><path d="m52.591 384.034c-2.482 2.482-4.016 5.756-4.332 9.252l-4.909 54.146-38.956 38.96c-5.858 5.858-5.858 15.356 0 21.214 2.929 2.93 6.767 4.394 10.606 4.394s7.678-1.464 10.606-4.394l38.956-38.959 54.144-4.908c3.496-.317 6.77-1.85 9.252-4.333l99.966-99.972h-150.735z"/></svg>