<svg id="Layer_1" enable-background="new 0 0 512 512" height="512" viewBox="0 0 512 512" width="512" xmlns="http://www.w3.org/2000/svg"><path d="m463.555 48.445c-64.594-64.594-169.696-64.594-234.29 0-61.019 61.019-64.396 158.186-10.13 223.206l-28.522 28.522c-14.082-5.777-30.866-2.949-42.302 8.487l-90.138 90.138 55.028 55.028 90.138-90.138c11.436-11.436 14.265-28.22 8.487-42.302l28.522-28.522c65.02 54.265 162.187 50.889 223.206-10.13 64.594-64.593 64.595-169.695.001-234.289z"/><path d="m11.397 445.576c-15.195 15.195-15.195 39.832 0 55.028 15.195 15.195 39.832 15.195 55.027 0l25.563-25.563-55.027-55.028z"/></svg>