<svg id="Layer_1" enable-background="new 0 0 512 512" height="512" viewBox="0 0 512 512" width="512" xmlns="http://www.w3.org/2000/svg"><path d="m497 435.5h-45v-298.33h45c8.28 0 15-6.72 15-15 0-8.29-6.72-15-15-15h-45v-45.67c0-8.284-6.716-15-15-15s-15 6.716-15 15v45.67h-112.09v30h112.09v298.33h-332v-298.33h112.09v-30h-112.09v-45.67c0-8.284-6.716-15-15-15s-15 6.716-15 15v45.67h-45c-8.28 0-15 6.71-15 15 0 8.28 6.72 15 15 15h45v298.33h-45c-8.284 0-15 6.716-15 15s6.716 15 15 15h482c8.284 0 15-6.716 15-15s-6.716-15-15-15z"/><path d="m301.6 307.54c-11.1 12.76-27.44 20.84-45.64 20.84s-34.54-8.08-45.64-20.84c-11.1 12.76-27.45 20.84-45.65 20.84-7.4 0-14.5-1.34-21.06-3.79 18.71 43.57 62.04 74.16 112.39 74.16 50.36 0 93.71-30.61 112.41-74.2-6.59 2.48-13.72 3.83-21.16 3.83-18.2 0-34.55-8.08-45.65-20.84z"/><path d="m309.91 77.192h5c8.284 0 15-6.716 15-15s-6.716-15-15-15h-117.82c-8.284 0-15 6.716-15 15s6.716 15 15 15h5v29.978h107.82z"/><path d="m202.09 165.77c-39.28 19.44-65.71 59.57-68.15 103.99.97 16.11 14.38 28.92 30.73 28.92 16.98 0 30.8-13.82 30.8-30.8 0-8.2 6.65-14.85 14.85-14.85s14.85 6.65 14.85 14.85c0 16.98 13.81 30.8 30.79 30.8s30.79-13.82 30.79-30.8c0-8.2 6.65-14.85 14.85-14.85s14.85 6.65 14.85 14.85c0 16.98 13.82 30.8 30.8 30.8 16.6 0 30.17-13.2 30.77-29.66-2.69-44.12-29.05-83.92-68.11-103.25v-28.6h-107.82z"/></svg>