<svg id="Layer_1" enable-background="new 0 0 512 512" height="512" viewBox="0 0 512 512" width="512" xmlns="http://www.w3.org/2000/svg"><path d="m11.397 445.576c-15.195 15.195-15.195 39.832 0 55.028 15.195 15.195 39.832 15.195 55.027 0l25.563-25.563-55.027-55.028z"/><path d="m311.359 188.847c-10.835 0-19.649 8.815-19.649 19.651 0 10.835 8.815 19.65 19.649 19.65 10.835 0 19.649-8.815 19.649-19.65.001-10.835-8.814-19.651-19.649-19.651z"/><path d="m463.555 48.445c-64.594-64.594-169.696-64.594-234.29 0-61.019 61.019-64.396 158.186-10.13 223.206l-28.522 28.522c-14.082-5.777-30.866-2.949-42.302 8.487l-90.138 90.138 55.028 55.028 90.138-90.138c11.436-11.436 14.265-28.22 8.487-42.302l28.522-28.522c65.02 54.265 162.187 50.889 223.206-10.13 64.594-64.593 64.595-169.695.001-234.289zm-152.196 209.71c-27.379 0-49.654-22.276-49.654-49.656 0-27.381 22.275-49.657 49.654-49.657s49.654 22.276 49.654 49.657c0 27.38-22.275 49.656-49.654 49.656zm60.908-162.301c-2.481 7.904-10.896 12.304-18.808 9.819-5.514-1.731-11.375-1.769-16.948-.106-9.896 2.951-17.537 11.035-19.942 21.097-1.646 6.886-7.796 11.519-14.578 11.519-1.155 0-2.328-.134-3.5-.414-8.059-1.926-13.03-10.021-11.104-18.08 4.885-20.444 20.423-36.874 40.548-42.876 11.331-3.381 23.267-3.299 34.513.232 7.906 2.482 12.302 10.904 9.819 18.809zm73.537 99.099c-.728 7.774-7.265 13.606-14.919 13.606-.469 0-.94-.022-1.416-.066-8.249-.772-14.311-8.086-13.538-16.336.538-5.755-.652-11.494-3.445-16.596-4.958-9.059-14.462-14.839-24.804-15.083-8.284-.196-14.839-7.07-14.644-15.354.196-8.284 7.112-14.834 15.353-14.644 21.014.497 40.332 12.251 50.415 30.674 5.677 10.373 8.097 22.06 6.998 33.799z"/></svg>