<svg id="Layer_1" enable-background="new 0 0 512 512" height="512" viewBox="0 0 512 512" width="512" xmlns="http://www.w3.org/2000/svg"><path d="m142.01 66.925h-.04c-15.97.02-28.97 13.023-28.99 28.979-.01 7.707 2.98 14.945 8.42 20.39s12.68 8.438 20.39 8.438h.04c15.96-.02 28.97-13.013 28.99-28.968.01-7.708-2.98-14.955-8.42-20.39-5.44-5.446-12.68-8.449-20.39-8.449z"/><path d="m190.32 0h-124.21c-12.88 0-23.31 10.45-23.31 23.333v465.334c0 12.883 10.43 23.333 23.31 23.333h124.21c27.99 0 50.68-22.712 50.68-50.729v-410.542c0-28.017-22.69-50.729-50.68-50.729zm-48.46 475.104h-.07c-15.73 0-30.5-6.126-41.61-17.237-11.11-11.131-17.22-25.925-17.2-41.661.04-32.472 26.49-58.928 58.95-58.968h.08c15.73 0 30.5 6.116 41.61 17.237s17.22 25.915 17.2 41.661c-.04 32.472-26.49 58.928-58.96 58.968zm0-160.176h-.07c-15.73 0-30.5-6.116-41.61-17.237s-17.22-25.915-17.2-41.651c.04-32.482 26.49-58.928 58.95-58.968h.08c15.73 0 30.5 6.116 41.61 17.237s17.22 25.915 17.2 41.661c-.04 32.472-26.49 58.928-58.96 58.958zm0-160.167h-.07c-15.73 0-30.5-6.116-41.61-17.237-11.11-11.131-17.22-25.915-17.2-41.661.04-32.472 26.49-58.927 58.95-58.968h.08c15.73 0 30.5 6.126 41.61 17.237 11.11 11.131 17.22 25.925 17.2 41.661-.04 32.482-26.49 58.928-58.96 58.968z"/><path d="m142.01 227.102h-.04c-15.97.02-28.97 13.013-28.99 28.968-.01 7.708 2.98 14.945 8.42 20.39s12.68 8.438 20.39 8.438h.04c15.96-.01 28.97-13.013 28.99-28.968.01-7.707-2.98-14.945-8.42-20.39s-12.68-8.438-20.39-8.438z"/><path d="m142.01 387.268h-.04c-15.97.02-28.97 13.013-28.99 28.978-.01 7.697 2.98 14.944 8.42 20.38 5.44 5.445 12.68 8.448 20.39 8.448h.04c15.96-.02 28.97-13.023 28.99-28.978.01-7.697-2.98-14.945-8.42-20.39s-12.68-8.438-20.39-8.438z"/><path d="m370.03 66.925h-.04c-7.71 0-14.95 3.003-20.39 8.448-5.44 5.435-8.43 12.682-8.42 20.39.02 15.956 13.03 28.948 28.99 28.968h.04c7.71 0 14.95-2.993 20.39-8.438s8.43-12.682 8.42-20.39c-.02-15.955-13.02-28.958-28.99-28.978z"/><path d="m370.03 387.268h-.04c-7.71 0-14.95 2.993-20.39 8.438s-8.43 12.692-8.42 20.39c.02 15.956 13.03 28.958 28.99 28.978h.04c7.71 0 14.95-3.003 20.39-8.448 5.44-5.435 8.43-12.682 8.42-20.38-.02-15.965-13.02-28.958-28.99-28.978z"/><path d="m445.89 0h-124.21c-27.99 0-50.68 22.712-50.68 50.729v410.541c0 28.018 22.69 50.73 50.68 50.73h124.21c12.88 0 23.31-10.45 23.31-23.333v-465.334c0-12.883-10.43-23.333-23.31-23.333zm-34.07 457.867c-11.11 11.111-25.88 17.237-41.61 17.237h-.07c-32.47-.04-58.92-26.496-58.96-58.968-.02-15.745 6.09-30.54 17.2-41.661s25.89-17.237 41.61-17.237h.08c32.46.04 58.91 26.496 58.95 58.968.02 15.736-6.09 30.53-17.2 41.661zm0-160.176c-11.11 11.121-25.88 17.237-41.61 17.237h-.07c-32.47-.03-58.92-26.486-58.96-58.958-.02-15.745 6.09-30.54 17.2-41.661s25.89-17.237 41.61-17.237h.08c32.46.04 58.91 26.486 58.95 58.968.02 15.735-6.09 30.53-17.2 41.651zm0-160.167c-11.11 11.121-25.88 17.237-41.61 17.237h-.07c-32.47-.04-58.92-26.486-58.96-58.968-.02-15.735 6.09-30.53 17.2-41.661 11.11-11.111 25.89-17.237 41.61-17.237h.08c32.46.04 58.91 26.496 58.95 58.968.02 15.746-6.09 30.53-17.2 41.661z"/><path d="m370.03 227.102h-.04c-7.71 0-14.95 2.993-20.39 8.438s-8.43 12.682-8.42 20.39c.02 15.956 13.03 28.958 28.99 28.968h.04c7.71 0 14.95-2.993 20.39-8.438s8.43-12.682 8.42-20.39c-.02-15.955-13.02-28.948-28.99-28.968z"/></svg>