<svg id="Layer_1" enable-background="new 0 0 512 512" height="512" viewBox="0 0 512 512" width="512" xmlns="http://www.w3.org/2000/svg"><path d="m473.09 426.608h-434.18c-21.49 0-38.91 17.436-38.91 38.945 0 21.509 17.421 38.945 38.91 38.945h434.18c21.49 0 38.91-17.436 38.91-38.945 0-21.508-17.421-38.945-38.91-38.945z"/><path d="m209.28 357.329c-4.79 3.09-10.91 3.23-15.81.32-1.34-.8-2.63-1.6-3.87-2.41 2.74 16.61 11.57 31.2 24.11 41.37h84.62c1.82-1.47 3.57-3.05 5.25-4.73 7.51-7.51 13.03-16.49 16.28-26.28-1.6.03-3.24-.06-4.92-.3-5.13-.74-9.61-3.93-11.69-8.68-2.07-4.72-1.67-10.03 1.22-14.3.83-1.38 8.84-15.39 3.4-34.21-9.98 7.29-21.42 8.34-30.94 5.03-17.87-6.21-31.64-27.99-28.67-64.15-13.81 9.49-23.39 24.61-28.58 45.19-6.28 24.92-3.68 48.6-3.65 48.84.65 5.66-1.97 11.21-6.75 14.31z"/><path d="m137.28 396.609h36.74c-9.7-15.13-15.32-33.11-15.32-52.38 0-8.44 1.09-16.85 3.24-24.97 1.51-5.72 6.18-10.12 12.02-11.07 4.56-.74 9.08.6 12.39 3.57.72-7.46 1.96-15.64 4.02-24.02 10.39-42.3 36.06-69.21 74.24-77.82 5.13-1.16 10.49.46 14.13 4.26 3.64 3.81 5.02 9.24 3.64 14.31-10.4 38.19-.41 54.64 4.4 56.31 2.27.79 6.66-2.88 9.77-10.18 2.11-4.93 6.69-8.36 12.01-9 5.33-.64 10.59 1.61 13.8 5.9 14.63 19.55 18.18 38.17 17.4 53.13.95.11 1.9.3 2.84.59 5.99 1.85 10.19 7.23 10.54 13.5.11 1.87.16 3.72.16 5.49 0 18.85-5.32 36.88-15.24 52.38h36.82c2.77-2.46 5.48-5.01 8.12-7.65 33.92-33.95 52.6-79.09 52.6-127.1 0-3.27-.1-6.69-.29-10.16-.35-6.27-4.54-11.67-10.53-13.53-5.99-1.85-12.48.2-16.3 5.17-.82 1.05-2.1 2.5-3.72 4.12.98-4.05 1.83-8.4 2.48-13 3.71-26.18 1.41-66.35-30.53-109.04-3.21-4.29-8.47-6.54-13.8-5.9-5.32.63-9.9 4.07-12.01 9-9.47 22.19-24.49 33.43-38.27 28.64-5.12-1.78-17.74-8.72-24.31-34.72-4.44-17.51-7-48.39 5.96-96 1.39-5.08.01-10.51-3.63-14.31s-9.01-5.42-14.14-4.26c-70.43 15.88-117.87 65.88-137.2 144.59-7.48 30.44-9.35 59.42-9.4 80.31-13.74-11.79-20.56-21.53-20.66-21.67-3.31-4.83-9.13-7.29-14.9-6.3-5.79.99-10.47 5.27-11.97 10.95-3.97 15-5.98 30.51-5.98 46.11 0 53.6 23.57 101.8 60.88 134.75z"/></svg>