<svg id="Layer_1" enable-background="new 0 0 512 512" height="512" viewBox="0 0 512 512" width="512" xmlns="http://www.w3.org/2000/svg"><path d="m432.059 0h-377.88c-5.51 0-10.57 3.02-13.19 7.86-2.62 4.85-2.38 10.74.64 15.35l57.55 88.04v71.25h.01c0 14.03 11.41 25.43 25.43 25.43s25.43-11.4 25.43-25.43c0-8.23 6.68-14.91 14.92-14.91 8.23 0 14.91 6.68 14.91 14.91 0 14.03 11.41 25.43 25.43 25.43s25.43-11.4 25.43-25.43c0-8.23 6.68-14.91 14.92-14.91 8.23 0 14.91 6.68 14.91 14.91 0 14.03 11.41 25.43 25.43 25.43s25.43-11.4 25.43-25.43c0-8.23 6.68-14.91 14.91-14.91 8.24 0 14.92 6.68 14.92 14.91 0 14.03 11.41 25.43 25.43 25.43s25.43-11.4 25.43-25.43c0-8.23 6.68-14.91 14.91-14.91 8.24 0 14.92 6.68 14.92 14.91 0 14.03 11.41 25.43 25.43 25.43s25.43-11.4 25.43-25.43h.01v-141.74c0-22.48-18.29-40.76-40.76-40.76zm-42.97 134.95h-68.73c-8.28 0-15-6.71-15-15 0-8.28 6.72-15 15-15h68.73c8.29 0 15 6.72 15 15 0 8.29-6.71 15-15 15zm0-55.08h-68.73c-8.28 0-15-6.71-15-15 0-8.28 6.72-15 15-15h68.73c8.29 0 15 6.72 15 15 0 8.29-6.71 15-15 15z"/><path d="m407.029 220.23c-10.09 10.78-24.44 17.53-40.34 17.53s-30.25-6.75-40.35-17.53c-10.09 10.78-24.44 17.53-40.34 17.53s-30.25-6.75-40.34-17.53c-10.1 10.78-24.45 17.53-40.35 17.53s-30.25-6.75-40.34-17.53c-10.09 10.78-24.45 17.53-40.35 17.53-9.17 0-17.82-2.24-25.44-6.21v220.44c0 33.09 26.92 60.01 60.01 60.01h253.62c33.09 0 60.01-26.92 60.01-60.01v-220.44c-7.62 3.97-16.27 6.21-25.44 6.21-15.9 0-30.26-6.75-40.35-17.53zm-17.94 243.02h-68.73c-8.28 0-15-6.72-15-15 0-8.29 6.72-15 15-15h68.73c8.29 0 15 6.71 15 15 0 8.28-6.71 15-15 15zm0-55.09h-68.73c-8.28 0-15-6.71-15-15 0-8.28 6.72-15 15-15h68.73c8.29 0 15 6.72 15 15 0 8.29-6.71 15-15 15zm0-55.08h-68.73c-8.28 0-15-6.71-15-15 0-8.28 6.72-15 15-15h68.73c8.29 0 15 6.72 15 15 0 8.29-6.71 15-15 15zm0-55.08h-68.73c-8.28 0-15-6.72-15-15s6.72-15 15-15h68.73c8.29 0 15 6.72 15 15s-6.71 15-15 15z"/></svg>