<svg id="Layer_1" enable-background="new 0 0 512 512" height="512" viewBox="0 0 512 512" width="512" xmlns="http://www.w3.org/2000/svg"><path d="m441.909 240.237h-51.642c.142-2.36.204-4.735.187-7.122-.418-56.306-46.862-102.115-103.532-102.115h-7.512c-67.277 0-130.367 29.448-173.713 80.936-27.706.927-53.648 12.167-73.409 31.897-20.821 20.788-32.288 48.475-32.288 77.962 0 8.284 6.716 15 15 15h178.576c-8.452-11.802-13.434-26.27-13.434-41.884 0-39.647 32.122-71.903 71.604-71.903 8.284 0 15 6.716 15 15s-6.716 15-15 15c-22.94 0-41.604 18.798-41.604 41.903 0 22.695 18.007 41.233 40.387 41.884h37.491c27.419 0 53.181-10.741 72.54-30.245 10.425-10.503 18.311-22.852 23.359-36.313h57.99c22.106 0 40.091 18.115 40.091 40.381s-17.984 40.382-40.091 40.382h-84.294c-8.284 0-15 6.716-15 15s6.716 15 15 15h84.294c38.649 0 70.091-31.573 70.091-70.381s-31.442-70.382-70.091-70.382z"/><path d="m91.2 183.059c2.429-2.614 4.907-5.172 7.431-7.672-3.537-22.076-17.015-38.433-40.794-38.433-5.029 0-9.106 4.077-9.106 9.106v20.669c0 9.515 3.31 18.256 8.842 25.136 10.739-4.316 22.024-7.285 33.627-8.806z"/></svg>