<svg id="Layer_1" enable-background="new 0 0 512 512" height="512" viewBox="0 0 512 512" width="512" xmlns="http://www.w3.org/2000/svg"><path d="m355.488 317.362h-198.552c-8.263 0-14.962 6.716-14.962 15s6.699 15 14.962 15h198.551c8.263 0 14.962-6.716 14.962-15 .001-8.284-6.698-15-14.961-15z"/><path d="m355.488 371.297h-198.552c-8.263 0-14.962 6.716-14.962 15s6.699 15 14.962 15h4.987v7.21c0 27.249 20.487 49.791 46.831 52.959v2.958c0 26.233 21.289 47.576 47.457 47.576 26.169 0 47.458-21.343 47.458-47.576v-2.958c26.344-3.168 46.831-25.71 46.831-52.959v-7.21h4.987c8.263 0 14.962-6.716 14.962-15 .001-8.284-6.698-15-14.961-15z"/><path d="m142.277 273.221c4.329 4.26 8 9.01 10.952 14.14h87.81v-96.43l-25.087-25.63c-5.785-5.91-5.696-15.41.2-21.21 5.905-5.8 15.371-5.71 21.157.2l18.773 19.17 19.102-19.25c5.835-5.87 15.302-5.89 21.167-.04 5.855 5.84 5.875 15.34.05 21.21l-25.436 25.61v96.37h87.68c2.803-4.86 6.254-9.35 10.284-13.33l.07-.07c30.214-30.22 46.912-70.43 47.002-113.21.09-42.79-16.429-83.07-46.513-113.42-30.085-30.35-70.164-47.16-112.837-47.33-42.713-.16-82.892 16.31-113.216 46.42-30.334 30.1-47.172 70.24-47.431 113.03-.249 42.79 16.12 83.13 46.094 113.59z"/></svg>