<svg id="Layer_1" enable-background="new 0 0 512 512" height="512" viewBox="0 0 512 512" width="512" xmlns="http://www.w3.org/2000/svg"><path d="m206 60.804h100c16.791 0 30.402-13.611 30.402-30.402s-13.611-30.402-30.402-30.402h-100c-16.791 0-30.402 13.611-30.402 30.402s13.611 30.402 30.402 30.402z"/><path d="m380.109 30.402h-13.707c0 33.306-27.097 60.402-60.402 60.402h-100c-33.306 0-60.402-27.096-60.402-60.402h-13.707c-33.904 0-61.488 27.584-61.488 61.489v358.621c0 33.905 27.584 61.489 61.488 61.489h248.219c33.904 0 61.488-27.583 61.488-61.489v-358.621c0-33.905-27.584-61.489-61.489-61.489zm-155.132 428.901h-88.267c-8.284 0-15-6.716-15-15s6.716-15 15-15h88.267c8.284 0 15 6.716 15 15s-6.716 15-15 15zm127.064-54.449h-215.331c-8.284 0-15-6.716-15-15s6.716-15 15-15h215.331c8.284 0 15 6.716 15 15s-6.716 15-15 15zm-230.331-69.45c0-8.284 6.716-15 15-15h187.979c8.284 0 15 6.716 15 15s-6.716 15-15 15h-187.979c-8.284 0-15-6.716-15-15zm263.179-111.32c-6.365 5.301-15.823 4.439-21.126-1.929l-13.134-15.773-12.188 15.461c-2.845 3.608-7.186 5.714-11.78 5.714h-37.366c-5.45 0-10.472-2.956-13.116-7.722l-19.129-34.472-39.632 83.618c-2.309 4.871-7.054 8.129-12.429 8.533-.377.029-.754.042-1.129.042-4.963 0-9.637-2.462-12.438-6.62l-29.224-43.38h-25.488c-8.284 0-15-6.716-15-15s6.716-15 15-15h33.471c4.989 0 9.652 2.481 12.44 6.62l18.968 28.156 40.856-86.2c2.408-5.081 7.455-8.388 13.075-8.568 5.589-.188 10.867 2.798 13.596 7.714l29.01 52.278h21.26l19.144-24.286c2.801-3.553 7.056-5.652 11.579-5.712.067-.001.135-.001.201-.001 4.45 0 8.675 1.977 11.527 5.402l24.98 30c5.301 6.366 4.438 15.824-1.928 21.125z"/></svg>