<svg id="Layer_1" enable-background="new 0 0 512 512" height="512" viewBox="0 0 512 512" width="512" xmlns="http://www.w3.org/2000/svg"><path d="m270.14 146.739c-7.63-67.54-65.1-120.19-134.64-120.19-74.71 0-135.5 60.78-135.5 135.5v78.95h174.39c19.58-41.72 53.68-75.32 95.75-94.26z"/><path d="m156.23 322.649c0-17.88 2.45-35.2 7.03-51.65h-163.26v78.95c0 74.72 60.79 135.5 135.5 135.5 28.63 0 56.01-9 78.65-25.15-35.72-35.03-57.92-83.8-57.92-137.65z"/><path d="m349.199 159.849c-89.769 0-162.801 73.032-162.801 162.801 0 39.495 14.137 75.751 37.617 103.972l229.155-229.157c-28.221-23.479-64.476-37.616-103.971-37.616z"/><path d="m474.383 218.678-229.156 229.157c28.221 23.479 64.476 37.616 103.971 37.616 89.77 0 162.802-73.032 162.802-162.801 0-39.495-14.137-75.75-37.617-103.972z"/></svg>