<svg id="Layer_1" enable-background="new 0 0 512 512" height="512" viewBox="0 0 512 512" width="512" xmlns="http://www.w3.org/2000/svg"><path d="m408.866 354.323h-34.314v157.677h27.551v-37.997c0-8.284 6.716-15 15-15s15 6.716 15 15v37.997h34.836c24.847 0 45.061-20.181 45.061-44.986v-9.78c0-56.745-46.266-102.911-103.134-102.911z"/><path d="m186 354.32h-19.73v157.68h16.72l19.01-110.82c-9.99-11.97-16-27.35-16-44.11z"/><path d="m324.24 357.07c0 16.76-6.01 32.14-16 44.11l19.01 110.82h17.3v-157.68h-20.31z"/><path d="m0 457.234v9.78c0 24.805 20.214 44.986 45.062 44.986h34.836v-37.997c0-8.284 6.716-15 15-15s15 6.716 15 15v37.997h26.375v-157.677h-33.139c-56.868 0-103.134 46.166-103.134 102.911z"/><path d="m66.01 221.58c0 29.47 22.59 53.67 51.38 56.22-4.22-13.51-6.49-27.86-6.49-42.73l-.02-68.75c-25.62 5.32-44.87 28.04-44.87 55.26z"/><path d="m110.87 135.57-.01-21.26c-.03-25.01 6.28-49.05 18.15-70.3-.92-.02-1.85-.03-2.8-.03-48.11 0-87.26 39.17-87.26 87.3 0 15.4 3.77 30.09 10.88 43.1 13.43-20.74 35.48-35.39 61.04-38.81z"/><path d="m401.169 235.07c0 14.87-2.27 29.22-6.49 42.73 28.79-2.55 51.38-26.75 51.38-56.22 0-27.22-19.25-49.94-44.87-55.26z"/><path d="m401.199 135.57c25.56 3.42 47.61 18.07 61.04 38.81 7.11-13.01 10.88-27.7 10.88-43.1 0-48.13-39.15-87.3-87.26-87.3-.95 0-1.88.01-2.8.03 11.87 21.25 18.18 45.29 18.15 70.3z"/><path d="m255.101 0h-.004c-30.509 0-59.188 11.893-80.75 33.487-21.562 21.593-33.42 50.294-33.392 80.809l.045 120.773c0 49.082 31.284 91.011 75 106.976v17.657c0 13.759 7.14 25.854 17.925 32.802l-18.925 119.496h80.237l-18.921-119.497c10.783-6.948 17.921-19.042 17.921-32.8v-17.657c43.716-15.966 75-57.894 75-106.976l.001-120.87c.002-62.968-51.2-114.198-114.137-114.2zm29.904 104.258h-54.209c-8.284 0-15-6.716-15-15s6.716-15 15-15h54.209c8.284 0 15 6.716 15 15s-6.715 15-15 15z"/></svg>