<svg id="Layer_1" enable-background="new 0 0 512 512" height="512" viewBox="0 0 512 512" width="512" xmlns="http://www.w3.org/2000/svg"><path d="m294.24 359.7v-18.2c-12.73 4.9-26.55 7.59-40.99 7.59-13.04 0-25.57-2.19-37.25-6.23v16.84c0 10.78 4.38 20.53 11.46 27.59 1.96 1.955 4.128 3.703 6.466 5.209l-19.926 119.501h82.237l-19.922-119.5c10.784-6.948 17.925-19.043 17.925-32.8z"/><path d="m0 457.234v9.78c0 24.805 20.214 44.986 45.062 44.986h33.955v-37.144c0-8.284 6.716-15 15-15s15 6.716 15 15v37.144h27.256v-157.677h-33.139c-56.868 0-103.134 46.166-103.134 102.911z"/><path d="m186 354.32h-19.73v157.68h16.72l18.63-108.64c-9.76-11.91-15.62-27.11-15.62-43.66z"/><path d="m324.24 359.7c0 16.55-5.86 31.75-15.62 43.66l18.63 108.64h17.3v-157.68h-20.31z"/><path d="m408.866 354.323h-34.314v157.677h26.669v-37.144c0-8.284 6.716-15 15-15s15 6.716 15 15v37.144h35.717c24.847 0 45.062-20.181 45.062-44.986v-9.78c0-56.745-46.266-102.911-103.134-102.911z"/><path d="m337.37 181.69c.01-3.08-1.64-5.03-2.62-5.91-1-.91-3.15-2.37-6.29-2.05-9.85 1-19.93 1.5-29.98 1.5-44 0-84.75-8.94-117.84-25.87-1.28-.66-2.49-.89-3.58-.89-1.93 0-3.45.75-4.18 1.19-1.16.71-3.85 2.8-3.84 6.86l.09 78.78c0 46.21 37.73 83.79 84.12 83.79 46.38 0 84.12-37.58 84.12-83.78z"/><path d="m67.95 340.81 114.7-16.18c-26.49-20.84-43.52-53.13-43.52-89.32l-.09-78.75c-.02-13.36 6.78-25.5 18.17-32.48 11.37-6.96 25.24-7.5 37.1-1.43 28.87 14.78 64.9 22.58 104.17 22.58 9.04 0 18.1-.45 26.95-1.35 10.73-1.09 21.45 2.43 29.44 9.64 7.95 7.19 12.51 17.45 12.5 28.17v53.62c0 36.06-16.91 68.25-43.24 89.11l116.25 16.39c.71.1 1.41.15 2.11.15 6.89 0 13.02-4.75 14.6-11.64 1.75-7.59-2.6-15.25-10.02-17.64-.19-.06-19.76-6.76-26.36-23.01-4.32-10.61-2.3-23.93 5.98-39.58 25.28-47.75 17.68-91.87 14.74-104.26-9.79-41.3-34.25-78.52-68.89-104.79-34.05-25.82-76.43-40.04-119.33-40.04-42.82 0-84.89 14.24-118.46 40.11-33.95 26.15-58.04 63.34-67.85 104.72-2.93 12.39-10.54 56.51 14.74 104.26 8.25 15.57 10.28 28.84 6.06 39.41-6.53 16.34-26.32 23.14-26.44 23.18-7.41 2.39-11.76 10.05-10.02 17.64s9.01 12.58 16.71 11.49z"/></svg>