<svg id="Layer_1" enable-background="new 0 0 512 512" height="512" viewBox="0 0 512 512" width="512" xmlns="http://www.w3.org/2000/svg"><ellipse cx="164.501" cy="210.803" rx="20.085" ry="20.043"/><path d="m502.387 317.397-48.432-18.651c3.598-15.645 3.299-31.43-.954-46.309-1.619-5.666-3.783-11.087-6.458-16.219l37.182-34.864c6.044-5.666 6.349-15.159.683-21.203-5.667-6.042-15.16-6.348-21.202-.682l-35.047 32.863c-3.369-3.096-7.012-5.976-10.915-8.62-13.871-9.4-26.358-13.477-37.564-14.227l-3.124-38.665c-.667-8.257-7.891-14.404-16.159-13.743-8.258.667-14.41 7.902-13.743 16.159l3.384 41.879c-9.232 4.09-17.154 9.674-23.886 14.419-11.201 7.896-18.38 12.651-24.519 11.092-9.293-2.366-20.269-17.013-29.6-32.566l35.514-27.79c6.523-5.105 7.674-14.533 2.569-21.057s-14.531-7.676-21.057-2.57l-31.468 24.624c-9.718-19.363-22.358-34.933-37.23-46.02l24.439-38.141c4.47-6.976 2.437-16.253-4.537-20.723-6.974-4.468-16.252-2.438-20.722 4.537l-25.743 40.177c-18.559-6.407-38.516-6.733-57.499-1.004l-22.632-41.3c-3.979-7.264-13.095-9.927-20.363-5.946-7.265 3.981-9.927 13.098-5.945 20.363l21.826 39.829c-18.229 12.316-32.929 30.618-41.812 52.443l-48.313-13.57c-7.975-2.239-16.257 2.411-18.497 10.385-2.24 7.976 2.41 16.257 10.386 18.497l48.36 13.583c-3.652 22.288-2.156 46.396 4.466 71.315l-45.588 9.543c-8.108 1.697-13.305 9.646-11.608 17.755 1.48 7.072 7.717 11.93 14.666 11.93 1.019 0 2.053-.104 3.089-.321l49.391-10.339c7.971 17.569 19.343 33.612 33.653 47.529l-34.637 32.04c-6.082 5.625-6.451 15.115-.826 21.197 2.956 3.196 6.98 4.814 11.015 4.814 3.643 0 7.296-1.319 10.181-3.989l37.763-34.932c18.01 12.272 38.814 21.917 62.193 28.857l-18.591 32.395c-4.124 7.185-1.642 16.352 5.544 20.476 2.353 1.351 4.919 1.993 7.452 1.993 5.197 0 10.251-2.705 13.023-7.536l23.006-40.088c6.279 1.153 12.709 2.141 19.287 2.961 14.099 1.757 27.819 2.63 41.072 2.629.792 0 1.582-.003 2.371-.01l.648 43.627c.122 8.207 6.813 14.777 14.993 14.777.076 0 .152 0 .228-.001 8.283-.124 14.898-6.938 14.775-15.222l-.669-45.012c23.921-2.814 45.786-8.84 64.899-17.992.254-.122.508-.244.761-.367l27.801 46.193c2.815 4.678 7.777 7.268 12.866 7.268 2.633 0 5.3-.694 7.721-2.151 7.098-4.272 9.389-13.489 5.116-20.586l-27.854-46.28c15.084-11.302 27.199-24.922 35.624-40.119l48.465 18.664c1.772.683 3.595 1.006 5.388 1.006 6.023 0 11.706-3.655 14.001-9.613 2.977-7.733-.877-16.414-8.607-19.391zm-337.886-56.551c-27.617 0-50.084-22.449-50.084-50.043s22.467-50.043 50.084-50.043 50.084 22.449 50.084 50.043-22.467 50.043-50.084 50.043zm118.106 72.511c-8.501 4.328-17.791 6.472-27.057 6.472-11.331 0-22.626-3.204-32.41-9.536-10.016-6.483-17.77-15.693-22.423-26.634-3.243-7.624.308-16.432 7.932-19.675 7.622-3.243 16.43.309 19.674 7.932 2.303 5.412 6.147 9.974 11.119 13.192 8.834 5.717 20.158 6.299 29.555 1.514 7.38-3.757 16.413-.821 20.173 6.561 3.757 7.383.82 16.415-6.563 20.174zm95.835-22.151c-6.401 8.095-14.969 14.021-24.781 17.139-1.51.48-3.042.708-4.547.708-6.359 0-12.263-4.076-14.291-10.46-2.51-7.895 1.856-16.329 9.752-18.839 4.086-1.299 7.66-3.773 10.336-7.157 4.745-6.001 5.936-14.151 3.107-21.27-3.06-7.699.701-16.42 8.4-19.479 7.696-3.059 16.42.702 19.478 8.4 6.776 17.05 3.919 36.575-7.454 50.958z"/></svg>