<svg id="Layer_1" enable-background="new 0 0 512.003 512.003" height="512" viewBox="0 0 512.003 512.003" width="512" xmlns="http://www.w3.org/2000/svg"><path d="m505.44 368.252-53.689-36.537v-47.307l53.689-36.537c6.849-4.661 8.623-13.991 3.962-20.84s-13.992-8.622-20.84-3.962l-51.782 35.239-33.617-22.877-71.912 48.937v83.514l30.25 20.586v55.283c0 8.284 6.716 15 15 15s15-6.716 15-15v-55.283l45.161-30.733 51.9 35.319c2.583 1.758 5.519 2.601 8.425 2.601 4.797 0 9.512-2.297 12.415-6.563 4.661-6.848 2.888-16.179-3.962-20.84z"/><path d="m241.001 144.021-30.25-20.586v-55.162c0-8.284-6.716-15-15-15s-15 6.716-15 15v55.162l-45.25 30.794-51.811-35.258c-6.848-4.66-16.179-2.887-20.84 3.962s-2.887 16.179 3.962 20.84l53.689 36.537v26.771l75.25 51.209 45.25-30.793z"/><path d="m391.501 180.309 53.689-36.537c6.849-4.661 8.623-13.991 3.962-20.84s-13.991-8.623-20.84-3.962l-51.811 35.259-45.25-30.794v-55.184c0-8.284-6.716-15-15-15s-15 6.716-15 15v55.184l-30.25 20.586v83.474l45.25 30.793 75.25-51.209z"/><path d="m210.751 284.369v83.514l30.25 20.586v55.283c0 8.284 6.716 15 15 15s15-6.716 15-15v-55.283l30.25-20.586v-83.514l-45.25-30.793z"/><path d="m75.222 258.309-51.782-35.239c-6.847-4.661-16.179-2.887-20.84 3.962s-2.887 16.179 3.962 20.84l53.689 36.537v47.307l-53.689 36.536c-6.849 4.661-8.623 13.991-3.962 20.84 2.903 4.266 7.617 6.563 12.415 6.563 2.906 0 5.842-.843 8.425-2.601l51.9-35.319 45.161 30.733v55.283c0 8.284 6.716 15 15 15s15-6.716 15-15v-55.283l30.25-20.586v-83.514l-71.912-48.937z"/></svg>