<svg id="Layer_1" enable-background="new 0 0 512 512" height="512" viewBox="0 0 512 512" width="512" xmlns="http://www.w3.org/2000/svg"><path d="m500.27 11.721c-15.641-15.628-40.999-15.628-56.639 0l-73.428 73.778 56.639 56.594 73.428-73.778c15.64-15.628 15.64-40.966 0-56.594z"/><path d="m311.262 69.032c-5.862-5.858-15.368-5.858-21.23 0s-5.862 15.355 0 21.213l9.295 9.288-40.707 40.674 41.462 41.415.002.002c5.862 5.857 5.863 15.353.002 21.211-5.861 5.859-15.367 5.86-21.23.003l-41.465-41.419-23.686 23.667 41.437 41.39.002.002c5.862 5.857 5.863 15.353.002 21.211-5.861 5.859-15.367 5.86-21.23.003l-41.44-41.393-23.571 23.552 41.411 41.364.002.002c5.862 5.857 5.863 15.353.002 21.211-5.861 5.859-15.367 5.86-21.23.003l-41.415-41.368-23.686 23.667 41.386 41.339.002.002c5.862 5.857 5.863 15.353.002 21.211-5.861 5.859-15.367 5.86-21.23.003l-41.389-41.343-14.838 14.826c-27.657 27.635-30.863 70.59-9.619 101.777l-73.906 73.848c-5.862 5.858-5.862 15.355 0 21.213s15.368 5.858 21.23 0l73.903-73.844c31.212 21.227 74.201 18.024 101.858-9.611l211.408-211.239 9.295 9.288c5.862 5.858 15.368 5.858 21.23 0s5.862-15.355 0-21.213z"/></svg>