<svg id="Layer_1" enable-background="new 0 0 512 512" height="512" viewBox="0 0 512 512" width="512" xmlns="http://www.w3.org/2000/svg"><path d="m170.553 31.145 85.447 110.482 85.447-110.482z"/><path d="m42.52 78.825c-25.83 10.45-42.52 35.22-42.52 63.08v220.36c0 8.29 6.72 15 15 15h63.12v-164.17c0-8.28 6.72-15 15-15 8.29 0 15 6.72 15 15l.07 213.77c0 29.77 24.22 53.99 53.99 53.99h78.82v-309.585l-101.778-131.6zm115.671 275.745h36.483c8.284 0 15 6.716 15 15s-6.716 15-15 15h-36.483c-8.284 0-15-6.716-15-15s6.716-15 15-15z"/><path d="m469.48 78.825-96.701-39.154-101.779 131.599v309.585h78.82c29.77 0 53.99-24.22 53.99-53.99v-213.61c0-8.28 7.05-15.16 15.33-15.16 8.29 0 15 6.72 15 15v164.17h62.86c8.28 0 15-6.71 15-15v-220.36c0-27.86-16.69-52.63-42.52-63.08zm-115.671 305.745h-36.483c-8.284 0-15-6.716-15-15s6.716-15 15-15h36.483c8.284 0 15 6.716 15 15s-6.716 15-15 15z"/></svg>