<svg id="Layer_1" enable-background="new 0 0 512 512" height="512" viewBox="0 0 512 512" width="512" xmlns="http://www.w3.org/2000/svg"><path d="m173.926 320.78c14.39 0 26.111-11.691 26.16-26.069.028-8.086 6.616-14.88 14.702-14.98 8.306-.103 15.068 6.606 15.068 14.889 0 14.42 11.74 26.16 26.16 26.16s26.16-11.74 26.16-26.16c0-8.283 6.762-14.992 15.068-14.889 8.085.1 14.674 6.894 14.702 14.98.049 14.378 11.77 26.069 26.16 26.069 14.37 0 26.07-11.65 26.16-26l-42.23-73.22v-161.56h-132.08v161.56l-42.19 73.16c.05 14.37 11.77 26.06 26.16 26.06z"/><path d="m203.386 408.74c-10.83 0-19.64 8.81-19.64 19.65 0 10.83 8.81 19.64 19.64 19.64 10.84 0 19.65-8.81 19.65-19.64 0-10.84-8.81-19.65-19.65-19.65z"/><path d="m434.986 417.42-51.77-89.77c-10.19 13.88-26.62 22.9-45.11 22.9-16.21 0-30.82-6.94-41.05-17.99-10.22 11.05-24.83 17.99-41.04 17.99s-30.82-6.94-41.04-17.99c-10.23 11.05-24.84 17.99-41.05 17.99-18.51 0-34.95-9.04-45.13-22.93l-51.79 89.8c-11.39 19.75-11.38 43.34.02 63.08 11.4 19.73 31.79 31.5 54.55 31.5h248.85c22.76 0 43.15-11.77 54.54-31.5 11.41-19.74 11.42-43.33.02-63.08zm-231.6 60.61c-27.37 0-49.64-22.27-49.64-49.64 0-27.38 22.27-49.65 49.64-49.65 27.38 0 49.65 22.27 49.65 49.65 0 27.37-22.27 49.64-49.65 49.64zm126.95-13.29c-9.63 6.86-20.95 10.64-32.73 10.93h-.38c-8.11 0-14.79-6.47-14.99-14.63-.2-8.28 6.35-15.16 14.63-15.36 5.77-.14 11.33-2 16.07-5.38 8.41-5.98 13.03-16.1 12.06-26.4-.79-8.25 5.27-15.56 13.52-16.34 8.24-.78 15.56 5.27 16.34 13.52 1.98 20.92-7.42 41.48-24.52 53.66z"/><path d="m184.963 30h142.072c8.284 0 15-6.716 15-15s-6.716-15-15-15h-142.072c-8.284 0-15 6.716-15 15s6.715 15 15 15z"/></svg>