<svg id="Layer_1" enable-background="new 0 0 512 512" height="512" viewBox="0 0 512 512" width="512" xmlns="http://www.w3.org/2000/svg"><path d="m376.5 208.977c-2.402 0-4.789.084-7.169.207 14.178-21.609 22.169-47.295 22.169-74.411 0-37.209-15.545-73.182-42.648-98.694-6.034-5.681-15.527-5.393-21.204.641-5.678 6.032-5.391 15.525.641 21.203 21.417 20.16 33.211 47.452 33.211 76.851 0 38.728-20.903 73.731-54.155 92.21-12.251-14.75-30.718-24.161-51.345-24.161s-39.095 9.411-51.345 24.161c-33.251-18.479-54.155-53.481-54.155-92.21 0-29.398 11.794-56.691 33.21-76.851 6.032-5.678 6.319-15.171.641-21.203s-15.171-6.32-21.204-.641c-27.103 25.511-42.647 61.485-42.647 98.694 0 27.116 7.992 52.802 22.169 74.411-2.38-.123-4.767-.207-7.169-.207-74.715 0-135.5 60.79-135.5 135.512 0 8.284 6.716 15 15 15s15-6.716 15-15c0-58.18 47.327-105.512 105.5-105.512 19.869 0 38.836 5.427 55.45 15.745-1.089 4.775-1.683 9.737-1.683 14.837 0 31.472 21.903 57.908 51.26 64.908.313 3.326.473 6.674.473 10.022 0 58.18-47.327 105.512-105.5 105.512-8.284 0-15 6.716-15 15s6.716 15 15 15c52.416 0 97.974-29.921 120.5-73.581 22.526 43.659 68.084 73.581 120.5 73.581 8.284 0 15-6.716 15-15s-6.716-15-15-15c-58.173 0-105.5-47.332-105.5-105.512 0-3.349.16-6.696.473-10.022 29.357-7 51.26-33.435 51.26-64.908 0-5.101-.594-10.062-1.683-14.838 16.614-10.318 35.581-15.744 55.45-15.744 58.173 0 105.5 47.332 105.5 105.512 0 8.284 6.716 15 15 15s15-6.716 15-15c0-74.722-60.785-135.512-135.5-135.512z"/></svg>