<svg id="Layer_1" enable-background="new 0 0 512 512" height="512" viewBox="0 0 512 512" width="512" xmlns="http://www.w3.org/2000/svg"><path d="m426.015 42.04h-78.576l-1.19-11.474c-1.808-17.425-16.382-30.566-33.901-30.566-9.635 0-18.861 4.104-25.313 11.26s-9.582 16.756-8.588 26.339l.461 4.441h-45.813l.461-4.441c.994-9.583-2.136-19.184-8.588-26.339-6.452-7.156-15.678-11.26-25.312-11.26-17.519 0-32.093 13.141-33.901 30.566l-1.19 11.474h-78.58c-26.91 0-48.81 21.89-48.81 48.81v209.3c0 26.92 21.9 48.81 48.81 48.81h340.03c26.92 0 48.81-21.89 48.81-48.81v-209.3c0-26.92-21.89-48.81-48.81-48.81zm-234.24 195.92c0 8.28-6.72 15-15 15s-15-6.72-15-15v-27.46h-29.91v27.46c0 8.28-6.72 15-15 15s-15-6.72-15-15v-84.92c0-8.28 6.72-15 15-15s15 6.72 15 15v27.46h29.91v-27.46c0-8.28 6.72-15 15-15s15 6.72 15 15zm108.99-42.46c0 8.28-6.72 15-15 15h-44.52v12.46h44.52c8.28 0 15 6.71 15 15 0 8.28-6.72 15-15 15h-59.52c-8.29 0-15-6.72-15-15v-42.46c0-8.28 6.71-15 15-15h44.52v-12.46h-44.52c-8.29 0-15-6.71-15-15 0-8.28 6.71-15 15-15h59.52c8.28 0 15 6.72 15 15zm109 42.46c0 8.28-6.72 15-15 15h-59.52c-8.29 0-15-6.72-15-15v-84.92c0-8.28 6.71-15 15-15h59.52c8.28 0 15 6.72 15 15z"/><path d="m350.245 168.04h29.52v54.92h-29.52z"/><path d="m449.826 378.519h-387.648c-8.284 0-15 6.716-15 15s6.716 15 15 15h64.372l-7.42 65.881c-1 9.58 2.13 19.18 8.58 26.34 6.46 7.16 15.68 11.26 25.32 11.26 17.51 0 32.09-13.14 33.9-30.57l8.15-72.911h121.85l7.215 72.911c1.8 17.43 16.38 30.57 33.9 30.57 9.63 0 18.86-4.1 25.31-11.26s9.58-16.75 8.59-26.34l-6.486-65.881h64.366c8.284 0 15-6.716 15-15s-6.715-15-14.999-15z"/></svg>