<svg id="Layer_1" enable-background="new 0 0 512 512" height="512" viewBox="0 0 512 512" width="512" xmlns="http://www.w3.org/2000/svg"><path d="m319.162 265.545c0-34.779-28.335-63.075-63.162-63.075s-63.162 28.295-63.162 63.075 28.335 63.076 63.162 63.076 63.162-28.295 63.162-63.076z"/><path d="m181.058 185.644c1.114 1.992 3.05 3.39 5.291 3.819 2.242.43 4.558-.155 6.328-1.595 17.816-14.493 40.305-22.475 63.323-22.475 23.908 0 47.066 8.54 65.208 24.047 1.409 1.205 3.193 1.853 5.02 1.853.417 0 .838-.034 1.256-.103 2.247-.37 4.217-1.714 5.382-3.672l64.947-109.114c4.502-7.562 5.727-16.407 3.452-24.905-2.258-8.437-7.687-15.427-15.284-19.683-39.487-22.123-84.433-33.816-129.981-33.816-43.043 0-85.798 10.504-123.644 30.378-7.832 4.113-13.527 11.032-16.039 19.485-2.496 8.401-1.515 17.241 2.761 24.892z"/><path d="m223.257 360.237c-36.036-12.417-62.273-44.814-66.842-82.536-.267-2.203-1.468-4.186-3.298-5.442-1.831-1.256-4.113-1.665-6.263-1.121l-122.398 30.907c-8.547 2.158-15.936 7.794-20.271 15.462-4.364 7.72-5.355 16.633-2.789 25.095 11.122 36.68 30.601 71.241 56.33 99.949 25.576 28.538 57.621 51.632 92.669 66.785 4.112 1.778 8.496 2.664 12.876 2.664 4.753 0 9.503-1.045 13.894-3.128 8.406-3.988 14.684-11.403 17.224-20.344l33.781-118.873c1.123-3.947-1.035-8.081-4.913-9.418z"/><path d="m507.814 317.507c-4.335-7.668-11.724-13.304-20.271-15.462l-122.398-30.906c-2.15-.544-4.434-.135-6.263 1.121-1.83 1.256-3.031 3.237-3.298 5.442-4.568 37.722-30.805 70.119-66.842 82.536-3.878 1.336-6.036 5.471-4.914 9.418l33.781 118.874c2.54 8.941 8.818 16.355 17.224 20.343 4.391 2.084 9.139 3.128 13.894 3.128 4.379 0 8.764-.886 12.877-2.665 35.048-15.152 67.092-38.246 92.668-66.784 25.729-28.708 45.208-63.269 56.331-99.949 2.566-8.463 1.575-17.375-2.789-25.096z"/></svg>