<svg id="Layer_1" enable-background="new 0 0 512 512" height="512" viewBox="0 0 512 512" width="512" xmlns="http://www.w3.org/2000/svg"><path d="m95.921 59.738h320.157c16.524 0 29.918-13.373 29.918-29.869.001-16.496-13.394-29.869-29.917-29.869h-320.158c-16.523 0-29.918 13.373-29.918 29.869 0 16.497 13.395 29.869 29.918 29.869z"/><path d="m416.079 452.261h-320.158c-16.523 0-29.918 13.373-29.918 29.869s13.395 29.869 29.918 29.869h320.157c16.524 0 29.918-13.373 29.918-29.869.001-16.496-13.394-29.869-29.917-29.869z"/><path d="m95.919 285.87h69.173c-3.115-9.4-4.798-19.44-4.798-29.87s1.683-20.47 4.798-29.87h-69.173c-16.517 0-29.919 13.37-29.919 29.87 0 8.25 3.355 15.72 8.764 21.12 5.419 5.41 12.901 8.75 21.155 8.75z"/><path d="m446 256c0-8.25-3.355-15.72-8.764-21.12-5.419-5.41-12.901-8.75-21.154-8.75h-69.173c3.115 9.4 4.798 19.44 4.798 29.87s-1.683 20.47-4.798 29.87h69.173c16.516 0 29.918-13.37 29.918-29.87z"/><path d="m330.522 196.13h85.56c2.434 0 4.828.15 7.182.43v-107.25c-2.354.28-4.748.43-7.182.43h-320.163c-2.434 0-4.828-.15-7.182-.43v107.25c2.354-.28 4.748-.43 7.182-.43h85.56c17.539-21.75 44.432-35.68 74.522-35.68s56.982 13.93 74.521 35.68z"/><path d="m88.737 315.44v107.25c2.354-.28 4.748-.43 7.182-.43h320.163c2.434 0 4.828.15 7.182.43v-107.25c-2.354.28-4.748.43-7.182.43h-85.56c-17.538 21.75-44.432 35.68-74.522 35.68s-56.983-13.93-74.522-35.68h-85.56c-2.433 0-4.827-.15-7.181-.43z"/><ellipse cx="256" cy="256" rx="65.656" ry="65.549"/></svg>