<svg id="Layer_1" enable-background="new 0 0 512 512" height="512" viewBox="0 0 512 512" width="512" xmlns="http://www.w3.org/2000/svg"><path d="m218.81 202.57h109.6v39.66h-109.6z"/><path d="m419.93 50.1h-58.685v-35.1c0-8.284-6.716-15-15-15s-15 6.716-15 15v35.1h-25.1v-39.703c.001-5.742-4.654-10.397-10.396-10.397h-44.281c-5.742 0-10.397 4.655-10.397 10.397v39.703h-24.824v-39.703c0-5.742-4.655-10.397-10.398-10.397h-44.281c-5.742 0-10.397 4.655-10.397 10.397v39.703h-67.451c-8.28 0-15 6.72-15 15v57.98h50.22c8.29 0 15 6.72 15 15 0 8.29-6.71 15-15 15h-50.22v39.99h50.22c8.29 0 15 6.71 15 15 0 8.28-6.71 15-15 15h-50.22v42.98h50.22c8.29 0 15 6.72 15 15s-6.71 15-15 15h-50.22v42.05h50.22c8.29 0 15 6.71 15 15 0 8.28-6.71 15-15 15h-50.22v39.98h50.22c8.29 0 15 6.72 15 15 0 8.29-6.71 15-15 15h-50.22v58.92c0 8.28 6.72 15 15 15h336.21c32.29 0 58.57-26.27 58.57-58.57v-344.76c0-32.29-26.28-58.57-58.57-58.57zm-106.51 339.43h-79.63c-8.28 0-15-6.71-15-15 0-8.28 6.72-15 15-15h79.63c8.29 0 15 6.72 15 15 0 8.29-6.71 15-15 15zm29.99-49.64h-139.6c-8.29 0-15-6.72-15-15 0-8.29 6.71-15 15-15h139.6c8.28 0 15 6.71 15 15 0 8.28-6.72 15-15 15zm15-82.66c0 8.29-6.72 15-15 15h-139.6c-8.29 0-15-6.71-15-15v-69.66c0-8.28 6.71-15 15-15h139.6c8.28 0 15 6.72 15 15z"/><path d="m48.5 266.05c-8.29 0-15 6.72-15 15s6.71 15 15 15h20.22v-30z"/><path d="m48.5 123.08c-8.29 0-15 6.72-15 15 0 8.29 6.71 15 15 15h20.22v-30z"/><path d="m48.5 193.07c-8.29 0-15 6.71-15 15 0 8.28 6.71 15 15 15h20.22v-30z"/><path d="m48.5 338.1c-8.29 0-15 6.71-15 15 0 8.28 6.71 15 15 15h20.22v-30z"/><path d="m48.5 408.08c-8.29 0-15 6.72-15 15 0 8.29 6.71 15 15 15h20.22v-30z"/></svg>