<svg id="Layer_1" enable-background="new 0 0 512 512" height="512" viewBox="0 0 512 512" width="512" xmlns="http://www.w3.org/2000/svg"><path d="m108.848 461.069c0 28.083 22.848 50.931 50.931 50.931h192.441c28.083 0 50.931-22.848 50.931-50.931v-31.247h-294.303z"/><path d="m352.221 73.918h-192.442c-28.083 0-50.931 22.848-50.931 50.931v31.315h294.304v-31.315c0-28.083-22.848-50.931-50.931-50.931z"/><path d="m353.152 39.394c0-21.722-17.672-39.394-39.394-39.394h-115.516c-21.722 0-39.394 17.672-39.394 39.394v4.524h194.304z"/><path d="m256 242.09c-14.26 0-25.86 11.61-25.86 25.87v10h51.72v-10c0-14.26-11.6-25.87-25.86-25.87z"/><path d="m230.14 317.96c0 14.26 11.6 25.86 25.86 25.86s25.86-11.6 25.86-25.86v-10h-51.72z"/><path d="m108.85 186.16v213.66h294.3v-213.66zm203.01 131.8c0 30.8-25.06 55.86-55.86 55.86s-55.86-25.06-55.86-55.86v-50c0-30.8 25.06-55.87 55.86-55.87s55.86 25.07 55.86 55.87z"/></svg>