<svg id="Layer_1" enable-background="new 0 0 512 512" height="512" viewBox="0 0 512 512" width="512" xmlns="http://www.w3.org/2000/svg"><path d="m256.005 174.062c-46.642 0-84.583 37.916-84.583 84.526 0 46.6 37.941 84.526 84.583 84.526 46.632 0 84.583-37.926 84.583-84.526 0-46.611-37.952-84.526-84.583-84.526zm15 84.526c0 8.275-6.72 14.99-15.001 14.99-8.29 0-15.001-6.716-15.001-14.99v-39.974c0-8.285 6.71-14.99 15.001-14.99 8.28 0 15.001 6.706 15.001 14.99z"/><path d="m511.264 335.278-19.301-140.2c-3.91-28.372-17.911-54.365-39.431-73.183-21.541-18.828-49.132-29.201-77.713-29.201h-17.592v-19.713h68.808c8.284 0 15.001-6.712 15.001-14.99s-6.716-14.991-15.001-14.991h-339.461c-8.284 0-15.001 6.712-15.001 14.99s6.716 14.99 15.001 14.99h68.808v19.713h-18.202c-28.571 0-56.172 10.373-77.713 29.201-21.521 18.818-35.521 44.811-39.431 73.183l-19.301 140.2c-3.1 22.535 3.69 45.281 18.621 62.4 14.861 17.029 36.331 26.803 58.902 26.803h28.316v31.785c0 7.033 5.705 12.733 12.742 12.733h38.324c7.037 0 12.742-5.701 12.742-12.733v-31.785h171.845v31.785c0 7.033 5.705 12.733 12.742 12.733h38.324c7.037 0 12.742-5.701 12.742-12.733v-31.785h27.716c22.561 0 44.032-9.774 58.892-26.803 14.941-17.118 21.721-39.863 18.621-62.399zm-325.881-262.297h141.843v19.713h-141.843zm70.622 300.113c-63.182 0-114.584-51.367-114.584-114.507s51.402-114.507 114.584-114.507 114.584 51.367 114.584 114.507-51.402 114.507-114.584 114.507z"/></svg>