<svg id="Layer_1" enable-background="new 0 0 512 512" height="512" viewBox="0 0 512 512" width="512" xmlns="http://www.w3.org/2000/svg"><path d="m449.708 40.962c0-22.587-18.375-40.962-40.962-40.962h-305.492c-22.587 0-40.962 18.375-40.962 40.962v65h387.416z"/><path d="m349.08 349.96h16.23v75.61h-16.23z"/><path d="m62.29 135.96v335.08c0 22.58 18.38 40.96 40.96 40.96h305.5c22.58 0 40.96-18.38 40.96-40.96v-335.08zm69.4 37.19h46.23c8.28 0 15 6.72 15 15s-6.72 15-15 15h-46.23c-8.28 0-15-6.72-15-15s6.72-15 15-15zm0 74.42h46.23c8.28 0 15 6.72 15 15 0 8.29-6.72 15-15 15h-46.23c-8.28 0-15-6.71-15-15 0-8.28 6.72-15 15-15zm0 72.39h46.23c8.28 0 15 6.71 15 15 0 8.28-6.72 15-15 15h-46.23c-8.28 0-15-6.72-15-15 0-8.29 6.72-15 15-15zm162.82 120.61c0 8.28-6.71 15-15 15h-147.82c-8.28 0-15-6.72-15-15v-46.23c0-8.28 6.72-15 15-15h147.82c8.29 0 15 6.72 15 15zm-15-90.61h-46.22c-8.29 0-15-6.72-15-15 0-8.29 6.71-15 15-15h46.22c8.29 0 15 6.71 15 15 0 8.28-6.71 15-15 15zm0-72.39h-46.22c-8.29 0-15-6.71-15-15 0-8.28 6.71-15 15-15h46.22c8.29 0 15 6.72 15 15 0 8.29-6.71 15-15 15zm0-74.42h-46.22c-8.29 0-15-6.72-15-15s6.71-15 15-15h46.22c8.29 0 15 6.72 15 15s-6.71 15-15 15zm115.8 237.42c0 8.28-6.72 15-15 15h-46.23c-8.28 0-15-6.72-15-15v-105.61c0-8.29 6.72-15 15-15h46.23c8.28 0 15 6.71 15 15zm-15-163h-46.23c-8.28 0-15-6.71-15-15 0-8.28 6.72-15 15-15h46.23c8.28 0 15 6.72 15 15 0 8.29-6.72 15-15 15zm0-74.42h-46.23c-8.28 0-15-6.72-15-15s6.72-15 15-15h46.23c8.28 0 15 6.72 15 15s-6.72 15-15 15z"/><path d="m146.69 409.34h117.82v16.23h-117.82z"/></svg>