<svg id="Layer_1" enable-background="new 0 0 512 512" height="512" viewBox="0 0 512 512" width="512" xmlns="http://www.w3.org/2000/svg"><path d="m256.356 157.371c30.841 0 55.932-25.079 55.932-55.906 0-7.701-2.311-22.184-22.292-58.878-10.37-19.043-20.581-35.01-21.011-35.681-2.757-4.303-7.517-6.906-12.629-6.906s-9.871 2.603-12.629 6.906c-.43.671-10.641 16.638-21.011 35.681-19.981 36.694-22.292 51.177-22.292 58.878.001 30.827 25.092 55.906 55.932 55.906z"/><path d="m389.705 157.371c30.842 0 55.933-25.079 55.933-55.906 0-7.701-2.311-22.184-22.293-58.878-10.369-19.043-20.581-35.01-21.011-35.681-2.758-4.303-7.518-6.906-12.629-6.906s-9.871 2.603-12.629 6.906c-.43.671-10.641 16.638-21.011 35.681-19.981 36.694-22.292 51.177-22.292 58.878 0 30.827 25.091 55.906 55.932 55.906z"/><path d="m122.295 157.371c30.841 0 55.932-25.079 55.932-55.906 0-7.701-2.311-22.184-22.292-58.878-10.37-19.043-20.581-35.01-21.011-35.681-2.758-4.303-7.518-6.906-12.629-6.906s-9.871 2.604-12.629 6.906c-.43.671-10.642 16.638-21.011 35.681-19.982 36.694-22.293 51.177-22.293 58.878 0 30.827 25.091 55.906 55.933 55.906z"/><path d="m430.638 198.293h-348.563c-8.284 0-15 6.716-15 15v61.562h378.563v-61.562c0-8.284-6.716-15-15-15z"/><path d="m207.647 434.964c.261.272.531.535.812.787.951.855 1.496 2.08 1.496 3.36v57.889c0 8.284 6.716 15 15 15h62.803c8.284 0 15-6.716 15-15v-57.889c0-1.28.545-2.505 1.496-3.36.28-.252.551-.515.812-.787l124.341-130.109h-346.1z"/></svg>