<svg id="Layer_1" enable-background="new 0 0 512 512" height="512" viewBox="0 0 512 512" width="512" xmlns="http://www.w3.org/2000/svg"><path d="m463.552 284.981v-57.99c27.77-6.756 48.448-31.836 48.448-61.654 0-34.983-28.463-63.445-63.448-63.445-18.855 0-35.816 8.267-47.448 21.367l-83.591-44.234c1.264-4.986 1.935-10.206 1.935-15.58 0-34.983-28.463-63.445-63.448-63.445s-63.448 28.462-63.448 63.445c0 5.374.672 10.594 1.936 15.58l-83.591 44.233c-11.632-13.1-28.592-21.367-47.448-21.367-34.986.001-63.449 28.463-63.449 63.446 0 29.818 20.678 54.898 48.448 61.654v57.99c-27.77 6.756-48.448 31.836-48.448 61.654 0 34.983 28.463 63.445 63.448 63.445 18.853 0 35.811-8.265 47.442-21.361l83.598 44.249c-1.265 4.989-1.937 10.21-1.937 15.587.001 34.983 28.464 63.445 63.449 63.445s63.448-28.462 63.448-63.445c0-5.376-.672-10.598-1.937-15.586l83.598-44.25c11.631 13.096 28.59 21.361 47.442 21.361 34.985 0 63.448-28.462 63.448-63.445.001-29.818-20.677-54.898-48.447-61.654zm-385.104 0v-57.99c13.738-3.342 25.741-11.17 34.363-21.836l81.016 38.14c-.836 4.102-1.275 8.346-1.275 12.691s.439 8.589 1.275 12.69l-81.016 38.14c-8.622-10.666-20.624-18.493-34.363-21.835zm162.552 101.92c-12.746 3.101-23.998 10.062-32.442 19.57l-83.598-44.249c1.265-4.989 1.937-10.21 1.937-15.587 0-4.345-.439-8.589-1.275-12.69l81.016-38.14c8.622 10.667 20.624 18.494 34.363 21.836v69.26zm0-192.569c-13.738 3.342-25.74 11.169-34.362 21.836l-81.016-38.141c.836-4.101 1.275-8.345 1.275-12.69 0-5.374-.672-10.594-1.936-15.58l83.591-44.233c8.445 9.511 19.699 16.474 32.448 19.576zm30-69.233c12.749-3.102 24.003-10.065 32.448-19.577l83.591 44.234c-1.264 4.987-1.936 10.207-1.936 15.58 0 4.345.439 8.589 1.275 12.69l-81.016 38.141c-8.622-10.667-20.624-18.493-34.362-21.836zm32.443 281.372c-8.444-9.508-19.696-16.469-32.443-19.57v-69.26c13.738-3.342 25.741-11.17 34.363-21.836l81.016 38.141c-.836 4.101-1.275 8.345-1.275 12.69 0 5.376.672 10.598 1.937 15.587zm130.109-121.49c-13.738 3.342-25.741 11.17-34.363 21.836l-81.016-38.14c.836-4.102 1.275-8.345 1.275-12.69s-.439-8.589-1.275-12.691l81.016-38.14c8.622 10.667 20.624 18.494 34.363 21.836z"/></svg>