<svg id="Layer_1" enable-background="new 0 0 512 512" height="512" viewBox="0 0 512 512" width="512" xmlns="http://www.w3.org/2000/svg"><path d="m180.783 398.174 217.434-217.321c2.427 3.878 5.327 7.545 8.702 10.917 24.039 24.027 63.014 24.027 87.053 0 24.039-24.026 24.039-62.981 0-87.008-22.889-22.877-59.319-23.971-83.504-3.282 20.7-24.172 19.605-60.583-3.284-83.461-24.039-24.026-63.014-24.026-87.053 0-24.039 24.027-24.039 62.981 0 87.008 3.28 3.278 6.839 6.108 10.599 8.492l-217.255 217.142c-2.363-3.699-5.161-7.2-8.393-10.431-24.039-24.026-63.014-24.026-87.053 0-24.039 24.027-24.039 62.981 0 87.008 22.889 22.877 59.319 23.971 83.504 3.282-20.699 24.172-19.605 60.583 3.284 83.46 24.039 24.027 63.014 24.027 87.053 0 24.039-24.026 24.039-62.981 0-87.008-3.422-3.419-7.147-6.352-11.087-8.798z"/><path d="m406.918 320.23c-3.233 3.231-6.03 6.733-8.393 10.431l-50.09-50.064-67.428 67.393 50.21 50.184c-3.941 2.446-7.665 5.379-11.087 8.798-24.039 24.026-24.039 62.981 0 87.008s63.014 24.027 87.053 0c22.889-22.877 23.984-59.289 3.284-83.461 24.185 20.689 60.615 19.595 83.504-3.282 24.039-24.027 24.039-62.981 0-87.008-24.039-24.026-63.014-24.026-87.053.001z"/><path d="m105.082 191.77c3.374-3.373 6.275-7.039 8.702-10.917l49.796 49.77 67.428-67.393-49.736-49.711c3.76-2.384 7.319-5.214 10.599-8.492 24.039-24.026 24.039-62.981 0-87.008-24.039-24.026-63.014-24.026-87.053 0-22.889 22.877-23.984 59.289-3.284 83.461-24.185-20.689-60.615-19.595-83.504 3.282-24.039 24.026-24.039 62.981 0 87.008 24.038 24.027 63.013 24.027 87.052 0z"/></svg>