<svg id="Layer_1" enable-background="new 0 0 512 512" height="512" viewBox="0 0 512 512" width="512" xmlns="http://www.w3.org/2000/svg"><path d="m216.26 284.26c13.48 0 24.45-10.97 24.45-24.45 0-8.28 6.72-15 15-15 8.29 0 15 6.72 15 15 0 13.48 10.97 24.45 24.45 24.45 12.77 0 23.28-9.83 24.36-22.32-6.45-12.72-16.69-23.45-29.72-30.49-13.92-7.53-22.57-22.04-22.57-37.89v-46.2h-22.46v46.2c0 15.86-8.63 30.37-22.51 37.86-13.39 7.21-23.83 18.3-30.26 31.46 1.51 12.04 11.82 21.38 24.26 21.38z"/><path d="m255.71 297.3c-9.93 10.44-23.94 16.96-39.45 16.96-12.27 0-22.76-4.07-30.89-10.94 2.04 15.52 9.25 29.95 20.81 41.35 13.57 13.38 31.24 20.71 49.84 20.71.32 0 .64 0 .95-.01 18.82-.25 36.47-7.77 49.71-21.17 10.84-10.97 17.69-24.87 19.82-39.88-8.86 6.26-19.68 9.94-31.34 9.94-15.51 0-29.52-6.52-39.45-16.96z"/><path d="m489.48 202.44h-22.76c-5.13-20.29-13.14-39.62-23.84-57.58l16.06-16.06c4.26-4.25 6.61-9.91 6.62-15.93 0-6.02-2.34-11.69-6.6-15.95l-43.87-43.87c-4.25-4.26-9.91-6.61-15.93-6.62h-.02c-6.01 0-11.67 2.35-15.93 6.6l-16.08 16.08c-17.95-10.69-37.28-18.69-57.57-23.83v-22.76c0-12.42-10.11-22.52-22.53-22.52h-62.07c-12.42 0-22.52 10.1-22.52 22.52v22.75c-20.28 5.14-39.61 13.14-57.58 23.84l-16.06-16.06c-4.25-4.26-9.9-6.61-15.92-6.62h-.02c-6.02 0-11.68 2.35-15.94 6.6l-43.87 43.88c-4.26 4.24-6.61 9.9-6.61 15.92-.01 6.02 2.33 11.69 6.59 15.95l16.09 16.08c-10.7 17.95-18.7 37.28-23.84 57.58h-22.76c-12.42 0-22.52 10.1-22.52 22.51v62.09c0 12.41 10.1 22.52 22.52 22.52h22.76c5.13 20.27 13.13 39.6 23.84 57.57l-16.07 16.07c-4.26 4.24-6.61 9.9-6.61 15.92-.01 6.02 2.33 11.69 6.59 15.95l43.88 43.87c4.24 4.26 9.9 6.61 15.92 6.62h.02c6.02 0 11.68-2.35 15.93-6.6l16.08-16.08c17.96 10.69 37.29 18.69 57.58 23.83v22.77c0 12.41 10.1 22.52 22.52 22.52h62.08c12.41 0 22.52-10.11 22.52-22.52v-22.76c20.27-5.14 39.6-13.14 57.57-23.84l16.07 16.06c4.24 4.26 9.9 6.61 15.92 6.62h.02c6.02 0 11.67-2.35 15.93-6.6l43.87-43.87c4.26-4.25 6.61-9.91 6.62-15.93 0-6.03-2.34-11.69-6.6-15.95l-16.08-16.08c10.69-17.95 18.69-37.28 23.84-57.57h22.76c12.41 0 22.52-10.11 22.52-22.52v-62.09c0-12.41-10.11-22.51-22.52-22.51zm-161.46 162.84c-18.81 19.05-43.9 29.73-70.65 30.09-.45.01-.9.01-1.36.01-26.54 0-51.67-10.39-70.89-29.35-19.55-19.27-30.33-44.77-30.35-71.8-.02-37.31 20.38-71.5 53.25-89.22 4.16-2.24 6.75-6.63 6.75-11.45v-46.96c-5.98-1.97-10.29-7.6-10.29-14.24 0-8.29 6.71-15 15-15h73.04c8.28 0 15 6.71 15 15 0 6.64-4.32 12.27-10.29 14.24v46.96c0 4.81 2.62 9.22 6.83 11.5 32.79 17.72 53.16 51.86 53.16 89.1 0 26.8-10.37 52.05-29.2 71.12z"/></svg>