<svg id="Layer_1" enable-background="new 0 0 512 512" height="512" viewBox="0 0 512 512" width="512" xmlns="http://www.w3.org/2000/svg"><path d="m422.459 66.96c-14.382 0-26.041 11.685-26.041 26.099v158.174c0 7.936-6.085 14.764-13.993 15.137-8.444.398-15.416-6.345-15.416-14.721v-190.955c0-13.108-10.602-23.735-23.681-23.735s-23.681 10.626-23.681 23.735v160.539c0 7.936-6.085 14.764-13.993 15.137-8.444.398-15.416-6.345-15.416-14.721v-197.916c0-13.107-10.602-23.733-23.681-23.733h-.364c-13.079 0-23.681 10.626-23.681 23.734v197.499c0 7.936-6.085 14.764-13.994 15.137-8.444.399-15.416-6.345-15.416-14.721v-158.589c0-14.414-11.659-26.099-26.041-26.099s-26.041 11.685-26.041 26.099v201.182l-47.149-47.255c-11.589-11.615-30.836-11.893-42.203-.062-11.022 11.472-10.891 29.727.394 41.037l88.958 89.159v61.74h287.48v-315.801c0-14.415-11.659-26.1-26.041-26.1z"/><path d="m195.414 500.3c3.427 7.151 10.653 11.7 18.583 11.7h181.529c7.929 0 15.156-4.55 18.583-11.7l29.448-61.439h-277.591z"/></svg>