<svg id="Layer_1" enable-background="new 0 0 512 512" height="512" viewBox="0 0 512 512" width="512" xmlns="http://www.w3.org/2000/svg"><path d="m448.544 43.5c-29.825 0-54.909 20.685-61.666 48.463h-261.757c-6.756-27.778-31.841-48.463-61.666-48.463-34.989 0-63.455 28.47-63.455 63.463s28.466 63.462 63.455 63.462c7.315 0 14.345-1.245 20.889-3.533l125.79 194.54c-10.774 11.379-17.391 26.734-17.391 43.606 0 34.993 28.463 63.462 63.448 63.462s63.448-28.469 63.448-63.462c0-16.892-6.633-32.264-17.43-43.647l125.5-194.479c6.529 2.276 13.54 3.513 20.834 3.513 34.99 0 63.456-28.469 63.456-63.462s-28.465-63.463-63.455-63.463zm-207.36 299.87c-1.998.487-3.96 1.068-5.88 1.74l-125.789-194.538c.271-.286.539-.574.804-.865l83.91 46.425c-.983 4.431-1.502 9.035-1.502 13.757 0 29.827 20.681 54.914 48.456 61.671v71.81zm15-196.943c-19.522 0-37.012 8.862-48.662 22.774l-82.77-45.795c.129-.479.252-.96.369-1.443h261.758c.131.538.269 1.073.413 1.606l-82.579 45.474c-11.65-13.822-29.082-22.616-48.529-22.616zm20.841 198.663c-1.908-.665-3.856-1.242-5.841-1.724v-71.806c27.775-6.757 48.456-31.844 48.456-61.671 0-4.797-.535-9.471-1.548-13.966l83.701-46.092c.241.263.485.524.73.783z"/></svg>