<svg id="Layer_1" enable-background="new 0 0 512 512" height="512" viewBox="0 0 512 512" width="512" xmlns="http://www.w3.org/2000/svg"><path d="m224.53 202.53-6.87-31.28c-1.51-6.88-7.6-11.79-14.65-11.79h-55.15c-7.09 0-13.21 4.97-14.68 11.9l-7 33.1c-30.71 10.43-56.88 29.67-76 54.37h256.56c-20.59-26.6-49.23-46.54-82.21-56.3z"/><path d="m274.96 288.83h-243.2c-10.06 21.2-15.62 44.77-15.62 69.28v39.05c0 8.28 6.72 15 15 15h200.45c-.71-5.84-1.07-11.8-1.07-17.83 0-41.29 17.03-78.68 44.44-105.5z"/><path d="m378.189 276.658c-64.884 0-117.671 52.787-117.671 117.671s52.787 117.671 117.671 117.671 117.671-52.787 117.671-117.671-52.787-117.671-117.671-117.671zm46.036 105.022-48.169 48.169c-2.929 2.929-6.768 4.394-10.606 4.394s-7.678-1.465-10.606-4.394l-22.69-22.689c-5.858-5.857-5.858-15.355 0-21.213 5.858-5.857 15.356-5.857 21.213 0l12.083 12.083 37.563-37.563c5.858-5.858 15.355-5.858 21.213 0 5.857 5.857 5.857 15.355-.001 21.213z"/><path d="m175.435 140.254c27.808 0 50.431-22.613 50.431-50.409 0-22.224-28.934-69.101-37.802-82.938-2.758-4.304-7.517-6.907-12.629-6.907s-9.871 2.603-12.629 6.906c-8.868 13.838-37.801 60.715-37.801 82.938 0 27.797 22.623 50.41 50.43 50.41z"/></svg>