<svg id="Layer_1" enable-background="new 0 0 512 512" height="512" viewBox="0 0 512 512" width="512" xmlns="http://www.w3.org/2000/svg"><path d="m205.958 385.13c-10.83 0-19.64 8.82-19.64 19.65s8.81 19.65 19.64 19.65c10.84 0 19.65-8.82 19.65-19.65s-8.81-19.65-19.65-19.65z"/><path d="m403.158 316.67c-14.52 0-27.68-5.97-37.14-15.6-9.46 9.63-22.62 15.6-37.14 15.6-14.53 0-27.69-5.97-37.15-15.6-9.46 9.63-22.61 15.6-37.14 15.6s-27.68-5.97-37.14-15.6c-9.46 9.63-22.62 15.6-37.15 15.6-14.52 0-27.68-5.97-37.14-15.6-9.46 9.63-22.62 15.6-37.14 15.6-12.24 0-23.5-4.24-32.4-11.33-1.06 7.96-1.6 16.05-1.59 24.23.03 48.71 19.48 94.69 54.75 129.47 34.69 34.21 80.01 52.96 127.85 52.96.81 0 1.63-.01 2.45-.02 48.24-.64 93.49-19.92 127.42-54.27 33.95-34.39 52.65-79.94 52.65-128.27 0-8.13-.54-16.18-1.59-24.1-8.9 7.09-20.16 11.33-32.4 11.33zm-197.2 137.76c-27.37 0-49.64-22.27-49.64-49.65 0-27.37 22.27-49.65 49.64-49.65 27.38 0 49.65 22.28 49.65 49.65 0 27.38-22.27 49.65-49.65 49.65zm126.95-13.29c-9.63 6.85-20.95 10.63-32.73 10.92-.13.01-.26.01-.38.01-8.11 0-14.79-6.48-14.99-14.63-.2-8.29 6.35-15.16 14.63-15.37 5.77-.14 11.33-2 16.07-5.37 8.41-5.99 13.03-16.11 12.05-26.4-.78-8.25 5.28-15.57 13.53-16.35s15.56 5.27 16.34 13.52c1.98 20.92-7.41 41.49-24.52 53.67z"/><path d="m183.616 30h141.943c8.284 0 15-6.716 15-15s-6.716-15-15-15h-141.943c-8.284 0-15 6.716-15 15s6.716 15 15 15z"/><path d="m489.885 190.313-74.39-74.39c-5.221-5.22-13.685-5.22-18.906 0l-53.697 53.697c-.54-.299-1.081-.596-1.625-.89-12.77-6.9-20.71-20.24-20.71-34.79v-73.94h-131.94v73.93c0 14.58-7.88 27.88-20.55 34.71-.588.317-1.172.635-1.754.954l-50.903-50.903c-5.221-5.221-13.685-5.221-18.906 0l-74.39 74.39c-5.221 5.221-5.221 13.685 0 18.906l70.907 70.907c3.624 2.576 8.22 3.855 12.996 3.855 12.23 0 22.18-9.95 22.18-22.18 0-8.26 6.7-14.96 14.96-14.96s14.96 6.7 14.96 14.96c0 12.23 9.95 22.18 22.18 22.18 12.24 0 22.19-9.95 22.19-22.18 0-8.26 6.69-14.96 14.96-14.96 8.26 0 14.96 6.7 14.96 14.96 0 12.23 9.95 22.18 22.18 22.18s22.18-9.95 22.18-22.18c0-8.26 6.7-14.96 14.96-14.96 8.27 0 14.96 6.7 14.96 14.96 0 12.23 9.95 22.18 22.19 22.18 12.23 0 22.18-9.95 22.18-22.18 0-8.26 6.7-14.96 14.96-14.96s14.96 6.7 14.96 14.96c0 12.23 9.95 22.18 22.18 22.18 6.181 0 11.782-2.542 15.809-6.635l70.918-70.896c5.222-5.22 5.222-13.684.001-18.905z"/></svg>