<svg id="Layer_1" enable-background="new 0 0 512 512" height="512" viewBox="0 0 512 512" width="512" xmlns="http://www.w3.org/2000/svg"><path d="m148.4 220.39v26.19l25.16 17.12 25.16-17.12v-26.16l-25.18-17.14z"/><path d="m238.88 151.03-25.16-17.12-25.16 17.12v26.16l25.16 17.12 25.16-17.12z"/><path d="m228.72 220.42v26.16l25.16 17.12 25.16-17.12v-26.16l-25.16-17.12z"/><path d="m319.2 151.03-25.16-17.12-25.16 17.12v26.16l25.16 17.12 25.16-17.12z"/><path d="m309.04 220.42v26.16l25.16 17.12 25.16-17.12v-26.19l-25.14-17.11z"/><path d="m448.92 0h-385.84c-34.78 0-63.08 28.3-63.08 63.08v271.52c0 34.78 28.3 63.08 63.08 63.08h134.469l-20.349 38.09h153.36l-20.349-38.09h138.709c34.78 0 63.08-28.3 63.08-63.08v-271.52c0-34.78-28.3-63.08-63.08-63.08zm-25.96 269.53c6.85 4.66 8.62 13.99 3.96 20.84-2.9 4.26-7.61 6.56-12.41 6.56-2.91 0-5.84-.84-8.43-2.6l-31.78-21.63-25.1 17.08v34.21c0 8.28-6.71 15-15 15-8.28 0-15-6.72-15-15v-34.21l-25.16-17.12-25.16 17.12v34.21c0 8.28-6.71 15-15 15-8.28 0-15-6.72-15-15v-34.21l-25.16-17.12-25.16 17.12v34.21c0 8.28-6.72 15-15 15s-15-6.72-15-15v-34.21l-25.1-17.08-31.78 21.63c-2.58 1.76-5.52 2.6-8.43 2.6-4.79 0-9.51-2.3-12.41-6.56-4.66-6.85-2.89-16.18 3.96-20.84l33.6-22.87v-26.24l-33.6-22.87c-6.85-4.66-8.62-13.99-3.96-20.84 4.66-6.84 13.99-8.62 20.84-3.96l31.7 21.58 25.18-17.14v-26.16l-33.6-22.86c-6.85-4.67-8.62-14-3.96-20.84 4.66-6.85 13.99-8.63 20.84-3.97l31.72 21.59 25.16-17.12v-34.12c0-8.29 6.72-15 15-15 8.29 0 15 6.71 15 15v34.12l25.16 17.12 25.16-17.12v-34.14c0-8.28 6.72-15 15-15 8.29 0 15 6.72 15 15v34.14l25.16 17.12 31.72-21.59c6.86-4.66 16.18-2.88 20.84 3.97 4.66 6.84 2.89 16.17-3.96 20.84l-33.6 22.86v26.16l25.18 17.14 31.7-21.58c6.86-4.66 16.18-2.88 20.84 3.96 4.66 6.85 2.89 16.18-3.96 20.84l-33.6 22.87v26.24z"/><path d="m364.678 465.771h-221.593c-12.766 0-23.114 10.349-23.114 23.114s10.349 23.115 23.114 23.115h221.593c12.766 0 23.114-10.349 23.114-23.114s-10.348-23.115-23.114-23.115z"/></svg>