<svg id="Layer_1" enable-background="new 0 0 512 512" height="512" viewBox="0 0 512 512" width="512" xmlns="http://www.w3.org/2000/svg"><path d="m364.678 465.771h-221.593c-12.766 0-23.114 10.349-23.114 23.114s10.349 23.115 23.114 23.115h221.593c12.766 0 23.114-10.349 23.114-23.114s-10.348-23.115-23.114-23.115z"/><path d="m448.92 0h-385.84c-34.78 0-63.08 28.3-63.08 63.08v271.52c0 34.78 28.3 63.08 63.08 63.08h134.469l-20.349 38.09h153.36l-20.349-38.09h138.709c34.78 0 63.08-28.3 63.08-63.08v-271.52c0-34.78-28.3-63.08-63.08-63.08zm-20.227 251.329c-2.295 5.958-7.978 9.613-14.001 9.613-1.793 0-3.614-.323-5.388-1.006l-27.872-10.733c-4.948 7.863-11.335 15.043-18.94 21.312l16.01 26.602c4.272 7.098 1.981 16.315-5.116 20.587-2.421 1.457-5.088 2.15-7.721 2.15-5.089 0-10.051-2.59-12.866-7.267l-15.943-26.49c-10.902 4.76-22.995 8.104-36.022 10l.372 25.084c.123 8.283-6.492 15.098-14.775 15.221-.075.001-.152.002-.228.002-8.181 0-14.872-6.569-14.993-14.777l-.352-23.705c-7.852-.132-15.929-.71-24.193-1.74-3.188-.397-6.325-.854-9.412-1.368l-13.362 23.282c-2.772 4.831-7.826 7.537-13.023 7.537-2.533 0-5.099-.643-7.452-1.993-7.186-4.123-9.668-13.291-5.544-20.476l9.078-15.818c-12.019-4.049-22.98-9.218-32.813-15.481l-21.923 20.279c-2.885 2.669-6.539 3.988-10.182 3.988-4.036 0-8.059-1.618-11.016-4.814-5.625-6.081-5.256-15.571.826-21.197l18.937-17.516c-7.159-7.652-13.106-16.141-17.697-25.28l-28.586 5.984c-1.036.217-2.07.321-3.089.321-6.949 0-13.186-4.857-14.666-11.93-1.697-8.108 3.5-16.058 11.608-17.755l24.831-5.198c-3.059-13.597-3.861-26.818-2.398-39.311l-27.535-7.734c-7.976-2.24-12.626-10.521-10.386-18.497 2.24-7.975 10.523-12.623 18.497-10.386l27.527 7.731c5.63-11.969 13.835-22.236 23.771-29.898l-12.201-22.264c-3.981-7.266-1.319-16.382 5.945-20.363 7.268-3.979 16.383-1.317 20.363 5.945l12.969 23.667c10.979-2.597 22.305-2.399 33.097.603l14.845-23.17c4.47-6.976 13.745-9.006 20.723-4.537 6.975 4.469 9.007 13.747 4.537 20.723l-13.6 21.225c7.413 6.294 13.924 14.242 19.339 23.651l15.934-12.469c6.523-5.106 15.952-3.956 21.058 2.569 5.104 6.524 3.955 15.952-2.569 21.058l-19.798 15.492c8.386 13.082 12.944 14.981 14.011 15.253 1.959.495 7.725-3.563 11.931-6.527 3.719-2.622 8.15-5.745 13.29-8.399l-1.945-24.073c-.667-8.257 5.485-15.492 13.743-16.159 8.241-.658 15.492 5.485 16.159 13.743l1.717 21.252c6.981 1.184 14.597 4.159 22.844 9.748h.001c1.434.971 2.815 1.99 4.146 3.051l19.741-18.511c6.042-5.665 15.535-5.361 21.202.683 5.666 6.043 5.361 15.535-.683 21.202l-21.823 20.462c4.959 11.23 6.606 23.893 4.546 36.689l27.902 10.745c7.736 2.977 11.589 11.656 8.613 19.388z"/><path d="m348.223 182.455c-13.053-8.849-18.805-5.515-31.695 3.572-9.472 6.677-21.256 14.988-36.616 11.079-15.575-3.965-28.985-19.374-44.842-51.521-9.441-19.141-24.225-29.777-39.994-29.777-4.824 0-9.738.995-14.623 3.046-11.657 4.896-21.21 15.361-26.208 28.711-6.159 16.451-5.483 36.369 1.956 57.599 11.698 33.386 45.144 55.138 94.177 61.249 66.452 8.282 100.808-17.416 110.031-41.938 6.242-16.596 1.573-32.698-12.186-42.02zm-143.212-18.239c-2.393 1.54-4.255 3.752-5.387 6.394-2.011 4.696-1.357 10.165 1.705 14.271 4.952 6.641 3.584 16.039-3.057 20.992-2.692 2.007-5.838 2.977-8.956 2.977-4.574 0-9.091-2.084-12.036-6.033-9.436-12.652-11.441-29.518-5.234-44.015 3.497-8.168 9.281-15.018 16.727-19.811 6.965-4.483 16.247-2.473 20.731 4.493 4.485 6.965 2.473 16.247-4.493 20.732zm74.81 84.744c-4.996 2.186-10.32 3.26-15.62 3.26-8.215 0-16.374-2.578-23.176-7.59-6.297-4.641-11.007-10.979-13.623-18.329-2.777-7.805 1.298-16.384 9.102-19.162s16.383 1.296 19.162 9.102c.604 1.696 1.695 3.161 3.156 4.239 2.624 1.934 5.981 2.307 8.974.996 7.59-3.321 16.436.14 19.755 7.729 3.32 7.59-.14 16.434-7.73 19.755z"/></svg>