<svg id="Layer_1" enable-background="new 0 0 512 512" height="512" viewBox="0 0 512 512" width="512" xmlns="http://www.w3.org/2000/svg"><path d="m364.678 465.771h-221.593c-12.766 0-23.114 10.349-23.114 23.114s10.349 23.115 23.114 23.115h221.593c12.766 0 23.114-10.349 23.114-23.114s-10.348-23.115-23.114-23.115z"/><ellipse cx="147.937" cy="161.913" rx="52.185" ry="52.184" transform="matrix(.383 -.924 .924 .383 -58.264 236.628)"/><path d="m448.92 0h-385.84c-34.78 0-63.08 28.3-63.08 63.08v271.52c0 34.78 28.3 63.08 63.08 63.08h134.469l-20.349 38.09h153.36l-20.349-38.09h138.709c34.78 0 63.08-28.3 63.08-63.08v-271.52c0-34.78-28.3-63.08-63.08-63.08zm-285.983 242.726v54.316c0 8.284-6.716 15-15 15s-15-6.716-15-15v-54.316c-38.179-7.07-67.185-40.618-67.185-80.813 0-45.316 36.868-82.185 82.185-82.185 45.316 0 82.184 36.868 82.184 82.185 0 40.195-29.005 73.743-67.184 80.813zm218.311 87.276h-93.149c-8.284 0-15-6.716-15-15s6.716-15 15-15h93.149c8.284 0 15 6.716 15 15s-6.716 15-15 15zm50-47.628h-143.15c-8.284 0-15-6.716-15-15s6.716-15 15-15h143.149c8.284 0 15 6.716 15 15s-6.715 15-14.999 15zm-158.15-62.628c0-8.284 6.716-15 15-15h93.149c8.284 0 15 6.716 15 15s-6.716 15-15 15h-93.149c-8.284 0-15-6.716-15-15zm158.15-32.628h-143.15c-8.284 0-15-6.716-15-15s6.716-15 15-15h143.149c8.284 0 15 6.716 15 15s-6.715 15-14.999 15zm-158.15-62.722c0-8.284 6.716-15 15-15h93.149c8.284 0 15 6.716 15 15s-6.716 15-15 15h-93.149c-8.284 0-15-6.716-15-15zm158.15-32.628h-143.15c-8.284 0-15-6.716-15-15s6.716-15 15-15h143.149c8.284 0 15 6.716 15 15s-6.715 15-14.999 15z"/></svg>