<svg id="Layer_1" enable-background="new 0 0 512 512" height="512" viewBox="0 0 512 512" width="512" xmlns="http://www.w3.org/2000/svg"><path d="m386.86 237.97h-261.72v176.73h261.72zm-115.86 136.07c0 8.28-6.72 15-15 15s-15-6.72-15-15v-9.2c0-8.29 6.72-15 15-15s15 6.71 15 15zm0-50.14c0 8.28-6.72 15-15 15s-15-6.72-15-15v-46.19c0-8.28 6.72-15 15-15s15 6.72 15 15z"/><path d="m360.244 143.849c-14.534-19.122-34.33-34.028-56.563-42.769v-26.655c0-8.284-6.716-15-15-15h-17.681v-29.425h17.682c8.284 0 15-6.716 15-15s-6.716-15-15-15h-65.363c-8.284 0-15 6.716-15 15s6.716 15 15 15h17.681v29.425h-17.682c-8.284 0-15 6.716-15 15v26.655c-22.232 8.74-42.029 23.647-56.563 42.77-14.366 18.901-23.145 40.828-25.779 64.121h260.046c-2.633-23.293-11.412-45.221-25.778-64.122z"/><path d="m125.135 444.697v10.08c0 31.553 25.67 57.223 57.222 57.223h147.285c31.552 0 57.222-25.67 57.222-57.223v-10.08z"/></svg>