<svg id="Layer_1" enable-background="new 0 0 512 512" height="512" viewBox="0 0 512 512" width="512" xmlns="http://www.w3.org/2000/svg"><path d="m79.127 272.029c0 41.37 33.537 74.907 74.907 74.907h21.934c35.916 0 65.032-29.116 65.032-65.032v-10.904c0-8.284 6.716-15 15-15 8.284 0 15 6.716 15 15v10.904c0 35.916 29.116 65.032 65.033 65.032h26.933c41.37 0 74.907-33.537 74.907-74.907v-106.966h-358.746z"/><path d="m0 177.355v48.626c0 6.789 5.503 12.292 12.292 12.292h36.835v-73.208h-36.835c-6.789-.002-12.292 5.501-12.292 12.29z"/><path d="m499.708 165.063h-31.835v73.208h31.835c6.788 0 12.292-5.503 12.292-12.292v-48.626c0-6.787-5.503-12.29-12.292-12.29z"/></svg>