<svg id="Layer_1" enable-background="new 0 0 512 512" height="512" viewBox="0 0 512 512" width="512" xmlns="http://www.w3.org/2000/svg"><path d="m497 432h-54.7v-352h4.997c8.284 0 15-6.716 15-15s-6.716-15-15-15h-382.594c-8.284 0-15 6.716-15 15s6.716 15 15 15h4.997v352h-54.7c-8.284 0-15 6.716-15 15s6.716 15 15 15h482c8.284 0 15-6.716 15-15s-6.716-15-15-15zm-163.12-269.38h45c8.29 0 15 6.72 15 15 0 8.29-6.71 15-15 15h-45c-8.28 0-15-6.71-15-15 0-8.28 6.72-15 15-15zm-15-44.51c0-8.29 6.72-15 15-15h45c8.29 0 15 6.71 15 15 0 8.28-6.71 15-15 15h-45c-8.28 0-15-6.72-15-15zm15 104.24h45c8.29 0 15 6.72 15 15s-6.71 15-15 15h-45c-8.28 0-15-6.72-15-15s6.72-15 15-15zm0 60.22h45c8.29 0 15 6.72 15 15 0 8.29-6.71 15-15 15h-45c-8.28 0-15-6.71-15-15 0-8.28 6.72-15 15-15zm-52.88-30.22h-50c-8.28 0-15-6.72-15-15s6.72-15 15-15h50c8.28 0 15 6.72 15 15s-6.72 15-15 15zm15 45.22c0 8.29-6.72 15-15 15h-50c-8.28 0-15-6.71-15-15 0-8.28 6.72-15 15-15h50c8.28 0 15 6.72 15 15zm-15-104.95h-50c-8.28 0-15-6.71-15-15 0-8.28 6.72-15 15-15h50c8.28 0 15 6.72 15 15 0 8.29-6.72 15-15 15zm0-59.51h-50c-8.28 0-15-6.72-15-15 0-8.29 6.72-15 15-15h50c8.28 0 15 6.71 15 15 0 8.28-6.72 15-15 15zm-102.88 119.24h-45c-8.29 0-15-6.72-15-15s6.71-15 15-15h45c8.28 0 15 6.72 15 15s-6.72 15-15 15zm15 45.22c0 8.29-6.72 15-15 15h-45c-8.29 0-15-6.71-15-15 0-8.28 6.71-15 15-15h45c8.28 0 15 6.72 15 15zm-15-104.95h-45c-8.29 0-15-6.71-15-15 0-8.28 6.71-15 15-15h45c8.28 0 15 6.72 15 15 0 8.29-6.72 15-15 15zm0-59.51h-45c-8.29 0-15-6.72-15-15 0-8.29 6.71-15 15-15h45c8.28 0 15 6.71 15 15 0 8.28-6.72 15-15 15zm137.15 298.89v-56.03h-44.27v56.03h-30v-56.03h-44.27v56.03h-30v-71.03c0-8.29 6.72-15 15-15h148.54c8.28 0 15 6.71 15 15v71.03z"/></svg>