<svg id="Layer_1" enable-background="new 0 0 512 512" height="512" viewBox="0 0 512 512" width="512" xmlns="http://www.w3.org/2000/svg"><path d="m497 330c-15.273 0-30.017-2.279-43.504-6.615v-134.77c13.487-4.336 28.231-6.615 43.504-6.615 8.284 0 15-6.716 15-15s-6.716-15-15-15c-35.371 0-68.797 10.3-94.118 29.002-10.828 7.998-19.682 17.136-26.382 27.086-6.699-9.95-15.553-19.089-26.382-27.086-25.321-18.702-58.746-29.002-94.118-29.002-35.371 0-68.797 10.3-94.118 29.002-10.828 7.998-19.682 17.136-26.382 27.086-6.699-9.95-15.554-19.089-26.382-27.086-25.321-18.702-58.746-29.002-94.118-29.002-8.284 0-15 6.716-15 15s6.716 15 15 15c15.24 0 29.954 2.269 43.417 6.587v134.827c-13.463 4.317-28.177 6.586-43.417 6.586-8.284 0-15 6.716-15 15s6.716 15 15 15c35.372 0 68.797-10.3 94.118-29.002 10.828-7.998 19.683-17.136 26.382-27.086 6.699 9.95 15.553 19.088 26.382 27.086 25.321 18.702 58.747 29.002 94.118 29.002 35.372 0 68.797-10.3 94.118-29.002 10.828-7.998 19.683-17.136 26.382-27.086 6.699 9.95 15.553 19.088 26.382 27.086 25.321 18.702 58.747 29.002 94.118 29.002 8.284 0 15-6.716 15-15s-6.716-15-15-15zm-256-.745c-10.389-1.041-20.4-3.163-29.783-6.289v-133.933c9.384-3.126 19.395-5.248 29.783-6.289zm30-146.51c9.813.983 19.289 2.93 28.217 5.778v134.955c-8.928 2.847-18.404 4.794-28.217 5.778zm-179.705 124.122c-.944.698-1.904 1.38-2.878 2.048v-105.831c.974.668 1.934 1.351 2.878 2.048 18.833 13.911 29.205 31.976 29.205 50.868s-10.372 36.957-29.205 50.867zm59.205-50.867c0-18.892 10.372-36.957 29.205-50.867.5-.369 1.004-.734 1.512-1.094v103.923c-.508-.361-1.012-.725-1.512-1.094-18.833-13.911-29.205-31.976-29.205-50.868zm181.795 50.867c-1.009.745-2.035 1.473-3.078 2.185v-106.104c1.043.712 2.069 1.44 3.078 2.185 18.833 13.91 29.205 31.975 29.205 50.867s-10.372 36.957-29.205 50.867zm59.205-50.867c0-18.892 10.372-36.957 29.205-50.867.916-.677 1.847-1.339 2.791-1.988v105.711c-.944-.649-1.875-1.312-2.791-1.988-18.833-13.911-29.205-31.976-29.205-50.868z"/></svg>