<?xml version="1.0" encoding="iso-8859-1"?>
<!-- Generator: Adobe Illustrator 19.0.0, SVG Export Plug-In . SVG Version: 6.00 Build 0)  -->
<svg version="1.1" id="Capa_1" xmlns="http://www.w3.org/2000/svg" xmlns:xlink="http://www.w3.org/1999/xlink" x="0px" y="0px"
	 viewBox="0 0 512 512" style="enable-background:new 0 0 512 512;" xml:space="preserve">
<g>
	<g>
		<path d="M451,122h-75V45c0-24.813-20.187-45-45-45H61C36.187,0,16,20.187,16,45v422c0,24.813,20.187,45,45,45h270
			c24.813,0,45-20.187,45-45V362h75c24.72,0,45-20.128,45-45V167C496,142.28,475.872,122,451,122z M444.787,152l-103.18,103.18
			c-5.849,5.849-15.364,5.849-21.213,0L217.213,152H444.787z M264.787,242L196,310.787V173.213L264.787,242z M46,45
			c0-8.271,6.729-15,15-15h270c8.271,0,15,6.729,15,15v15H46V45z M346,467c0,8.271-6.729,15-15,15H61c-8.271,0-15-6.729-15-15v-45
			h300V467z M346,392H46V90h300v32H211c-24.72,0-45,20.128-45,45v150c0,24.72,20.128,45,45,45h135V392z M217.213,332L286,263.213
			l13.181,13.181c17.544,17.544,46.093,17.545,63.639,0L376,263.213L444.787,332H217.213z M466,310.787L397.213,242L466,173.213
			V310.787z"/>
	</g>
</g>
<g>
</g>
<g>
</g>
<g>
</g>
<g>
</g>
<g>
</g>
<g>
</g>
<g>
</g>
<g>
</g>
<g>
</g>
<g>
</g>
<g>
</g>
<g>
</g>
<g>
</g>
<g>
</g>
<g>
</g>
</svg>
