<?xml version="1.0" encoding="iso-8859-1"?>
<!-- Generator: Adobe Illustrator 19.0.0, SVG Export Plug-In . SVG Version: 6.00 Build 0)  -->
<svg version="1.1" id="Capa_1" xmlns="http://www.w3.org/2000/svg" xmlns:xlink="http://www.w3.org/1999/xlink" x="0px" y="0px"
	 viewBox="0 0 511.999 511.999" style="enable-background:new 0 0 511.999 511.999;" xml:space="preserve">
<g>
	<g>
		<path d="M46.323,340.734c-22.257-54.886-22.302-114.472,0-169.472c3.115-7.68-0.587-16.434-8.27-19.55
			c-7.684-3.116-16.436,0.587-19.551,8.269c-24.642,60.764-24.697,131.136,0,192.036c3.117,7.687,11.875,11.384,19.551,8.269
			C45.737,357.17,49.438,348.417,46.323,340.734z"/>
	</g>
</g>
<g>
	<g>
		<path d="M493.497,159.982c-3.115-7.682-11.871-11.385-19.551-8.269c-7.684,3.115-11.385,11.869-8.27,19.552
			c22.257,54.886,22.302,114.472,0,169.472c-3.996,9.854,3.272,20.656,13.906,20.656c5.931,0,11.549-3.54,13.915-9.374
			C518.031,291.52,518.302,221.148,493.497,159.982z"/>
	</g>
</g>
<g>
	<g>
		<path d="M437.793,182.553c-3.111-7.684-11.865-11.392-19.547-8.281c-7.685,3.111-11.392,11.863-8.281,19.547
			c16.374,40.441,16.41,83.831,0,124.36c-3.997,9.873,3.298,20.648,13.909,20.648c5.934,0,11.555-3.544,13.919-9.382
			C456.811,282.465,456.85,229.63,437.793,182.553z"/>
	</g>
</g>
<g>
	<g>
		<path d="M102.034,193.819c3.111-7.685-0.596-16.436-8.281-19.547c-7.682-3.11-16.436,0.596-19.547,8.281
			c-19.018,46.981-19.057,99.816,0,146.893c3.112,7.687,11.866,11.391,19.547,8.281c7.685-3.111,11.392-11.863,8.281-19.547
			C85.66,277.738,85.624,234.348,102.034,193.819z"/>
	</g>
</g>
<g>
	<g>
		<path d="M347.065,60.859H164.934c-24.831,0-45.032,20.202-45.032,45.032v300.216c0,24.831,20.201,45.032,45.032,45.032h182.131
			c24.831,0,45.032-20.201,45.032-45.032V105.892C392.097,81.061,371.896,60.859,347.065,60.859z M149.923,105.892
			c0-8.277,6.733-15.011,15.011-15.011h182.131c8.277,0,15.011,6.734,15.011,15.011v15.011H149.923V105.892z M149.923,150.924
			h212.152v210.151H149.923V150.924z M362.076,406.108c0,8.277-6.734,15.011-15.011,15.011H164.934
			c-8.277,0-15.011-6.734-15.011-15.011v-15.011h212.153V406.108z"/>
	</g>
</g>
<g>
</g>
<g>
</g>
<g>
</g>
<g>
</g>
<g>
</g>
<g>
</g>
<g>
</g>
<g>
</g>
<g>
</g>
<g>
</g>
<g>
</g>
<g>
</g>
<g>
</g>
<g>
</g>
<g>
</g>
</svg>
