<?xml version="1.0" encoding="iso-8859-1"?>
<!-- Generator: Adobe Illustrator 19.0.0, SVG Export Plug-In . SVG Version: 6.00 Build 0)  -->
<svg version="1.1" id="Capa_1" xmlns="http://www.w3.org/2000/svg" xmlns:xlink="http://www.w3.org/1999/xlink" x="0px" y="0px"
	 viewBox="0 0 512 512" style="enable-background:new 0 0 512 512;" xml:space="preserve">
<g>
	<g>
		<path d="M287,150c-57.897,0-105,47.103-105,105c0,35.943,18.126,69.015,48.487,88.467c31.003,19.863,69.06,21.974,104.426,5.703
			c7.525-3.462,10.82-12.37,7.357-19.896c-3.462-7.525-12.368-10.821-19.896-7.358c-25.86,11.898-53.454,10.545-75.703-3.709
			C224.961,304.298,212,280.669,212,255c0-41.355,33.645-75,75-75s75,33.645,75,75c0,8.271-6.729,15-15,15c-8.362,0-15-6.833-15-15
			c0-24.813-20.187-45-45-45s-45,20.187-45,45s20.187,45,45,45c11.516,0,22.031-4.353,29.999-11.494
			C345.895,314.407,392,293.793,392,255C392,197.103,344.897,150,287,150z M301.789,257.406C300.631,264.535,294.45,270,287,270
			c-8.271,0-15-6.729-15-15s6.729-15,15-15c7.691,0,14.04,5.82,14.895,13.285C301.671,254.648,301.634,256.035,301.789,257.406z"/>
	</g>
</g>
<g>
	<g>
		<path d="M467,60h-15V45c0-24.813-20.187-45-45-45H90C65.187,0,45,20.187,45,45v15C20.187,60,0,80.187,0,105s20.187,45,45,45v62
			c-24.813,0-45,20.187-45,45s20.187,45,45,45v60c-24.813,0-45,20.187-45,45s20.187,45,45,45v15c0,24.813,20.187,45,45,45h317
			c24.813,0,45-20.187,45-45v-15h15c24.813,0,45-20.187,45-45V105C512,80.187,491.813,60,467,60z M30,105c0-8.271,6.729-15,15-15h60
			c8.271,0,15,6.729,15,15s-6.729,15-15,15H45C36.729,120,30,113.271,30,105z M30,257c0-8.271,6.729-15,15-15h60
			c8.271,0,15,6.729,15,15s-6.729,15-15,15c-4.812,0-44.298,0-60,0C36.729,272,30,265.271,30,257z M45,422c-8.271,0-15-6.729-15-15
			s6.729-15,15-15h60c8.271,0,15,6.729,15,15s-6.729,15-15,15H45z M422,467c0,8.271-6.729,15-15,15H90c-8.271,0-15-6.729-15-15v-15
			h30c24.813,0,45-20.187,45-45s-20.187-45-45-45H75v-60h30c24.813,0,45-20.187,45-45s-20.187-45-45-45H75v-62h30
			c24.813,0,45-20.187,45-45s-20.187-45-45-45H75V45c0-8.271,6.729-15,15-15h317c8.271,0,15,6.729,15,15V467z M482,407
			c0,8.271-6.729,15-15,15h-15v-60h30V407z M482,332h-30v-62h30V332z M482,240h-30v-60h30V240z M482,150h-30V90h15
			c8.271,0,15,6.729,15,15V150z"/>
	</g>
</g>
<g>
</g>
<g>
</g>
<g>
</g>
<g>
</g>
<g>
</g>
<g>
</g>
<g>
</g>
<g>
</g>
<g>
</g>
<g>
</g>
<g>
</g>
<g>
</g>
<g>
</g>
<g>
</g>
<g>
</g>
</svg>
