<?xml version="1.0" encoding="iso-8859-1"?>
<!-- Generator: Adobe Illustrator 19.0.0, SVG Export Plug-In . SVG Version: 6.00 Build 0)  -->
<svg version="1.1" id="Capa_1" xmlns="http://www.w3.org/2000/svg" xmlns:xlink="http://www.w3.org/1999/xlink" x="0px" y="0px"
	 viewBox="0 0 512 512" style="enable-background:new 0 0 512 512;" xml:space="preserve">
<g>
	<g>
		<path d="M391,60h-15V15c0-8.284-6.716-15-15-15s-15,6.716-15,15v45H121c-24.813,0-45,20.187-45,45v362c0,24.813,20.187,45,45,45
			h270c24.813,0,45-20.187,45-45V105C436,80.187,415.813,60,391,60z M406,467c0,8.271-6.729,15-15,15H121c-8.271,0-15-6.729-15-15
			V105c0-8.271,6.729-15,15-15h270c8.271,0,15,6.729,15,15V467z"/>
	</g>
</g>
<g>
	<g>
		<path d="M181,422h-30c-8.284,0-15,6.716-15,15s6.716,15,15,15h30c8.284,0,15-6.716,15-15S189.284,422,181,422z"/>
	</g>
</g>
<g>
	<g>
		<path d="M271,422h-30c-8.284,0-15,6.716-15,15s6.716,15,15,15h30c8.284,0,15-6.716,15-15S279.284,422,271,422z"/>
	</g>
</g>
<g>
	<g>
		<path d="M361,422h-30c-8.284,0-15,6.716-15,15s6.716,15,15,15h30c8.284,0,15-6.716,15-15S369.284,422,361,422z"/>
	</g>
</g>
<g>
	<g>
		<path d="M181,362h-30c-8.284,0-15,6.716-15,15s6.716,15,15,15h30c8.284,0,15-6.716,15-15S189.284,362,181,362z"/>
	</g>
</g>
<g>
	<g>
		<path d="M271,362h-30c-8.284,0-15,6.716-15,15s6.716,15,15,15h30c8.284,0,15-6.716,15-15S279.284,362,271,362z"/>
	</g>
</g>
<g>
	<g>
		<path d="M361,362h-30c-8.284,0-15,6.716-15,15s6.716,15,15,15h30c8.284,0,15-6.716,15-15S369.284,362,361,362z"/>
	</g>
</g>
<g>
	<g>
		<path d="M181,302h-30c-8.284,0-15,6.716-15,15s6.716,15,15,15h30c8.284,0,15-6.716,15-15S189.284,302,181,302z"/>
	</g>
</g>
<g>
	<g>
		<path d="M271,302h-30c-8.284,0-15,6.716-15,15s6.716,15,15,15h30c8.284,0,15-6.716,15-15S279.284,302,271,302z"/>
	</g>
</g>
<g>
	<g>
		<path d="M361,302h-30c-8.284,0-15,6.716-15,15s6.716,15,15,15h30c8.284,0,15-6.716,15-15S369.284,302,361,302z"/>
	</g>
</g>
<g>
	<g>
		<path d="M361,120H151c-8.284,0-15,6.716-15,15v122c0,8.284,6.716,15,15,15h210c8.284,0,15-6.716,15-15V135
			C376,126.716,369.284,120,361,120z M346,242H166v-92h180V242z"/>
	</g>
</g>
<g>
</g>
<g>
</g>
<g>
</g>
<g>
</g>
<g>
</g>
<g>
</g>
<g>
</g>
<g>
</g>
<g>
</g>
<g>
</g>
<g>
</g>
<g>
</g>
<g>
</g>
<g>
</g>
<g>
</g>
</svg>
