<?xml version="1.0" encoding="iso-8859-1"?>
<!-- Generator: Adobe Illustrator 19.0.0, SVG Export Plug-In . SVG Version: 6.00 Build 0)  -->
<svg version="1.1" id="Capa_1" xmlns="http://www.w3.org/2000/svg" xmlns:xlink="http://www.w3.org/1999/xlink" x="0px" y="0px"
	 viewBox="0 0 512.001 512.001" style="enable-background:new 0 0 512.001 512.001;" xml:space="preserve">
<g>
	<g>
		<path d="M491.429,32.075l-144.924,57.97L169.696,31.756c-3.431-1.133-7.174-0.92-10.267,0.318l-150,60
			C3.734,94.352,0,99.868,0,106.002v360c0,10.65,10.781,17.842,20.571,13.927l144.925-57.97l176.734,58.265
			c0.82,0.275,0.753,0.218,1.34,0.381c1,0,4.196,1.266,9.063-0.7l149.939-59.976c5.694-2.278,9.429-7.793,9.429-13.927v-360
			C512,35.408,501.28,28.137,491.429,32.075z M150,395.846l-120,48V116.157l120-48V395.846z M332.001,281.73
			c-0.173-0.02-0.341-0.053-0.516-0.066c-8.233-0.639-16.179-2.561-23.614-5.714c-7.628-3.233-16.433,0.327-19.665,7.955
			c-3.234,7.626,0.327,16.431,7.954,19.666c14.693,6.23,30.957,8.491,35.841,7.949v133.743L180,395.153V210.486
			c4.153,0.095,8.299,0.513,12.348,1.289c8.147,1.56,15.998-3.782,17.555-11.909c1.559-8.136-3.773-15.996-11.909-17.555
			c-5.904-1.131-11.949-1.747-17.993-1.845V66.741l152,50.11V281.73z M482,395.847l-120,48v-327.69l120-48V395.847z"/>
	</g>
</g>
<g>
	<g>
		<path d="M84.487,287.541c-7.859-2.623-16.354,1.628-18.974,9.486l-4.744,14.23c-2.62,7.859,1.627,16.354,9.486,18.974
			c7.85,2.618,16.352-1.62,18.974-9.486l4.744-14.23C96.594,298.656,92.346,290.161,84.487,287.541z"/>
	</g>
</g>
<g>
	<g>
		<path d="M125.162,211.32c-6.008-5.705-15.501-5.46-21.206,0.547c-7.822,8.237-14.201,17.797-18.96,28.413
			c-3.389,7.56-0.008,16.435,7.552,19.824c7.561,3.391,16.435,0.005,19.823-7.551c3.37-7.517,7.857-14.254,13.339-20.027
			C131.415,226.519,131.169,217.024,125.162,211.32z"/>
	</g>
</g>
<g>
	<g>
		<path d="M273.001,243.904c-2.466-4.631-6.522-15.231-16.807-27.529c-5.315-6.355-14.774-7.198-21.129-1.884
			c-6.355,5.314-7.199,14.774-1.884,21.129c7.658,9.157,10.173,16.439,13.342,22.388c3.896,7.315,12.983,10.08,20.291,6.187
			C274.126,260.3,276.896,251.216,273.001,243.904z"/>
	</g>
</g>
<g>
	<g>
		<path d="M416.831,251.402c-6.562-5.062-15.979-3.848-21.04,2.71c-4.912,6.365-10.861,11.799-17.682,16.149
			c-6.983,4.455-9.034,13.729-4.579,20.713c4.454,6.982,13.724,9.038,20.714,4.58c9.75-6.219,18.261-13.996,25.297-23.112
			C424.603,265.884,423.389,256.464,416.831,251.402z"/>
	</g>
</g>
<g>
	<g>
		<path d="M442.267,181.957c-7.759-2.911-16.403,1.021-19.312,8.778l-5.267,14.045c-3.67,9.786,3.577,20.271,14.043,20.271
			c6.073,0,11.789-3.716,14.047-9.737l5.267-14.045C453.954,193.512,450.024,184.866,442.267,181.957z"/>
	</g>
</g>
<g>
</g>
<g>
</g>
<g>
</g>
<g>
</g>
<g>
</g>
<g>
</g>
<g>
</g>
<g>
</g>
<g>
</g>
<g>
</g>
<g>
</g>
<g>
</g>
<g>
</g>
<g>
</g>
<g>
</g>
</svg>
