<?xml version="1.0" encoding="iso-8859-1"?>
<!-- Generator: Adobe Illustrator 19.0.0, SVG Export Plug-In . SVG Version: 6.00 Build 0)  -->
<svg version="1.1" id="Capa_1" xmlns="http://www.w3.org/2000/svg" xmlns:xlink="http://www.w3.org/1999/xlink" x="0px" y="0px"
	 viewBox="0 0 512 512" style="enable-background:new 0 0 512 512;" xml:space="preserve">
<g>
	<g>
		<path d="M359.949,60C335.77,18.083,288.653-5.377,239.75,1.073C180.603,8.875,136,61.932,136,124.488V255
			c0,24.813-20.187,45-45,45s-45-20.187-45-45V15c0-8.284-6.716-15-15-15S16,6.716,16,15v240c0,41.355,33.645,75,75,75
			s75-33.645,75-75V124.488c0-47.562,33.392-87.832,77.673-93.673c30.508-4.022,60.079,7.419,79.628,29.409
			C252.431,64.229,196,123.145,196,195v182c0,74.439,60.561,135,135,135h30c74.439,0,135-60.561,135-135V195
			C496,122.246,437.536,60,359.949,60z M346,150c8.271,0,15,6.729,15,15v30c0,8.271-6.729,15-15,15s-15-6.729-15-15v-30
			C331,156.729,337.729,150,346,150z M226,195c0-57.897,47.103-105,105-105v32.58c-17.459,6.192-30,22.865-30,42.42v30
			c0,19.555,12.541,36.228,30,42.42v32.079c-27.808-1.801-53.383-8.582-73.175-19.578C237.6,238.685,226,224.134,226,210V195z
			 M466,377c0,57.897-47.103,105-105,105h-30c-57.897,0-105-47.103-105-105V264.627C253.153,286.253,296.405,300,346,300
			c49.595,0,92.847-13.747,120-35.373V377z M466,210c0,14.134-11.6,28.685-31.825,39.92c-19.792,10.996-45.367,17.777-73.175,19.578
			V237.42c17.459-6.192,30-22.865,30-42.42v-30c0-19.555-12.541-36.228-30-42.42V90c57.897,0,105,47.103,105,105V210z"/>
	</g>
</g>
<g>
</g>
<g>
</g>
<g>
</g>
<g>
</g>
<g>
</g>
<g>
</g>
<g>
</g>
<g>
</g>
<g>
</g>
<g>
</g>
<g>
</g>
<g>
</g>
<g>
</g>
<g>
</g>
<g>
</g>
</svg>
