<?xml version="1.0" encoding="iso-8859-1"?>
<!-- Generator: Adobe Illustrator 19.0.0, SVG Export Plug-In . SVG Version: 6.00 Build 0)  -->
<svg version="1.1" id="Capa_1" xmlns="http://www.w3.org/2000/svg" xmlns:xlink="http://www.w3.org/1999/xlink" x="0px" y="0px"
	 viewBox="0 0 512 512" style="enable-background:new 0 0 512 512;" xml:space="preserve">
<g>
	<g>
		<path d="M467,120h-75V45c0-24.813-20.187-45-45-45H45C20.187,0,0,20.187,0,45v422c0,24.813,20.187,45,45,45
			c1.695,0,410.571,0,422,0c24.813,0,45-20.187,45-45V165C512,140.187,491.813,120,467,120z M30,45c0-8.271,6.729-15,15-15h302
			c8.271,0,15,6.729,15,15v15H30V45z M45,482c-8.271,0-15-6.729-15-15v-45h212v45c0,5.258,0.915,10.305,2.58,15H45z M242,165v227H30
			V90h332v30h-75C262.187,120,242,140.187,242,165z M482,467c0,8.271-6.729,15-15,15H287c-8.271,0-15-6.729-15-15v-15h210V467z
			 M482,422H272V210h210V422z M482,180H272v-15c0-8.271,6.729-15,15-15h180c8.271,0,15,6.729,15,15V180z"/>
	</g>
</g>
<g>
	<g>
		<path d="M195,120H75c-8.284,0-15,6.716-15,15v90c0,8.284,6.716,15,15,15h120c8.284,0,15-6.716,15-15v-90
			C210,126.716,203.284,120,195,120z M180,210H90v-60h90V210z"/>
	</g>
</g>
<g>
	<g>
		<path d="M135,270H75c-8.284,0-15,6.716-15,15s6.716,15,15,15h60c8.284,0,15-6.716,15-15S143.284,270,135,270z"/>
	</g>
</g>
<g>
	<g>
		<path d="M437,240H317c-8.284,0-15,6.716-15,15s6.716,15,15,15h120c8.284,0,15-6.716,15-15S445.284,240,437,240z"/>
	</g>
</g>
<g>
	<g>
		<path d="M377,300h-60c-8.284,0-15,6.716-15,15s6.716,15,15,15h60c8.284,0,15-6.716,15-15S385.284,300,377,300z"/>
	</g>
</g>
<g>
</g>
<g>
</g>
<g>
</g>
<g>
</g>
<g>
</g>
<g>
</g>
<g>
</g>
<g>
</g>
<g>
</g>
<g>
</g>
<g>
</g>
<g>
</g>
<g>
</g>
<g>
</g>
<g>
</g>
</svg>
