<?xml version="1.0" encoding="iso-8859-1"?>
<!-- Generator: Adobe Illustrator 19.0.0, SVG Export Plug-In . SVG Version: 6.00 Build 0)  -->
<svg version="1.1" id="Capa_1" xmlns="http://www.w3.org/2000/svg" xmlns:xlink="http://www.w3.org/1999/xlink" x="0px" y="0px"
	 viewBox="0 0 512.001 512.001" style="enable-background:new 0 0 512.001 512.001;" xml:space="preserve">
<g>
	<g>
		<path d="M317.015,329.981h-14.999v-134.99c0-8.283-6.716-14.999-14.999-14.999h-89.993c-8.283,0-14.999,6.715-14.999,14.999
			v59.995c0,8.283,6.715,14.999,14.999,14.999h14.999v59.995h-14.999c-8.283,0-14.999,6.715-14.999,14.999v59.995
			c0,8.283,6.715,14.999,14.999,14.999h119.991c8.283,0,14.999-6.715,14.999-14.999V344.98
			C332.014,336.697,325.298,329.981,317.015,329.981z M302.016,389.977h-89.993v-29.998h14.999c8.283,0,14.999-6.715,14.999-14.999
			v-89.993c0-8.283-6.716-14.999-14.999-14.999h-14.999V209.99h59.995v134.99c0,8.283,6.716,14.999,14.999,14.999h14.999V389.977z"
			/>
	</g>
</g>
<g>
	<g>
		<path d="M257.019,60.002c-24.811,0-44.997,20.185-44.997,44.997s20.185,44.997,44.997,44.997s44.997-20.185,44.997-44.997
			S281.831,60.002,257.019,60.002z M257.019,119.997c-8.27,0-14.999-6.728-14.999-14.999c0-8.27,6.729-14.999,14.999-14.999
			c8.27,0,14.999,6.729,14.999,14.999C272.018,113.269,265.29,119.997,257.019,119.997z"/>
	</g>
</g>
<g>
	<g>
		<path d="M257.019,0.006c-139.884,0-256.98,113.016-256.98,254.981c0,49.355,14.161,98.404,40.017,139.052l-38.944,97.36
			c-4.921,12.3,7.376,24.345,19.496,19.497l97.36-38.944c40.648,25.855,89.697,40.017,139.052,40.017
			c142.119,0,254.981-117.248,254.981-256.98C512,114.059,397.959,0.006,257.019,0.006z M257.019,482.17
			c-46.136,0-91.903-14.134-128.869-39.435c-4.135-2.83-9.401-3.405-14.042-1.549l-72.147,28.859l28.859-72.146
			c1.858-4.646,1.277-9.913-1.549-14.042c-25.301-36.966-39.435-82.733-39.435-128.869c0-124.056,102.024-225.183,227.183-225.183
			c124.056,0,225.183,101.327,225.183,225.383C482.202,380.346,381.076,482.17,257.019,482.17z"/>
	</g>
</g>
<g>
</g>
<g>
</g>
<g>
</g>
<g>
</g>
<g>
</g>
<g>
</g>
<g>
</g>
<g>
</g>
<g>
</g>
<g>
</g>
<g>
</g>
<g>
</g>
<g>
</g>
<g>
</g>
<g>
</g>
</svg>
