<svg id="Capa_1" enable-background="new 0 0 512 512" height="512" viewBox="0 0 512 512" width="512" xmlns="http://www.w3.org/2000/svg"><path d="m440.788 189.707-119.377-119.377-25.594 26.027 119.376 119.377z"/><path d="m394.056 237.229-119.377-119.377-218.159 221.845 119.376 119.377z"/><path d="m.622 512 149.992-35.576-111.383-111.384z"/><path d="m497.839 131.692c16.411-16.47 16.394-43.221-.053-59.668l-59.655-59.655c-7.976-7.976-18.581-12.369-29.86-12.369-11.28 0-21.885 4.393-29.861 12.369l-35.861 36.467 119.376 119.377z"/><path d="m511.378 421.592h-47.167l26.759-44.805-25.882-15.456-27.435 45.937-27.434-45.937-25.882 15.456 26.758 44.805h-47.166v30.146h47.166l-26.758 44.806 25.882 15.456 27.434-45.938 27.435 45.938 25.882-15.456-26.759-44.806h47.167z"/></svg>