<svg id="Capa_1" enable-background="new 0 0 512 512" height="512" viewBox="0 0 512 512" width="512" xmlns="http://www.w3.org/2000/svg"><path d="m512 81.057c0-21.651-8.431-42.006-23.74-57.315-15.309-15.31-35.663-23.742-57.314-23.742s-42.005 8.432-57.314 23.741l-55.473 55.475 114.627 114.631 55.473-55.475c15.31-15.309 23.741-35.664 23.741-57.315z"/><path d="m79.981 328.927h202.109l31.715-31.716-101.054-101.058z"/><path d="m27.144 381.766 9.696 27.906-23.297 23.297c-18.058 18.059-18.058 47.444 0 65.503 8.725 8.724 20.355 13.528 32.752 13.528 12.396 0 24.027-4.804 32.75-13.528l23.927-23.928 25.42 8.086 123.713-123.717h-202.109z"/><path d="m270.277 82.761h99.222v218.716h-99.222z" transform="matrix(.707 -.707 .707 .707 -42.154 282.472)"/></svg>