<svg id="Capa_1" enable-background="new 0 0 512 512" height="512" viewBox="0 0 512 512" width="512" xmlns="http://www.w3.org/2000/svg"><path d="m8.671 443.595-8.671 68.405 68.217-8.695 147.423-147.828-59.546-59.709z"/><path d="m322.885 83.939-107.223 70.172c.321.311.653.608.97.926l139.64 140.023c.252.253.485.518.733.773l69.291-107.747z"/><path d="m196.098 175.514c-17.815-17.865-46.805-17.865-64.623 0l-27.161 27.263 204.264 204.825 27.161-27.263c17.816-17.865 17.816-46.935 0-64.8z"/><path d="m411.827 12.52c-16.649-16.694-43.74-16.694-60.388.001-16.649 16.694-16.649 43.858 0 60.553l87.687 87.831c8.065 8.087 18.788 12.541 30.193 12.541 11.406 0 22.129-4.454 30.194-12.541 16.649-16.695 16.649-43.859 0-60.554z"/></svg>