<svg id="Capa_1" enable-background="new 0 0 512 512" height="512" viewBox="0 0 512 512" width="512" xmlns="http://www.w3.org/2000/svg"><path d="m140.657 288.125 98.581 94.857 24.877-26.203-98.581-94.857z"/><path d="m493.406 115.265c25.875-27.438 24.586-70.796-2.873-96.652-13.303-12.524-30.697-19.134-48.96-18.581-18.261.542-35.217 8.153-47.75 21.431l-207.626 218.694 98.581 94.857z"/><path d="m119.994 309.351s-33.834 3.589-58.207 29.875c-16.155 17.424-25.121 40.118-23.403 63.827 4.616 63.695-38.384 98.473-38.384 98.473s186.197 57.222 220.124-95.827z"/><path d="m512 421.72h-46.977l26.651-44.589-25.777-15.382-27.324 45.717-27.325-45.717-25.777 15.382 26.651 44.589h-46.976v30h46.976l-26.651 44.589 25.777 15.381 27.325-45.716 27.324 45.716 25.777-15.381-26.651-44.589h46.977z"/></svg>