<svg id="Capa_1" enable-background="new 0 0 512 512" height="512" viewBox="0 0 512 512" width="512" xmlns="http://www.w3.org/2000/svg"><path d="m112.398 197.319h29.973v-48.045h98.871v226.523h-38.867v30h107.707v-30h-38.867v-226.523h98.871v48.045h29.973v-78.045h-287.661z"/><path d="m62.149 390.785v-269.57c-4.945 1.018-10.064 1.554-15.306 1.554-5.018 0-9.919-.502-14.667-1.437v269.336c4.748-.935 9.649-1.437 14.667-1.437 5.242 0 10.361.536 15.306 1.554z"/><path d="m450.49 121.332v269.336c4.748-.935 9.65-1.437 14.667-1.437 5.242 0 10.361.536 15.306 1.554v-269.569c-4.945 1.018-10.064 1.554-15.306 1.554-5.018 0-9.919-.503-14.667-1.438z"/><path d="m121.141 62.165h269.718c-1.013-4.937-1.545-10.047-1.545-15.28 0-5.036.504-9.956 1.444-14.72h-269.516c.94 4.765 1.444 9.684 1.444 14.72 0 5.232-.532 10.342-1.545 15.28z"/><path d="m390.677 450.852h-269.354c.883 4.623 1.363 9.387 1.363 14.264 0 5.395-.575 10.657-1.65 15.736h269.929c-1.075-5.079-1.65-10.341-1.65-15.736-.001-4.877.479-9.641 1.362-14.264z"/><ellipse cx="46.843" cy="46.885" rx="46.843" ry="46.885"/><ellipse cx="465.157" cy="46.885" rx="46.843" ry="46.885"/><ellipse cx="46.843" cy="465.116" rx="46.843" ry="46.884"/><ellipse cx="465.157" cy="465.116" rx="46.843" ry="46.884"/></svg>