<svg id="Capa_1" enable-background="new 0 0 512 512" height="512" viewBox="0 0 512 512" width="512" xmlns="http://www.w3.org/2000/svg"><path d="m432.376 178.857c-25.835-19.647-52.2-35.333-78.364-46.619-33.186-14.316-66.162-21.575-98.011-21.575s-64.825 7.259-98.011 21.575c-26.164 11.287-52.529 26.972-78.364 46.619-43.762 33.281-79.626 77.143-79.626 77.143s35.864 43.862 79.624 77.143c25.835 19.647 52.2 35.333 78.364 46.619 33.186 14.316 66.162 21.575 98.011 21.575s64.825-7.259 98.011-21.575c26.164-11.287 52.529-26.972 78.364-46.619 43.762-33.281 79.626-77.143 79.626-77.143s-35.864-43.862-79.624-77.143zm-176.376 171.227c-51.464 0-93.332-42.206-93.332-94.084s41.869-94.084 93.332-94.084c26.801 0 50.995 11.45 68.033 29.748.319.34.639.679.949 1.027 15.12 16.726 24.35 38.951 24.35 63.309 0 51.878-41.868 94.084-93.332 94.084z"/><path d="m286.976 278.484c-28.154 0-51.058-23.089-51.058-51.47 0-13.382 5.096-25.584 13.429-34.747-31.939 3.364-56.919 30.661-56.919 63.732 0 35.336 28.518 64.084 63.572 64.084 31.184 0 57.177-22.758 62.54-52.659-8.694 6.918-19.655 11.06-31.564 11.06z"/><path d="m286.976 205.545c-11.744 0-21.298 9.631-21.298 21.469s9.554 21.47 21.298 21.47 21.298-9.631 21.298-21.47c0-5.647-2.191-10.777-5.74-14.614-.227-.246-.46-.487-.691-.73-3.841-3.782-9.085-6.125-14.867-6.125z"/></svg>