<svg id="Capa_1" enable-background="new 0 0 512 512" height="512" viewBox="0 0 512 512" width="512" xmlns="http://www.w3.org/2000/svg"><path d="m460.877 332.343c-24.26-24.202-57.87-34.923-91.325-29.521l-21.65-21.598-71.371 71.199 12.791 12.76c-16.862 39.119-8.39 85.396 22.321 116.032 20.572 20.524 47.595 30.785 74.617 30.785s54.045-10.261 74.617-30.783c41.144-41.045 41.144-107.83 0-148.874zm-75.043 123.598c-26.857 0-48.707-21.797-48.707-48.589s21.85-48.588 48.707-48.588 48.707 21.797 48.707 48.588c-.001 26.793-21.85 48.589-48.707 48.589z"/><path d="m65.996 0-10.606 10.581c-33.505 33.424-33.505 87.811 0 121.235l108.708 108.445 71.371-71.199z"/><path d="m456.61 131.817c33.505-33.424 33.505-87.811 0-121.235l-10.606-10.582-303.556 302.822c-33.455-5.402-67.064 5.319-91.325 29.521-41.144 41.044-41.144 107.829 0 148.874 20.572 20.522 47.594 30.783 74.617 30.783s54.045-10.261 74.617-30.783c30.711-30.636 39.183-76.913 22.321-116.032zm-330.444 324.124c-26.857 0-48.707-21.797-48.707-48.589s21.85-48.588 48.707-48.588 48.707 21.797 48.707 48.588c0 26.793-21.85 48.589-48.707 48.589z"/></svg>