<svg id="Capa_1" enable-background="new 0 0 512 512" height="512" viewBox="0 0 512 512" width="512" xmlns="http://www.w3.org/2000/svg"><path d="m414.883 104.997c-13.382 0-24.23 10.848-24.23 24.23v103.772h-30v-159.342c0-13.584-11.117-25.028-24.698-24.771-13.165.25-23.762 11-23.762 24.225v159.887h-30v-208.768c0-13.382-10.848-24.23-24.23-24.23-13.382 0-24.23 10.848-24.23 24.23v208.769h-30v-159.559c0-13.382-10.848-24.23-24.23-24.23-13.382 0-24.23 10.848-24.23 24.23v201.557l-40.287-45.47c-10.094-9.388-25.877-8.854-35.313 1.195-6.969 7.422-8.751 18.324-4.508 27.579l80.3 175.158c26.568 48.446 77.288 78.541 132.369 78.541 33.119 0 64.597-10.589 91.031-30.621 26.435-20.032 45.205-47.524 54.283-79.502 3.958-13.943 5.965-28.363 5.965-42.861v-229.79c0-13.381-10.848-24.229-24.23-24.229z"/></svg>