<svg id="Capa_1" enable-background="new 0 0 512 512" height="512" viewBox="0 0 512 512" width="512" xmlns="http://www.w3.org/2000/svg"><path d="m283.589 144.58c-7.904-26.834-23.552-51.052-45.099-69.393-26.119-22.232-59.417-34.475-93.761-34.475-79.804 0-144.729 64.925-144.729 144.728 0 65.989 44.35 122.565 106.191 139.542l.003-.012z"/><path d="m129.823 349.16-32.085 122.128 124.649-29.565z"/><path d="m453.579 65.917c-6.939-6.939-16.167-10.762-25.981-10.762s-19.041 3.822-25.98 10.762l-254.16 258.452 99.622 99.621 254.208-258.503c6.909-6.934 10.712-16.14 10.712-25.931 0-9.813-3.822-19.041-10.762-25.979z"/></svg>