<svg id="Capa_1" enable-background="new 0 0 512 512" height="512" viewBox="0 0 512 512" width="512" xmlns="http://www.w3.org/2000/svg"><path d="m413.05 308.885c34.354-33.624 54.22-79.952 54.22-128.773 0-99.314-80.797-180.112-180.111-180.112-38.412 0-75.287 12.196-105.743 34.306 56.736 22.62 96.937 78.11 96.937 142.817 0 66.718-42.741 123.631-102.276 144.824 31.35 24.651 70.136 38.277 111.083 38.277 6.082 0 12.174-.313 18.218-.92l-11.634-142.769zm-34.102-148.73c8.38 0 14.585 6.849 14.948 14.948.362 8.073-7.129 14.948-14.948 14.948-8.38 0-14.585-6.849-14.948-14.948-.362-8.073 7.129-14.948 14.948-14.948zm-58.293 0c8.38 0 14.585 6.849 14.948 14.948.362 8.073-7.129 14.948-14.948 14.948-8.38 0-14.585-6.849-14.948-14.948-.361-8.073 7.129-14.948 14.948-14.948z"/><path d="m329.03 283.123 17.1 228.877 65.007-80.085 100.863-12.326z"/><path d="m124.676 52.447c-68.747 0-124.676 55.929-124.676 124.675 0 68.747 55.929 124.676 124.676 124.676s124.676-55.929 124.676-124.676c0-68.746-55.93-124.675-124.676-124.675zm-32.934 137.603c-8.38 0-14.585-6.849-14.948-14.948-.362-8.072 7.129-14.948 14.948-14.948 8.38 0 14.585 6.849 14.948 14.948.362 8.073-7.129 14.948-14.948 14.948zm58.293 0c-8.38 0-14.585-6.849-14.948-14.948-.362-8.072 7.129-14.948 14.948-14.948 8.38 0 14.585 6.849 14.948 14.948.361 8.073-7.129 14.948-14.948 14.948z"/></svg>