<svg id="Capa_1" enable-background="new 0 0 512 512" height="512" viewBox="0 0 512 512" width="512" xmlns="http://www.w3.org/2000/svg"><path d="m30.195 120.947h30.026v270.105h-30.026z"/><path d="m120.946 451.113h270.107v30.026h-270.107z"/><path d="m451.014 120.947h30.026v270.105h-30.026z"/><path d="m120.946 30.294h270.107v30.026h-270.107z"/><path d="m0 0h91.946v91.947h-91.946z"/><path d="m0 420.053h91.946v91.947h-91.946z"/><path d="m420.054 0h91.946v91.947h-91.946z"/><path d="m420.054 420.053h91.946v91.947h-91.946z"/><path d="m256 85.064-49.345 85.468h-98.689l49.345 85.468-49.345 85.468h98.689l49.345 85.468 49.345-85.468h98.689l-49.345-85.468 49.345-85.468h-98.689z"/></svg>