<svg id="Capa_1" enable-background="new 0 0 512 512" height="512" viewBox="0 0 512 512" width="512" xmlns="http://www.w3.org/2000/svg"><path d="m15.13 462.37h284.327v49.63h-284.327z"/><path d="m15.448 432.05h283.691v-238.488h-283.691zm141.846-185.062c36.292 0 65.817 29.526 65.817 65.818s-29.525 65.818-65.817 65.818-65.818-29.526-65.818-65.818 29.526-65.818 65.818-65.818z"/><path d="m157.294 348.305c19.574 0 35.498-15.925 35.498-35.498s-15.924-35.498-35.498-35.498c-19.573 0-35.498 15.925-35.498 35.498s15.924 35.498 35.498 35.498z"/><path d="m299.457 111.775h-91.506v-29.878h44.964v-30.32h-44.964v-51.577h-101.316v111.775h-91.505v51.468h284.327z"/><path d="m342.249 51.577h30.322v30.32h-30.322z"/><path d="m405.236 51.913h30.322v30.32h-30.322z"/><path d="m342.249 112.694h30.322v30.32h-30.322z"/><path d="m342.249 173.81h30.322v30.32h-30.322z"/><path d="m405.236 113.03h30.322v30.32h-30.322z"/><path d="m466.548 51.577h30.322v30.32h-30.322z"/></svg>