<svg id="Capa_1" enable-background="new 0 0 512 512" height="512" viewBox="0 0 512 512" width="512" xmlns="http://www.w3.org/2000/svg"><path d="m445.68 211h30.76c-8.667-42.924-29.718-82.379-61.39-114.05-31.671-31.672-71.126-52.723-114.05-61.39v30.758c71.411 16.939 127.739 73.272 144.68 144.682z"/><path d="m66.32 211c16.94-71.41 73.269-127.743 144.68-144.682v-30.758c-42.924 8.667-82.379 29.718-114.05 61.39-31.672 31.671-52.724 71.126-61.39 114.05z"/><path d="m256 241c-7.846 0-15.363 6.899-15 15 .364 8.127 6.591 15 15 15 7.846 0 15.363-6.899 15-15-.364-8.127-6.591-15-15-15z"/><path d="m271 342.439c36.376-6.294 65.146-35.064 71.439-71.439h169.561v-30h-169.561c-6.294-36.376-35.064-65.145-71.439-71.438v-169.562h-30v169.562c-36.376 6.293-65.145 35.063-71.439 71.438h-169.561v30h169.561c6.294 36.376 35.063 65.146 71.439 71.439v169.561h30zm-15-28.711c-31.831 0-57.727-25.896-57.727-57.728 0-31.83 25.896-57.727 57.727-57.727s57.728 25.896 57.728 57.727-25.897 57.728-57.728 57.728z"/><path d="m445.679 301c-16.94 71.41-73.268 127.744-144.679 144.683v30.758c42.924-8.667 82.379-29.718 114.05-61.39 31.672-31.672 52.724-71.127 61.39-114.051z"/><path d="m211 445.68c-71.41-16.94-127.743-73.268-144.683-144.68h-30.757c8.667 42.924 29.719 82.379 61.39 114.051s71.126 52.724 114.05 61.39z"/></svg>