<svg id="Capa_1" enable-background="new 0 0 512.044 512.044" height="512" viewBox="0 0 512.044 512.044" width="512" xmlns="http://www.w3.org/2000/svg"><path d="m28.588 401.294h58.988v105.293h-58.988z" transform="matrix(.707 -.707 .707 .707 -303.972 174.026)"/><path d="m138.611 298.958-75.691 75.691 74.453 74.453 75.653-75.653c-15.033-9.034-29.058-19.968-41.772-32.682-12.835-12.835-23.708-26.899-32.643-41.809z"/><path d="m457.084 54.894c-73.163-73.162-192.206-73.162-265.368 0s-73.162 192.206 0 265.368c36.581 36.581 84.632 54.872 132.684 54.872s96.103-18.291 132.684-54.872c35.441-35.441 54.96-82.563 54.96-132.684 0-50.122-19.518-97.243-54.96-132.684z"/></svg>