<svg id="Capa_1" enable-background="new 0 0 512 512" height="512" viewBox="0 0 512 512" width="512" xmlns="http://www.w3.org/2000/svg"><path d="m496.466 168.119-212.765 83.215 214.054 87.67c19.301-55.612 19.004-115.378-1.289-170.885z"/><path d="m358.638 490.571c55.933-24.453 100.816-67.875 127.675-123.831l-204.339-83.691z"/><path d="m14.142 173.354c-19.197 55.529-18.866 115.179 1.39 170.586 21.685 59.314 63.955 107.617 119.821 137.379l102.038-216.53z"/><path d="m162.588 493.91c30.432 12.031 62.286 18.092 94.161 18.09 24.796-.001 49.605-3.678 73.746-11.029l-75.248-203.688z"/><path d="m353.147 19.151c-27.124-11.144-55.719-17.491-85.207-18.867-34.162-1.596-67.754 3.545-99.851 15.279-62.878 22.988-113.381 69.111-142.539 130.041l224.648 92.009z"/></svg>