<svg id="Capa_1" enable-background="new 0 0 512 512" height="512" viewBox="0 0 512 512" width="512" xmlns="http://www.w3.org/2000/svg"><path d="m118.108 119.458c17.81-17.74 38.812-32.056 61.458-42.156v-44.06h-98.965c-6.038-15.603-21.192-26.701-38.9-26.701-22.994 0-41.701 18.707-41.701 41.701s18.707 41.701 41.701 41.701c17.707 0 32.862-11.099 38.899-26.701h61.206c-16.227 9.765-31.357 21.503-44.87 34.962-23.754 23.66-41.974 52.123-53.28 82.684h32.327c9.873-22.559 24.175-43.55 42.125-61.43z"/><path d="m117.07 394.846c-17.926-18.025-31.922-38.902-41.555-61.73h-32.193c11.036 30.917 28.785 59.063 52.476 82.886 23.991 24.124 52.453 42.173 83.768 53.35v-32.186c-23.164-9.773-44.309-24.032-62.496-42.32z"/><path d="m393.963 395.175c-18.113 18.127-39.146 32.273-62.168 41.988v32.187c31.147-11.119 59.478-29.039 83.39-52.97 23.869-23.888 41.746-52.174 52.845-83.265h-32.188c-9.695 22.976-23.803 43.97-41.879 62.06z"/><path d="m331.794 75.552c22.666 10.222 43.721 24.803 61.604 42.931 17.958 18.205 32.26 39.533 42.117 62.404h32.268c-11.258-30.778-29.394-59.515-53.028-83.473-13.673-13.86-28.983-25.917-45.398-35.896h62.041c6.037 15.602 21.192 26.701 38.899 26.701 22.994 0 41.701-18.707 41.701-41.701s-18.705-41.701-41.699-41.701c-17.707 0-32.862 11.099-38.899 26.701h-99.605v44.034z"/><path d="m208.566 0h94.228v94.229h-94.228z"/><path d="m417.771 209.887h94.229v94.229h-94.229z"/><path d="m0 209.887h94.229v94.229h-94.229z"/><path d="m208.566 417.771h94.228v94.229h-94.228z"/></svg>