<svg id="Capa_1" enable-background="new 0 0 512 512" height="512" viewBox="0 0 512 512" width="512" xmlns="http://www.w3.org/2000/svg"><path d="m484.309 481.991v-70.436h-78.3v70.436h-79.038v-70.436h-78.3v70.436h-79.038v-70.436h-78.3v70.436h-61.324v-481.991h-30.009v512h512v-30.009z"/><path d="m248.671 308.666h78.3v78.3h-78.3z"/><path d="m248.671 205.777h78.3v78.3h-78.3z"/><path d="m248.671 102.889h78.3v78.3h-78.3z"/><path d="m248.671 0h78.3v78.3h-78.3z"/><path d="m406.009 308.666h78.3v78.3h-78.3z"/><path d="m406.009 205.777h78.3v78.3h-78.3z"/><path d="m406.009 102.889h78.3v78.3h-78.3z"/><path d="m91.333 308.666h78.3v78.3h-78.3z"/><path d="m91.333 205.777h78.3v78.3h-78.3z"/></svg>