<svg id="Capa_1" enable-background="new 0 0 512 512" height="512" viewBox="0 0 512 512" width="512" xmlns="http://www.w3.org/2000/svg"><path d="m369.895 42.842h88.076v189.3h-88.076z" transform="matrix(.707 -.707 .707 .707 24.016 332.965)"/><path d="m291.675 119.939-112.449 66.898-65.955 232.67 129.147-128.86-.128-30.242 51.541-.588.589 51.758-30.614.127-129.329 129.052 235.1-67.77 62.357-112.786z"/><path d="m113.268 419.516-10.599 10.599c-8.027 8.027-18.699 12.448-30.051 12.448s-22.024-4.421-30.052-12.448c-16.108-16.108-16.689-41.901-1.322-58.719l20.281-22.198c26.218-28.694 25.228-72.7-2.257-100.184l-38.048-38.048-21.22 21.221 38.048 38.048c16.108 16.108 16.689 41.901 1.322 58.719l-20.281 22.198c-26.218 28.694-25.228 72.7 2.257 100.184 13.695 13.696 31.904 21.238 51.273 21.238s37.577-7.543 51.272-21.238l10.585-10.584.001.001z"/></svg>