<svg id="Capa_1" enable-background="new 0 0 512 512" height="512" viewBox="0 0 512 512" width="512" xmlns="http://www.w3.org/2000/svg"><path d="m161.707 356.827c32.166 5.791 63.23 8.688 94.293 8.688 31.064 0 62.128-2.896 94.293-8.688l10.258-1.847 1.786-10.269c10.7-61.531 10.7-123.93 0-185.462l-1.786-10.269-10.258-1.847c-64.331-11.583-124.255-11.583-188.586 0l-10.258 1.847-1.786 10.269c-10.7 61.532-10.7 123.93 0 185.462l1.786 10.269z"/><path d="m134.617 112.711h242.766l-121.383-112.711z"/><path d="m256 512 121.383-112.711h-242.766z"/><path d="m399.289 134.616v242.768l112.711-121.384z"/><path d="m112.711 377.384v-242.768l-112.711 121.384z"/></svg>