<svg id="Capa_1" enable-background="new 0 0 512 512" height="512" viewBox="0 0 512 512" width="512" xmlns="http://www.w3.org/2000/svg"><path d="m199.891 91.485h71.139v-91.485h-271.03v271.029h91.485v-71.139c0-59.774 48.631-108.405 108.406-108.405z"/><path d="m376.485 211.971c5.067 0 10.078.243 15.029.693v-12.774c0-43.784-35.621-79.405-79.405-79.405h-112.219c-43.784 0-79.405 35.621-79.405 79.405v112.22c0 43.784 35.621 79.405 79.405 79.405h12.774c-.451-4.952-.693-9.962-.693-15.029 0-90.715 73.8-164.515 164.514-164.515z"/><circle cx="376.485" cy="376.485" r="135.515"/></svg>