<svg id="Capa_1" enable-background="new 0 0 514.175 514.175" height="512" viewBox="0 0 514.175 514.175" width="512" xmlns="http://www.w3.org/2000/svg"><path d="m500.156 72.299-59.883-59.883c-8.007-8.007-18.652-12.416-29.975-12.416s-21.969 4.409-29.975 12.416l-337.686 343.39-41.55 158.155 161.329-38.265 337.793-343.5c16.474-16.533 16.457-43.387-.053-59.897zm-420.97 289.335 221.049-224.784 77.2 77.2-221.05 224.784zm242.187-246.278 22.705-23.088 77.2 77.2-22.705 23.088zm-256.53 274.567 62.992 62.992-84.827 20.12zm413.997-278.99-36.425 37.04-77.2-77.2 36.462-37.078c2.309-2.289 5.368-3.549 8.621-3.549 3.271 0 6.346 1.274 8.659 3.587l59.884 59.883c4.773 4.774 4.773 12.542-.001 17.317z"/><path d="m513.088 423.767h-47.167l26.758-44.805-25.882-15.456-27.434 45.937-27.435-45.937-25.882 15.456 26.759 44.805h-47.167v30.146h47.167l-26.759 44.806 25.882 15.456 27.435-45.938 27.434 45.938 25.882-15.456-26.758-44.806h47.167z"/></svg>