<svg id="Capa_1" enable-background="new 0 0 512 512" height="512" viewBox="0 0 512 512" width="512" xmlns="http://www.w3.org/2000/svg"><path d="m512 81.057c0-21.651-8.431-42.006-23.74-57.315-15.309-15.31-35.663-23.742-57.314-23.742s-42.005 8.432-57.314 23.741l-75.979 75.981-20.013-20.013-80.953 80.956 25.775 25.776-195.318 195.325 9.696 27.906-23.297 23.297c-18.058 18.059-18.058 47.444 0 65.503 8.725 8.724 20.355 13.528 32.752 13.528 12.396 0 24.027-4.804 32.75-13.528l23.927-23.928 25.42 8.086 195.125-195.131 27.823 27.824 80.954-80.956-20.013-20.013 75.979-75.982c15.309-15.309 23.74-35.664 23.74-57.315zm-391.908 367.467-25.42-8.086-36.829 36.831c-3.06 3.06-7.162 4.745-11.548 4.745-4.387 0-8.488-1.685-11.548-4.745-6.368-6.368-6.368-16.729 0-23.097l36.586-36.588-9.696-27.906 13.994-13.995h117.3zm102.823-102.826h-117.3l138.049-138.053 58.65 58.652zm128.424-72.781-112.247-112.252 38.548-38.55 112.248 112.251zm115.718-155.748-75.979 75.982-72.223-72.226 75.98-75.981c9.645-9.646 22.47-14.958 36.111-14.958s26.466 5.312 36.112 14.959c9.646 9.646 14.958 22.471 14.958 36.112-.001 13.641-5.313 26.466-14.959 36.112z"/></svg>