<svg id="Capa_1" enable-background="new 0 0 512 512" height="512" viewBox="0 0 512 512" width="512" xmlns="http://www.w3.org/2000/svg"><path d="m494.977 82.49-66.442-66.626c-21.096-21.153-55.422-21.153-76.518.001-15.39 15.432-19.538 37.92-12.474 57.171l-136.736 89.487c-17.932-14.807-44.573-13.814-61.331 2.99l-37.162 37.263 72.859 73.059-167.3 167.76-8.672 68.405 68.217-8.695 167.3-167.76 71.859 72.056 37.161-37.264c16.774-16.821 17.75-43.57 2.937-61.552l88.35-137.384c6.194 2.424 12.843 3.707 19.692 3.707 14.453 0 28.04-5.643 38.259-15.891 21.097-21.153 21.097-55.573.001-76.727zm-270.306 101.647 132.296-86.582 55.841 55.994-85.717 133.289zm-169.212 290.623-19.613 2.5 2.493-19.666 160.046-160.486 17.12 17.167zm269.067-125.694-15.948 15.992-161.837-162.281 15.948-15.992c6.119-6.136 16.076-6.137 22.197 0l139.641 140.024c6.118 6.136 6.118 16.121-.001 22.257zm149.238-211.12c-9.397 9.423-24.691 9.425-34.091 0l-66.443-66.625c-9.398-9.425-9.398-24.76.001-34.185 4.699-4.712 10.872-7.068 17.045-7.068s12.347 2.356 17.046 7.068l66.442 66.625c9.399 9.425 9.399 24.761 0 34.185z"/></svg>