<svg id="Capa_1" enable-background="new 0 0 512.011 512.011" height="512" viewBox="0 0 512.011 512.011" width="512" xmlns="http://www.w3.org/2000/svg"><path d="m112.084 192.986h29.973v-48.044h98.871v226.523h-38.867v30h107.707v-30h-38.867v-226.523h98.871v48.044h29.973v-78.044h-287.661z"/><path d="m480.149 420.717v-329.423c18.499-6.271 31.856-23.803 31.856-44.41 0-25.852-21.013-46.884-46.843-46.884-20.569 0-38.071 13.344-44.352 31.833h-329.609c-6.281-18.489-23.783-31.833-44.353-31.833-25.829 0-46.843 21.032-46.843 46.885 0 20.607 13.357 38.138 31.856 44.41v329.423c-18.499 6.271-31.856 23.802-31.856 44.409 0 25.853 21.013 46.884 46.843 46.884 20.443 0 37.857-13.179 44.237-31.491h329.841c6.379 18.311 23.794 31.491 44.237 31.491 25.829 0 46.843-21.032 46.843-46.884-.001-20.607-13.358-38.138-31.857-44.41zm-59.49 29.803h-329.307c-4.595-13.988-15.595-25.083-29.517-29.803v-329.423c13.808-4.681 24.74-15.635 29.401-29.462h329.539c4.661 13.827 15.593 24.781 29.401 29.462v329.423c-13.921 4.72-24.922 15.815-29.517 29.803zm44.503-420.52c9.302 0 16.87 7.575 16.87 16.885s-7.568 16.885-16.87 16.885-16.87-7.575-16.87-16.885 7.569-16.885 16.87-16.885zm-418.314 0c9.302 0 16.87 7.575 16.87 16.885s-7.568 16.885-16.87 16.885-16.87-7.575-16.87-16.885 7.569-16.885 16.87-16.885zm0 452.011c-9.302 0-16.87-7.574-16.87-16.885 0-9.31 7.568-16.884 16.87-16.884s16.87 7.574 16.87 16.884c0 9.311-7.568 16.885-16.87 16.885zm418.314 0c-9.302 0-16.87-7.574-16.87-16.885 0-9.31 7.568-16.884 16.87-16.884s16.87 7.574 16.87 16.884c0 9.311-7.568 16.885-16.87 16.885z"/></svg>