<svg id="Capa_1" enable-background="new 0 0 512 512" height="512" viewBox="0 0 512 512" width="512" xmlns="http://www.w3.org/2000/svg"><path d="m432.376 178.857c-25.835-19.647-52.2-35.333-78.364-46.619-33.186-14.316-66.162-21.575-98.011-21.575s-64.825 7.259-98.011 21.575c-26.164 11.287-52.529 26.972-78.364 46.619-43.762 33.281-79.626 77.143-79.626 77.143s35.864 43.862 79.624 77.143c25.835 19.647 52.2 35.333 78.364 46.619 33.186 14.316 66.162 21.575 98.011 21.575s64.825-7.259 98.011-21.575c26.164-11.287 52.529-26.972 78.364-46.619 43.762-33.281 79.626-77.143 79.626-77.143s-35.864-43.862-79.624-77.143zm-18.488 130.765c-67.303 51.007-123.008 61.714-157.888 61.714s-90.585-10.707-157.888-61.715c-27.452-20.805-48.177-41.85-58.986-53.621 10.811-11.773 31.534-32.816 58.986-53.622 67.303-51.007 123.008-61.714 157.888-61.714s90.585 10.707 157.888 61.715c27.452 20.805 48.175 41.848 58.986 53.622-10.811 11.772-31.534 32.815-58.986 53.621z"/><path d="m324.033 191.663c-17.038-18.298-41.232-29.748-68.033-29.748-51.464 0-93.332 42.206-93.332 94.084s41.869 94.084 93.332 94.084 93.332-42.206 93.332-94.084c0-24.358-9.231-46.583-24.35-63.309-.31-.348-.63-.687-.949-1.027zm-15.759 35.352c0 11.838-9.554 21.47-21.298 21.47s-21.298-9.631-21.298-21.47 9.554-21.469 21.298-21.469c5.782 0 11.026 2.342 14.867 6.125.231.243.463.484.691.73 3.549 3.837 5.74 8.966 5.74 14.614zm-52.274 93.069c-35.054 0-63.572-28.748-63.572-64.084 0-33.072 24.981-60.368 56.919-63.732-8.334 9.163-13.429 21.365-13.429 34.747 0 28.38 22.904 51.47 51.058 51.47 11.909 0 22.87-4.143 31.564-11.059-5.363 29.901-31.356 52.658-62.54 52.658z"/></svg>