<svg id="Capa_1" enable-background="new 0 0 512 512" height="512" viewBox="0 0 512 512" width="512" xmlns="http://www.w3.org/2000/svg"><path d="m364.55 302.823-37.179-37.089 134.241-133.917c33.505-33.424 33.505-87.811 0-121.235l-10.606-10.582-195.006 194.535-195.005-194.535-10.607 10.581c-33.506 33.424-33.506 87.811 0 121.235l134.241 133.917-37.179 37.089c-33.455-5.402-67.064 5.319-91.325 29.521-41.144 41.044-41.144 107.829 0 148.874 20.573 20.522 47.595 30.783 74.618 30.783s54.045-10.261 74.617-30.783c30.711-30.636 39.183-76.913 22.321-116.032l28.32-28.252 28.32 28.252c-16.862 39.12-8.391 85.396 22.32 116.032 20.574 20.525 47.591 30.786 74.617 30.783 27.02-.002 54.048-10.263 74.617-30.783 41.144-41.045 41.144-107.83 0-148.874-24.259-24.202-57.869-34.927-91.325-29.52zm-292.949-192.168c-10.564-10.539-16.383-24.551-16.383-39.456 0-9.776 2.503-19.168 7.207-27.448l172.362 171.946-28.945 28.875zm124.822 258.935c16.732 29.362 11.684 66.562-12.276 90.465-29.448 29.376-77.361 29.375-106.808 0-29.447-29.376-29.447-77.174 0-106.551 14.414-14.379 33.438-22.108 53.189-22.108 6.059 0 26.476 4.22 26.476 4.22l292.558-291.851c12.028 21.27 8.974 48.797-9.162 66.89l-249.626 249.022zm238.239 90.465c-29.448 29.377-77.362 29.374-106.809 0-23.96-23.902-29.008-61.102-12.276-90.465l5.649-9.913-44.013-43.907 28.945-28.875 48.838 48.721 8.204-2.005c25.913-6.334 52.626 1.105 71.462 19.893 29.447 29.377 29.447 77.175 0 106.551z"/><path d="m131.169 358.764c-26.857 0-48.707 21.797-48.707 48.588 0 26.792 21.85 48.589 48.707 48.589s48.707-21.797 48.707-48.589c-.001-26.791-21.85-48.588-48.707-48.588zm0 67.25c-10.315 0-18.707-8.371-18.707-18.661s8.392-18.661 18.707-18.661 18.707 8.371 18.707 18.661c-.001 10.29-8.392 18.661-18.707 18.661z"/><path d="m381.102 358.764c-26.857 0-48.707 21.797-48.707 48.588 0 26.792 21.85 48.589 48.707 48.589 26.856 0 48.706-21.797 48.706-48.589 0-26.791-21.85-48.588-48.706-48.588zm0 67.25c-10.315 0-18.707-8.371-18.707-18.661s8.392-18.661 18.707-18.661c10.314 0 18.706 8.371 18.706 18.661s-8.392 18.661-18.706 18.661z"/></svg>