<svg id="Capa_1" enable-background="new 0 0 512 512" height="512" viewBox="0 0 512 512" width="512" xmlns="http://www.w3.org/2000/svg"><path d="m463 68.291h-126.5v-68.291h-161v68.291h-126.5v30.129h37.983v362.501c0 28.165 22.816 51.079 50.861 51.079h236.311c28.045 0 50.861-22.914 50.861-51.079v-362.501h37.984zm-257.5-38.163h101v38.163h-101zm189.517 430.793c0 11.552-9.358 20.951-20.861 20.951h-236.311c-11.503 0-20.861-9.398-20.861-20.951v-362.501h278.033z"/><path d="m165.712 159.681h30v272.159h-30z"/><path d="m241 159.681h30v272.159h-30z"/><path d="m316.288 159.681h30v272.159h-30z"/></svg>