<svg id="Capa_1" enable-background="new 0 0 512 512" height="512" viewBox="0 0 512 512" width="512" xmlns="http://www.w3.org/2000/svg"><path d="m402.933 106.23c-6.962-.55-13.907.497-20.326 2.964v-12.956c0-24.648-18.846-45.45-42.905-47.357-6.957-.552-13.906.497-20.325 2.964v-4.345c0-24.648-18.847-45.45-42.905-47.357-12.905-1.023-25.783 3.459-35.31 12.298-9.543 8.855-15.017 21.377-15.017 34.356v5.008c-5.164-1.984-10.765-3.072-16.615-3.072-25.704 0-46.615 20.995-46.615 46.802v139.152l-24.121-20.353c-15.55-13.872-38.797-14.791-55.388-2.154-16.46 12.536-21.914 35.206-12.97 53.904l.181.377 91.575 166.998c26.567 48.446 77.286 78.541 132.367 78.541 33.119 0 64.597-10.589 91.031-30.621 26.435-20.032 45.205-47.524 54.283-79.502 3.958-13.943 5.965-28.363 5.965-42.861v-205.43c.001-24.649-18.846-45.45-42.905-47.356zm12.906 252.787c0 11.705-1.62 23.347-4.816 34.605-7.275 25.628-22.319 47.661-43.505 63.717-21.187 16.055-46.415 24.542-72.958 24.542-44.145 0-84.795-24.119-106.087-62.946l-91.137-166.199c-2.595-5.79-.858-12.703 4.201-16.558 5.215-3.972 12.53-3.665 17.397.733l73.98 62.435v-203.81h.436c.116-9.064 7.491-16.379 16.583-16.379 9.164 0 16.593 7.429 16.593 16.593v155.5h29.474v-204.54c0-9.164 7.429-16.593 16.593-16.593s16.688 7.429 16.688 16.593v204.541h29.822v-155.5c0-9.164 7.429-16.593 16.594-16.593s16.752 7.429 16.752 16.593v155.5h30.176v-98.366.001c.108-9.071 7.523-16.394 16.62-16.394 9.164 0 16.594 7.429 16.594 16.593z"/></svg>