<svg id="Capa_1" enable-background="new 0 0 512 512" height="512" viewBox="0 0 512 512" width="512" xmlns="http://www.w3.org/2000/svg"><path d="m397.51 0-397.51 397.51 114.49 114.49 397.51-397.51zm-355.313 397.51 50.269-50.269 29.548 29.548 21.098-21.098-29.548-29.548 25.637-25.637 29.548 29.548 21.098-21.098-29.548-29.548 25.637-25.637 29.548 29.548 21.098-21.098-29.548-29.548 25.637-25.637 29.548 29.548 21.098-21.098-29.548-29.548 25.637-25.637 29.548 29.548 21.098-21.098-29.548-29.548 25.637-25.637 29.548 29.548 21.098-21.098-29.547-29.55 50.269-50.269 72.293 72.293-355.312 355.313z"/></svg>