<svg id="Capa_1" enable-background="new 0 0 510.962 510.962" height="512" viewBox="0 0 510.962 510.962" width="512" xmlns="http://www.w3.org/2000/svg"><path d="m500.201 111.968-47.66-47.66c-6.939-6.939-16.167-10.762-25.981-10.762s-19.041 3.822-25.98 10.762l-84.295 85.719c-9.499-26.957-26.056-51.205-48.11-69.977-29.37-24.999-66.813-38.767-105.432-38.767-89.737 0-162.743 73.006-162.743 162.743 0 76.143 52.507 141.149 124.897 158.326l-28.197 107.327 134.111-31.809 269.439-273.992c6.909-6.934 10.712-16.14 10.712-25.931 0-9.813-3.822-19.041-10.761-25.979zm-470.201 92.058c0-73.194 59.548-132.742 132.743-132.742 31.501 0 62.038 11.227 85.987 31.611 21.893 18.635 37.146 43.866 43.46 71.635l-156.778 159.424c-60.863-12.682-105.412-66.576-105.412-129.928zm123.195 168.68 42.63 42.63-57.408 13.616zm325.793-229.991-254.529 258.829-57.194-57.194 254.56-258.862c1.711-1.689 3.699-1.942 4.735-1.942 1.043 0 3.049.256 4.768 1.975l47.66 47.66c1.718 1.718 1.975 3.725 1.975 4.767-.001 1.042-.257 3.049-1.975 4.767z"/></svg>