<svg id="Capa_1" enable-background="new 0 0 512 512" height="512" viewBox="0 0 512 512" width="512" xmlns="http://www.w3.org/2000/svg"><path d="m405.217 316.11c39.152-34.029 62.054-83.578 62.054-135.999-.001-99.313-80.798-180.111-180.112-180.111-49.693 0-96.823 20.398-130.798 56.288-9.84-2.506-20.142-3.841-30.751-3.841-68.746 0-124.676 55.929-124.676 124.675 0 68.747 55.93 124.676 124.676 124.676 9.005 0 17.787-.968 26.256-2.791 34.247 39.023 83.014 61.216 135.293 61.216 4.845 0 9.697-.201 14.525-.587l14.101 152.364 76.533-94.286 118.748-14.511zm-374.388-138.988c0-52.262 42.518-94.78 94.78-94.78s94.78 42.518 94.78 94.78c0 52.263-42.518 94.781-94.78 94.781s-94.78-42.518-94.78-94.781zm256.33 153.206c-39.539 0-76.669-15.23-104.55-42.342 40.157-20.73 67.677-62.642 67.677-110.864 0-46.576-25.677-87.262-63.615-108.664 27.431-24.703 63.089-38.562 100.488-38.562 82.83 0 150.216 67.386 150.216 150.216 0 45.419-20.616 88.256-55.632 116.684l-92.953-76.482 10.139 109.551c-3.912.303-7.843.463-11.77.463zm89.553 59.175-37.918 46.714-13.628-147.258 113.061 93.028z"/><path d="m91.742 160.155c-7.819 0-15.309 6.875-14.948 14.948.363 8.099 6.568 14.948 14.948 14.948 7.819 0 15.309-6.875 14.948-14.948-.363-8.099-6.568-14.948-14.948-14.948z"/><path d="m150.035 160.155c-7.819 0-15.309 6.875-14.948 14.948.363 8.099 6.568 14.948 14.948 14.948 7.819 0 15.309-6.875 14.948-14.948-.363-8.099-6.568-14.948-14.948-14.948z"/><path d="m301.386 190.05c7.819 0 15.309-6.875 14.948-14.948-.363-8.099-6.568-14.948-14.948-14.948-7.819 0-15.309 6.875-14.948 14.948.363 8.1 6.568 14.948 14.948 14.948z"/><path d="m359.678 190.05c7.819 0 15.309-6.875 14.948-14.948-.363-8.099-6.568-14.948-14.948-14.948-7.819 0-15.309 6.875-14.948 14.948.363 8.1 6.568 14.948 14.948 14.948z"/></svg>