<svg id="Capa_1" enable-background="new 0 0 512 512" height="512" viewBox="0 0 512 512" width="512" xmlns="http://www.w3.org/2000/svg"><path d="m512 91.911v-91.911h-91.946v30.381h-328.108v-30.381h-91.946v91.911h30.195v328.177h-30.195v91.912h91.946v-30.949h328.108v30.949h91.946v-91.911h-30.96v-328.178zm-61.92-61.897h31.895v31.883h-31.895zm-420.054 0h31.894v31.883h-31.894zm31.894 451.972h-31.894v-31.883h31.894zm420.054 0h-31.894v-31.883h31.895v31.883zm-30.96-61.897h-30.96v30.948h-328.108v-30.948h-31.725v-328.178h31.725v-31.515h328.108v31.516h30.96z"/><path d="m307.146 170.565-49.345-85.435-49.345 85.435h-98.689l49.345 85.435-49.345 85.435h98.689l49.345 85.435 49.345-85.435h98.689l-49.345-85.435 49.345-85.435zm46.684 140.855h-64.019l-32.01 55.421-32.01-55.421h-64.019l32.01-55.42-32.01-55.421h64.019l32.01-55.42 32.01 55.42h64.019l-32.01 55.421z"/></svg>