<svg id="Capa_1" enable-background="new 0 0 512 512" height="512" viewBox="0 0 512 512" width="512" xmlns="http://www.w3.org/2000/svg"><path d="m223.61 80.978h39.805v-30.32h-39.805v-50.658h-131.635v111.775h-76.346v319.675 80.55h284.327v-400.225h-76.346zm-101.316-50.658h70.996v81.455h-70.996zm-76.345 192.325h223.688v178.484h-223.688zm223.687 259.035h-223.687v-50.231h223.688v50.231zm0-339.586v50.231h-223.687v-50.231z"/><path d="m157.793 246.069c-36.292 0-65.818 29.526-65.818 65.818s29.526 65.818 65.818 65.818 65.817-29.526 65.817-65.818-29.525-65.818-65.817-65.818zm0 101.317c-19.573 0-35.498-15.925-35.498-35.498s15.925-35.498 35.498-35.498c19.574 0 35.498 15.925 35.498 35.498s-15.925 35.498-35.498 35.498z"/><path d="m342.748 50.658h30.322v30.32h-30.322z"/><path d="m404.399 50.658h30.322v30.32h-30.322z"/><path d="m342.748 111.775h30.322v30.32h-30.322z"/><path d="m342.748 172.891h30.322v30.32h-30.322z"/><path d="m404.399 111.775h30.322v30.32h-30.322z"/><path d="m466.049 50.658h30.322v30.32h-30.322z"/></svg>