<svg id="Capa_1" enable-background="new 0 0 512 512" height="512" viewBox="0 0 512 512" width="512" xmlns="http://www.w3.org/2000/svg"><path d="m314.339 0h-314.339v512h512v-314.339c0-108.991-88.67-197.661-197.661-197.661zm167.661 482h-452v-452h284.339c92.449 0 167.661 75.213 167.661 167.661z"/><path d="m377.678 92.239c-22.994 0-41.701 18.707-41.701 41.701s18.707 41.701 41.701 41.701 41.701-18.707 41.701-41.701-18.707-41.701-41.701-41.701zm0 53.403c-6.452 0-11.701-5.249-11.701-11.701s5.249-11.701 11.701-11.701 11.701 5.249 11.701 11.701-5.249 11.701-11.701 11.701z"/><path d="m309.428 180.978-69.563 69.563v-34.449h-30v85.662h85.661v-30h-34.448l69.563-69.564z"/></svg>