<svg id="Capa_1" enable-background="new 0 0 512 512" height="512" viewBox="0 0 512 512" width="512" xmlns="http://www.w3.org/2000/svg"><path d="m512 241h-31.573c-3.561-54.435-26.448-105.122-65.377-144.05-38.928-38.929-89.615-61.816-144.05-65.377v-31.573h-30v31.573c-54.435 3.561-105.122 26.448-144.05 65.377-38.929 38.928-61.817 89.615-65.377 144.05h-31.573v30h31.573c3.561 54.435 26.449 105.122 65.377 144.051s89.615 61.816 144.05 65.377v31.572h30v-31.572c54.435-3.561 105.122-26.448 144.05-65.377 38.929-38.929 61.816-89.616 65.377-144.051h31.573zm-61.641 0h-107.92c-6.294-36.376-35.064-65.145-71.439-71.438v-107.921c95.552 7.306 172.053 83.807 179.359 179.359zm-194.359 72.728c-31.831 0-57.727-25.896-57.727-57.728 0-31.83 25.896-57.727 57.727-57.727s57.728 25.896 57.728 57.727-25.897 57.728-57.728 57.728zm-15-252.087v107.921c-36.376 6.293-65.145 35.063-71.439 71.438h-107.921c7.306-95.552 83.807-172.053 179.36-179.359zm-179.36 209.359h107.921c6.294 36.376 35.063 65.146 71.439 71.439v107.921c-95.553-7.306-172.054-83.808-179.36-179.36zm209.36 179.36v-107.921c36.376-6.294 65.146-35.064 71.439-71.439h107.92c-7.306 95.552-83.807 172.054-179.359 179.36z"/><path d="m256 241c-7.846 0-15.363 6.899-15 15 .364 8.127 6.591 15 15 15 7.846 0 15.363-6.899 15-15-.364-8.127-6.591-15-15-15z"/></svg>