<svg id="Capa_1" enable-background="new 0 0 512.088 512.088" height="512" viewBox="0 0 512.088 512.088" width="512" xmlns="http://www.w3.org/2000/svg"><path d="m457.129 54.916c-73.163-73.162-192.206-73.162-265.368 0-60.243 60.243-70.869 151.589-31.903 222.818l-159.858 159.857 74.453 74.453 159.857-159.857c27.977 15.305 59.053 22.969 90.134 22.969 48.052 0 96.103-18.291 132.684-54.872 35.441-35.441 54.96-82.563 54.96-132.684s-19.518-97.243-54.959-132.684zm-414.711 382.675 20.502-20.502 32.035 32.035-20.502 20.502zm73.746-9.675-32.036-32.036 92.584-92.584c4.618 5.888 26.148 27.418 32.035 32.036zm319.756-128.841c-61.467 61.468-161.483 61.467-222.951 0-61.467-61.468-61.467-161.483 0-222.951 30.738-30.737 71.1-46.1 111.476-46.1 40.366 0 80.745 15.371 111.476 46.1 29.776 29.776 46.174 69.366 46.174 111.476s-16.399 81.699-46.175 111.475z"/></svg>