<svg id="Capa_1" enable-background="new 0 0 512.059 512.059" height="512" viewBox="0 0 512.059 512.059" width="512" xmlns="http://www.w3.org/2000/svg"><path d="m496.524 168.139-5.152-14.091-204.83 74.882 92.925-197.713-13.49-6.414c-30.867-14.674-63.84-22.925-98.004-24.52-34.166-1.596-67.762 3.546-99.863 15.281-63.834 23.338-114.93 70.503-143.875 132.809-28.947 62.306-32.036 131.774-8.7 195.607s70.502 114.929 132.808 143.874c34.667 16.105 71.539 24.207 108.435 24.205 29.417-.002 58.855-5.154 87.171-15.506 63.833-23.336 114.929-70.501 143.875-132.807 28.947-62.306 32.037-131.774 8.7-195.607zm-26.443 159.28-172.505-70.573 175.451-64.143c12.919 44.215 11.857 90.873-2.946 134.716zm-291.669-283.672c50.013-19.627 116.013-19.627 160.982 2.184l-89.887 191.249-196.11-80.23c25.874-53.018 70.593-91.845 125.015-113.203zm-30.771 410.171c-48.42-26.363-85.037-68.583-103.924-120.242-17.674-48.345-18.132-100.384-1.726-148.972l194.736 79.668zm27.219 12.635 79.956-170.119 64.569 176.619c-47.53 13.888-97.879 11.628-144.525-6.5zm172.703-3.813-65.781-179.935 176.881 72.364c-23.649 48.459-62.642 86.123-111.1 107.571z"/></svg>