<svg id="Capa_1" enable-background="new 0 0 512 512" height="512" viewBox="0 0 512 512" width="512" xmlns="http://www.w3.org/2000/svg"><path d="m512 209.887h-35.796c-8.998-41.586-30.52-81.121-61.448-112.473-13.673-13.86-28.983-25.917-45.398-35.896h58.035c6.037 15.602 21.192 26.701 38.899 26.701 22.994 0 41.701-18.707 41.701-41.701s-18.706-41.701-41.701-41.701c-17.707 0-32.862 11.099-38.899 26.701h-124.599v-31.518h-94.228v33.242h-124.144c-6.037-15.603-21.192-26.701-38.899-26.701-22.994 0-41.701 18.707-41.701 41.701s18.707 41.701 41.701 41.701c17.707 0 32.862-11.099 38.899-26.701h57.384c-16.227 9.765-31.357 21.503-44.87 34.962-31.131 31.009-52.766 70.264-61.773 111.684h-35.163v94.229h35.127c8.962 42.357 29.759 80.802 60.672 111.886 31.211 31.383 69.981 52.498 112.768 61.553v34.444h94.228v-34.446c42.603-9.018 81.243-30.003 112.39-61.174 31.105-31.129 52.046-69.722 61.051-112.265h35.764zm-45.708-175.07c6.452 0 11.701 5.249 11.701 11.701s-5.249 11.701-11.701 11.701-11.701-5.249-11.701-11.701 5.249-11.701 11.701-11.701zm-227.726-4.817h34.228v34.229h-34.228zm-193.043 29.943c-6.452 0-11.701-5.249-11.701-11.701s5.249-11.701 11.701-11.701 11.701 5.249 11.701 11.701-5.249 11.701-11.701 11.701zm-15.523 179.944h34.229v34.229h-34.229zm242.794 242.113h-34.228v-34.229h34.228zm121.169-86.825c-25.475 25.495-56.722 43.124-91.168 51.602v-29.006h-94.228v29.006c-34.602-8.514-65.963-26.256-91.497-51.931-25.275-25.414-42.747-56.495-51.17-90.73h28.328v-94.229h-28.239c8.541-33.467 26.664-65.075 52.119-90.429 25.218-25.118 56.831-43.378 90.458-52.51v27.28h94.228v-29.104c33.61 9.131 65.284 27.692 90.604 53.359 25.371 25.719 43.452 57.67 51.99 91.404h-27.617v94.229h27.684c-8.464 34.394-26.054 65.601-51.492 91.059zm88.037-121.059h-34.229v-34.229h34.229z"/></svg>