<svg id="Capa_1" enable-background="new 0 0 511.9 511.9" height="512" viewBox="0 0 511.9 511.9" width="512" xmlns="http://www.w3.org/2000/svg"><path d="m511.9 116.883h-121.431v363.526h-39.959v-454.534h-121.38v454.534h-37.957v-273.024h-121.38v273.024h-39.784v-478.927h-30.009v508.937h511.9zm-350.736 272.519h-61.362v-61h61.363v61zm0-152.008v60.999h-61.362v-60.999zm-61.362 243.015v-60.999h61.363v60.999zm220.7-273.024h-61.363v-60.493h61.363zm0 30.009v60.999h-61.363v-60.999zm0 91.008v61h-61.363v-61zm0-272.518v60.999h-61.363v-60.999zm-61.363 424.525v-60.999h61.363v60.999zm222.702-182.016h-61.364v-60.999h61.364zm0 30.009v61h-61.364v-61zm0-181.51v60.493h-61.364v-60.493zm-61.364 333.517v-60.999h61.364v60.999z"/></svg>