<svg id="Capa_1" enable-background="new 0 0 512 512" height="512" viewBox="0 0 512 512" width="512" xmlns="http://www.w3.org/2000/svg"><path d="m254.873 113.924c-78.683 0-142.697 64.013-142.697 142.697s64.013 142.697 142.697 142.697 142.697-64.013 142.697-142.697-64.014-142.697-142.697-142.697zm0 255.203c-62.036 0-112.506-50.47-112.506-112.506s50.47-112.506 112.506-112.506 112.506 50.47 112.506 112.506-50.47 112.506-112.506 112.506z"/><path d="m254.873 181.47c-41.438 0-75.151 33.713-75.151 75.151s33.713 75.151 75.151 75.151 75.151-33.713 75.151-75.151-33.713-75.151-75.151-75.151zm0 120.112c-24.791 0-44.961-20.169-44.961-44.961s20.169-44.961 44.961-44.961c24.791 0 44.961 20.169 44.961 44.961s-20.17 44.961-44.961 44.961z"/><path d="m54.812 153.643c25.416-49.973 68.288-88.508 120.718-108.509 48.557-18.522 100.308-19.893 149.655-3.961 36.573 11.806 69.583 32.872 95.625 60.614l-42.603-4.982-3.507 29.986 94.041 10.997 10.649-92.861-29.994-3.44-4.768 41.576c-29.795-32.4-67.888-56.973-110.168-70.622-27.136-8.76-55.291-12.905-83.681-12.334-29.377.597-58.316 6.254-86.01 16.819-59.442 22.676-108.049 66.369-136.868 123.031-28.61 56.255-35.491 120.689-19.375 181.434l29.181-7.742c-14.209-53.556-8.135-110.38 17.105-160.006z"/><path d="m499.093 176.08-28.672 9.454c18.195 55.186 14.475 114.569-10.476 167.213-25.028 52.806-68.892 93.362-123.512 114.198-50.43 19.236-106.111 19.747-156.785 1.44-40.057-14.473-75.049-39.919-101.03-73.005l46.346 5.42 3.507-29.986-94.041-10.997-10.65 92.861 29.994 3.439 4.361-38.027c29.096 35.529 67.514 62.885 111.254 78.689 27.997 10.115 57.329 15.166 86.672 15.164 30.895-.001 61.803-5.603 91.132-16.791 61.925-23.622 111.657-69.604 140.034-129.475 28.286-59.681 32.5-127.014 11.866-189.597z"/></svg>