<svg id="Capa_1" enable-background="new 0 0 512 512" height="512" viewBox="0 0 512 512" width="512" xmlns="http://www.w3.org/2000/svg"><path d="m510.323 450.259h-107.746v-31.783h-93.524v31.346c-63.98-3.602-123.628-30.219-169.303-75.894-45.676-45.677-72.293-105.324-75.895-169.304h31.346v-93.524h-31.783v-111.1h-29.957v111.1h-31.784v93.523h31.783v190.219h29.957v-76.399c13.882 28.025 32.387 53.906 55.149 76.668s48.642 41.267 76.668 55.149h-102.853v29.957h216.672v31.783h93.524v-31.784h107.746zm-478.688-309.201h33.609v33.608h-33.609zm340.985 340.985h-33.61v-33.609h33.609v33.609z"/></svg>