<svg id="Capa_1" enable-background="new 0 0 512 512" height="512" viewBox="0 0 512 512" width="512" xmlns="http://www.w3.org/2000/svg"><path d="m368.428 170.622c-8.605-93.859-87.754-167.619-183.819-167.619-101.794 0-184.609 82.815-184.609 184.609 0 98.106 76.926 178.571 173.626 184.273v137.111h338.374v-338.374zm-338.428 16.99c0-85.252 69.357-154.609 154.609-154.609 85.251 0 154.608 69.357 154.608 154.609s-69.357 154.61-154.608 154.61c-85.252 0-154.609-69.358-154.609-154.61zm452 291.385h-278.374v-107.75c88.632-9.111 158.87-81.189 165.127-170.625h113.247z"/></svg>