<svg id="Capa_1" enable-background="new 0 0 512 512" height="512" viewBox="0 0 512 512" width="512" xmlns="http://www.w3.org/2000/svg"><path d="m512 176.275-147.59-147.591-79.385 79.385-142.26 84.633-81.771 250.92 39.522 39.694 253.027-84.499 79.243-143.326zm-147.59-105.138 105.139 105.138-48.872 48.873-105.14-105.139zm-31.475 302.913-213.161 71.186 115.612-115.49 33.247-.138-.619-54.401-54.185.617.139 32.89-114.814 114.691 68.656-210.674 124.143-73.855 110.123 110.123z"/><path d="m82.569 177.298v-52.552h52.553v-30.018h-52.553v-52.552h-30.018v52.552h-52.551v30.018h52.551v52.552z"/></svg>