<svg id="Capa_1" enable-background="new 0 0 512 512" height="512" viewBox="0 0 512 512" width="512" xmlns="http://www.w3.org/2000/svg"><path d="m512 173.281-133.855-133.856-71.766 71.766-127.152 75.645-65.94 232.661-10.617 10.617c-8.027 8.027-18.699 12.448-30.051 12.448s-22.024-4.421-30.052-12.448c-16.108-16.108-16.689-41.901-1.322-58.719l20.281-22.198c26.218-28.694 25.228-72.7-2.257-100.184l-38.048-38.048-21.221 21.222 38.048 38.048c16.108 16.108 16.689 41.901 1.322 58.719l-20.281 22.198c-26.218 28.694-25.228 72.7 2.257 100.184 13.695 13.696 31.904 21.238 51.273 21.238s37.577-7.543 51.272-21.238l10.572-10.571 235.114-67.782 70.828-128.107zm-133.855-91.412 91.413 91.412-41.26 41.26-91.413-91.413zm-29.172 266.354-172.416 50.635 87.26-87.156 30.603-.127-.589-51.757-51.541.588.128 30.254-86.631 86.527 48.478-170.324 109.04-64.87 96.395 96.395z"/></svg>