<svg id="Capa_1" enable-background="new 0 0 512 512" height="512" viewBox="0 0 512 512" width="512" xmlns="http://www.w3.org/2000/svg"><path d="m256 365.514c-31.063 0-62.127-2.896-94.293-8.688l-10.258-1.847-1.786-10.269c-10.7-61.531-10.7-123.929 0-185.462l1.786-10.269 10.258-1.847c64.331-11.583 124.254-11.583 188.586 0l10.258 1.847 1.786 10.269c10.7 61.532 10.7 123.93 0 185.462l-1.786 10.269-10.258 1.847c-32.165 5.792-63.229 8.688-94.293 8.688zm-78.658-36.263c53.408 8.584 103.911 8.584 157.316 0 7.854-51.324 7.854-103.219 0-154.543-53.407-8.583-103.911-8.583-157.316 0-7.854 51.324-7.854 103.219 0 154.543z"/><path d="m377.383 112.711h-242.766l121.383-112.711zm-166.85-29.811h90.934l-45.467-42.219z"/><path d="m256 512-121.383-112.711h242.767zm-45.467-82.9 45.467 42.219 45.467-42.219z"/><path d="m399.289 377.384v-242.768l112.711 121.384zm29.811-166.851v90.935l42.219-45.468z"/><path d="m112.711 377.384-112.711-121.384 112.711-121.383zm-72.03-121.384 42.219 45.467v-90.935z"/></svg>