<svg id="Capa_1" enable-background="new 0 0 512 512" height="512" viewBox="0 0 512 512" width="512" xmlns="http://www.w3.org/2000/svg"><path d="m147.007 443.615-79.407-79.408 99.968-109.039-99.922-109.997 78.31-78.31 110.044 99.963 110.135-100.047 78.182 79.535-99.884 108.949 99.921 109.997-78.311 78.31-109.997-99.922zm108.947-140.718 109.093 99.101 37.737-37.738-99.1-109.093 99.137-108.134-37.865-38.52-108.956 98.976-109.046-99.059-37.738 37.738 99.101 109.093-99.054 108.043 38.648 38.648z"/><path d="m256 113.802-122.558-113.802h245.116zm-45.907-83.702 45.907 42.627 45.908-42.627z"/><path d="m378.558 512h-245.116l122.558-113.801zm-168.465-30.099h91.815l-45.908-42.628z"/><path d="m512 378.559-113.802-122.559 113.802-122.558zm-72.727-122.559 42.627 45.908v-91.815z"/><path d="m0 378.559v-245.117l113.802 122.558zm30.1-168.466v91.815l42.628-45.908z"/></svg>