<svg id="Capa_1" enable-background="new 0 0 512 512" height="512" viewBox="0 0 512 512" width="512" xmlns="http://www.w3.org/2000/svg"><path d="m391.515 241.808v-41.918c0-43.784-35.621-79.405-79.405-79.405h-41.08v-120.485h-271.03v271.029h120.485v41.081c0 43.784 35.621 79.405 79.405 79.405h41.918c7.502 67.675 65.034 120.485 134.677 120.485 74.723 0 135.515-60.792 135.515-135.515 0-69.643-52.81-127.175-120.485-134.677zm-271.03-41.918v41.081h-90.426v-210.912h210.912v90.427h-41.08c-43.784-.001-79.406 35.62-79.406 79.404zm30.059 112.22v-112.22c0-27.209 22.137-49.346 49.346-49.346h112.22c27.209 0 49.346 22.137 49.346 49.346v41.919c-62.739 6.955-112.693 56.908-119.648 119.648h-41.918c-27.209-.001-49.346-22.138-49.346-49.347zm225.941 169.831c-58.149 0-105.456-47.307-105.456-105.456s47.307-105.456 105.456-105.456 105.456 47.307 105.456 105.456-47.307 105.456-105.456 105.456z"/></svg>